<mxfile host="65bd71144e">
    <diagram id="fqGExvLjFxlZi1iw6J3v" name="Page-1">
        <mxGraphModel dx="746" dy="308" grid="1" gridSize="10" guides="1" tooltips="1" connect="1" arrows="1" fold="1" page="1" pageScale="1" pageWidth="850" pageHeight="1100" math="0" shadow="0">
            <root>
                <mxCell id="0"/>
                <mxCell id="1" parent="0"/>
                <mxCell id="2" value="" style="shape=image;verticalLabelPosition=bottom;labelBackgroundColor=default;verticalAlign=top;aspect=fixed;imageAspect=0;image=data:image/jpeg,/9j/4AAQSkZJRgABAQAAAQABAAD/2wCEAAYGBgYHBgcICAcKCwoLCg8ODAwODxYQERAREBYiFRkVFRkVIh4kHhweJB42KiYmKjY+NDI0PkxERExfWl98fKcBBgYGBgcGBwgIBwoLCgsKDw4MDA4PFhAREBEQFiIVGRUVGRUiHiQeHB4kHjYqJiYqNj40MjQ+TERETF9aX3x8p//CABEIArsGQAMBIgACEQEDEQH/xAAwAAADAQEBAQAAAAAAAAAAAAAAAQIDBAUGAQEBAQEBAAAAAAAAAAAAAAAAAQIDBP/aAAwDAQACEAMQAAAC7gIy1z0oacDAz0z0AAYmAAAAAAAAjO5qqAgAAAAAAAAABZa5Vq04AAAAAAAaBgCm4LAAAAAAGIGJgAAAAAAAAAAAowAAAAAAAAAAAAAAAQAAAAAQAAAAAAAAAAAAAANAwBAAAAAAAADQMEMQNNDAAAAAAAAAAi4KBgAAANMEQOwAAAAAJTVltOUAAAAAAAAAAAOcAy0MzYmgAJbkszK0Mw0M2W8w0ICzNlzNQTc1RBGhAWQFqQokKJYxIEXU3nUUJgAAAAAAAARUmgpLICyAsgLICyA0Mw0Mw0Mw0IZRIUSxiYADEDAAAAAAAAAAAAQMQMQNAAAAAAAAAAAAAAAAAAAAAAAAAAAAAAAAAAA0DAAAAAAAAIqSmAAAAAIQrGAAAAAASmrLacoAAAAAAAAAAAc4AJhmaMzNGZGjsyNQyegZPQXM0DM0DM0DM0xKOTtJLRJOhJQklIQxUwAEWQh1y6GogYgbSGIG5YxA7zDQzDUyDUzRqZkaGbLICyQpyxoAABNklBJQSrCSgkoJLCCwlWEFhBYQWEFBJQSUEFhBYQWEFhBYQWEFhBaJKCWwQwTATAAAAAEMEMAAAAAAGgYgZIUSFEMpxYRcFiYAACHFTVUiGIGIGJgASmrLacoAAAAAAAAAAn4Z6gAAwAAAGAAAAAAAAAAAed6HIdKvmI6vP7zm7MsDtOXqM8Mg7TDQW3i+wZ78PcR5/fiac2odQAxA05EvOk9cAAAAAAGkM59imAhglQJUETrwnTXF6JmaBBYQtAzNAzxXCepUbEGgZmgZmgZmgZmgZPQMzQMzQM1oGZoGZoGZoGZoiCwgsJKQmAmimIKJCiSKJCiQokKJYxIokKJZSllEotSFkBZDKJClIU4aUSLRJYxA0ANAADEwEDBDcsaAqShtOUAAAAAAAEMQP5L6z5c+hAAAYIZLGIKEDEDEDEDEDEwTATCaAXN1o4+wDHYBMDO2GegBlqHP0ANAAANMji7cDqEwAAAABoZz8j6joJoAAAGIDDcObq4O8AAAAAMdg8letgb0gYAAAAAAAAAAAIAAAAAAAAAAAAAABAxANMAAAAAAAAAAAAAAAAAAAYIYIYJoGAAAAAAAADBDBAwABMEMAAAAABgAAAAACaAAAA8f18QAAMhzd2YcXp+Xntr1bYXGhVXORqjMsSTQXJ6BhVWZmgZlsyp2mZoLmtZIdszWoZLXNGtBc3YQrlAtKhgnFgwgEDeV1RJFOINiQMdkOs2W4CyAsxsvNsy3mDUgLcBZmyyAslFvNlqQsgLICyQohlEhRIMQMQMQMQMQAAxAAAAAAAAADTAAAABDAAAAAAAAAAAAAYgYgYAAAAAMAQMAAAAAAAAAAAAAGAAAAAAAACAAAABAGIAZa5VqDifN9DlnbsjXhvPrsGePHbKenujTlvDpzy62oMOxOTM1nStMeq45unk605989LigIJaFUWAAs9Mq1WHNHoPz9jqzqa0AgaCLz0pgQAibz0pgQZ6Z1o0Q0BLTKEDAM9M9AADPTM0AAAmpoAYRcFNMAAi4LAEMM7mxDBZ6wUqCSgyudCVYROuYysixWZ1y9lRGnNHTGsDVhJOpmyiS0JUiW6IdBM6QBYQWGVFElhBciKZJQQUEumQWGdFElhm7mkUElBDKJKCSpGMEMRCYVItEVDaBiBpoGgAAAAAADnYBlrjZq4FtSRpjUVuRMa81c7fanncbkINM2K8qBprl0QCktLIRpKQ7xstQFebpgPvtj5t2csdsGXQsI6jjo205t6slw0BnrlpVCIeWmdaNEMAlpjAGAZaZ6gAGdxVtOAIFpz7jAHnclNMABTUlgAAReegABnpmaAAAZ6Z6ACHFZl+dvJ1q+Q21z0Oe4Zz2sz0YvMz6cdSaiwGhzUhU0AApqSwAAIqLExDmoLc0ABIBQA0BNRY3LHFQWJjTCKmgEwmpKaYCZFTQ0ARpFlicoAAAAAAAAAAAYABlrlZowlAYo0zrRMjm2saIuLnQABhnSYxggCLixDBJhFxYJh5PdwemUn55v0+F7wpuC1ZELQOVb3XDXbBJjJtePSQaERG2dMtxm7DMopFkQWGOk6VBZERrhWhzqNObo2PNvvDl6ubM9CI1B0yC0TOkjVAmIi5oGgedwaOQZIK86KJCsrgI0ZakJ1x0KIYpuTXm2B1AK4ZTgLlKqqHFEMcuDUlFkArzoogLjh7K1M3FkMZLLICyGFQyyAqSa0chanMevLulkktSKrcMokFUNKES1FRZbmpQAAAAAAAAAAAwADLXKzVy1YEGd52aNNQAIuDQAYgQgtAABncWNDEAZ6Z6AAedvv5h6oqPI9fyPXCLzNGiGAZ3FFAAmjlno1rm6M+aO2MtDVoGJkgFAAEk3wydmC6jkrtzDQBiDhXXJ5fteZ6Z5nfy7HQ0wAEgKABMM9M9AADPTM0AAAzvPQAAi8zSayOeKs30ixiB53BbTEMIqLGAE1I2mAARcFgACJqLDny5jq6K5itb5iJ6JNNIVRrx9kaZ8u5emG1c3Tz9ROO8pZyyvYjmN68/vKBkzlknYxiyvll6nw99iKFmNISpjlPQfD3SgAAAAAIYgfJ1+EesAGWuVlvOiyAqHJo85Nji6quJ5TvcqWyWIJNSAokFWdlEhSSJ0yo0M2XzbI5O7mxOrWWOHBq8w0MwdZUaGZGhmw0w0qyCI5e2Kno5cT0HzalKec7cOPWB9NGPRjoWZhpmTWxm4sgDm3sbnnM+nn6DRyxiASDQQDQReeg0ARcGggaAi4sAAz0gsAmgM9M9AACLgtoGAZ6Z2MAJqRsAACakoAACKmjl3sDDeSmmABKorPRhlVhnas5d6ZC0k49NdUyz6Q4+yaBpryLslCkzLn7ORddZpHwbcy79FwnNPTmdLCUAAAAATQAB4Pu+edTTDPSKdRaAC8vL6XJvPTl0Tm83Z5vZpvw93Pkuni7QAlScmggADO4tGAomibz0AAIuC87o87r15Y6Y5Na6QIACXNVjGPonB28+4tcdoAAz0zNBcwsddjj3VHUwGJmemWtc/NXYY6c/QaAQDRFTgE31ExrmMpkOkQMB0ElIzpaEOghaQNWEOgyudCCwidcyp0zOTs8/0jO50JVhE6xTKcZuwyudBDZM6QBTILRKuQVhBaM7VElBM6RZSprJSJGxFBJQRSpEUKpuUYwQwikwAHLQ2gSoBAKkFcfXJzdgwAlAAAAAEAACVBgAOLmp0y1QaanJ14WatXHH1Mo4+zirXomoAJVFSmgCgBncWjAUTRGmWgwAi4Kc0MRC4+3OuXXoxjV8OprcVXHfYGWyIy2xZquSDs43qZdWoMTFhsjj6teY6Tg7CdctThfaETrkaCYLnzM+p7gAGemZbTBNEVLLQxDRNxYABnpmaAAAZ6Z6AAGWuRqAc+7RGmegABFwWAMTM9M9AAHFSU0wTQRUGgmAIi4sAAmpqmECYSDpgAATUWg0K5aSgAAJaYwAmpKEwAEADAJqSmmAEoAAAAAmCAAAwaBoKx0WqZmgua1SZW7MzRLnzdsWBZLmaBlO0IFiwWJjZRJYsO0Y2tEksXNayQ3ZmaBGe+YLQIy6A87fo5DpXEzrye0cWnVrXNroRE7RQXEBz9ZmtJptkTxd4cfVzxXYS4eM8xvj07GXRITcUUpY4rM1IC1IJxRbgLIAvNlkMvNwbEBZALTGiyAuHmbkIsgFrjZZAXDitSHFOAV5XVkEXBNakkUSDkmtHBFkArzqqJIqSbNSEuihjchZKLJBXnSUSFJI0JYxBNSyhA5clNMABADACakdTQNOUTBDBAAACYIaMGAAVnplqjAUAIvPRCaSuLgsTAAUXBYAAEUhKaFaAz0z0BoHLROmegAoeemdaCmKnksk6aJx6w4us4zp14+sbTDPTMvi7g870eHuEhGggYoB8TMzuZnrzanQJgAZ6Z6Amgz0zLAAAipoYwSqRVNDACLzNAAAM9M9AQBF5iy6eE7wCNM9AADPSCxghhFRYwAi4LAAAU0hgxJom4sAAmpsoBQAQAwYgCWqRDAmkA2JUEUMRQSrkBskoIKBOgmdJCpoGEoAAAhggAABMMAAArLXK0oQtEiTpjoUSLUklvKi1KLghNXAtkAyUmpAtqGK8rLIC1AO8LNVmy8ziOrF9ULWGOSa1JUaEBz5dVka8cndCRqSydJAU8Z38+PSYadTMN8tRiB8fXmY9JzHWcnSTpnY0AZ6ZltMQBFRYwBy5C4sAQ87g0AAAy0iwADPSCMeyA0Ai4sAAi4NAAAM7jQAAi4LEwEAgqk1AmEXNAAEXNlAKACAG0AATU0gMCakbABompoYATUjaYACBFNME0K4oYmoBABQACYIAE+eBgAFZXGiBQslIzuNERQqm5E1QikKNIShioYTNylDFQBFxYDBDDO40FK5hb7SaA4TYQqirWOR03ydItM9YkoOOO/Ep+ejr59uk4enaRlhBYY2tCMcsa9KNc4paSZ8fos4ujng7CmZxrAy2QrDGnRJYZxvAqdEFBE6yItElhjRoZuwnPaBc3b552t0ZUVUuiJnXOgtxBYZUXUFqJm1QU4gtEFOpKIQwzuaoAgi4ssQNyA5CyQokFUsokKlyaEhSQFQynDKkkt5sshjSC3AXKAuLBpgAoAAAAAmg8f2PNjrAACs7jRBiVpoz0z0RiFctEaRaNApnpmltNQEEVCaiFaaM9IsYAAGTz5iu5WGemZo5qAAUXNcXoc2ZrvntGemUm8cdDx7mRWocPRtwnWuboNGgaAy2y1PNvvBZ65miYKkGc1Z5/oZ8Z3xUmjQABncaAAGemRdRYAhyItNDAM9IsAAi4L4+zlOlpkXGgmmEXBbAE0Z6ZajBBFxVtEABLmigQCCbiwACamygFACQEoBQBJqaAAJqShBQAnNAwCagbTAaBAUACaFUWMAYhWIGIGIAAOHumMgAArO4E0ICzNivGzRSFqUF5UWQGmbg0cBZKKzqTQkWzNivOiyAtTgc/bzdaW82t51BpUBZm4qHFbkc0dfPx9dcvTtY6zI0zcGzzDQgMuT0JJ15cT0TGxaY2aGYaZvM3ICyAV5UXny8x0dF+eem+fQ0IAvKizMNM3JdZhoZhcpGpAaKANMaLICpSNSMzdQFXkzQzZcE1q4UaKCpvLRLIJbgmzUhy0SA4dliJWgJvPQAAi5soBQQImkoTAAi4sBMJqSgBgE1NDEDipGDBoECLEDQhXnoMQMQMQrAAAAAQGDCACpCU0AUAM7i0YCgBnplojEK87hLc0oCCLgsAACLixgRPFptWEdUGXbh0BncGgnARxnbxTvXP0dhCYGemelEWoedItoGAKWjSWzkntkx24NjqEDzvM1AAAgLOfl9LzT0c9czh7jiPQaCLixpoIvMtpgASKhgxKpJuaAAlDMvO6cj0ipC5oAAi4LGEsDO4ugCDPSLLAlQwipuxFEsthnSqkUEzpCBYsFCZtsRTJVozpsksIWkgUElhnRRJQTOkgNklBCtCKBK0TcWMQMTABQAAAAAAxAgAFnrlZqAoAZXNIwFACLz0QAUi4Kc0AAZ3mmoCggmpZaIOP0OLtM+Xq0JuXBnXnnfx5d5x9uoEXFaiIYgz1y0picGemZoAMTJTk0ExiCA0PP168TTPmR3OKGAZ6Zai4e/M0y1yNPN9Lzz0BMi89BpoM9My3LGARU0NoHLQqmgBmdTY+LtBTUjaYxAS0WJgNGdxdgBKZ6QliFYImopKAUAqamwBDioSxNQAlzSMEtJMmppGApFSliYAE3FDACagppgAJAMaBNCuLAAGhQAAAAAAARmBAAGG+djLCFoGLtCNBczRGNmiZrUM52kyp2ZuxYjaEFoLkefknqzz8x09cdC+f11zGt8aOni17TzevrgRoGZoETrAGgZuww0WqZmhLnO0ULQjN2Gc6qkaEZuwxudiCwjDqyOSfRkyvmRvpl0GZoGcbZj87qg6jQMKNCFoEZ75gtAzdhk3ZBoGc7QItmZoGTdkOwzWuYnTINAynaRFsgsMbm7ExQ87iraUUkVN50WQGikC86KIC4INiAtSBWdFqQpSDrNmhAXJBq4CyAdZssgLSk0cBakGSFkhUklVNAArEwEAAAA0AAGYEAAZa5WaNNQAUXCaAKAGdxoAATUka5aDQBFwaRXEedls439HzfTs0AlBoz1y1oacKLzq2nAAGemdagQAGeuWlMCDPTM0AAAlMKYAAZa5ajEBnpkatARYcB1WYU5J5e4OfuYJPArTi7BgBnpmW0wAM7ixgBncFgDAMtc9AGBnpmUwGICKRTAADLTPRABVGmdmgEoARU1YAKAE3FgICLzTRpqAEVNIwFE5Qc0MEtRUJoJgATUWAATUFOaAAlpgMFNwU0wAUAAAAAAAAA8+OwAAAy0zs0IRo+PZdYITczDRQBeNGpkLrMCGmGhb87sXXMhNvJ9LNeXo3YIlNjMXVQBpjSaEJbhI0eYaGYaZ8XWbvJxoZOjTCzR5ONMya2IUaEAyCtTMjQzA1ws0Mw0zJNiEaKAnXCzR5suVJqQiyA5emOI9Hm4Nz1MyTYzRqZg6yo0MwuBGhAaGYGmNluEaZiNHmynANJVqQRZKJ0yuqEQ87izQTlARFxdjQKJyFRYABFwltCsQTUtKEwmpFUsoTFNwWADQTUWAA4vMqkDEyXNDACLgppgAoAAAAAAAAeZ6flx6AAABlrlZfN0cJp2ApGAdRnRQuc2rKToSQrmiL83M19Lj6ip830UtpqDQprE1rh7CjmmOi8c66n5PfG0c0Hc4xN8sINuh8Veg+bpgAM9M9KYEGd5mogYBKaKYAAZ6Z6A0BFwWAABnplqMEPO4LAAA8o9DmOb1MOsWemRoADTIqNAADPTMsGABFxYwBRpmW0wAIB0wIEwzpXUlETGudMsiFoGNlWSrFhaJM6bJLCJ1gCwgsMqKEUEq0Q6ZDoJnSQKBDDOlQmARpA2mMQKoZZIOXJo0wBKwAAAAAAADn6CMwAADLXKwx3ldpYcN9UE3TOd7o5suyU0y1aipHkdHVqmS2S8vQ0aCYABw92SPRNeXH0CM8tdK4d9nHG+nI14PQRybbhjn0clPui4ARnrlpTBQ89M60AhiCQCxMARGmWomAZ6ZGogaGZa5agAPLTM1QACI0y0GCHlpmaNAAEXnoAARcFtMACLixgBnpmW0DEEuapgQAGemdjEDzuKtpwAEVNUAQTU0VFDEwi800E1ACKmkYAJyOpYwFU1KWJiAIuLAAIuCmmIYRcWMAIuCwBiagAAAAAAAABGYgYARU1FK0koIjaBlMhaBktZBaBBbOe3ZmachvOeoy2Q7FzjaEFoLBaMdct0hCWp0RNUyCyIiimAZbYdJja0SDRLE1556KsiQszLVI0IzmPOPU0jasnTic98xGoZOww0WpmaBEbZjWgZGqMNFoStAzjfIl5dRmaBja0ILCJ1gC2ZuwxoupdOM898K0QQywyoqyW1KBzVteeZ0Pm2LzcJsQLbzAvKksgW5UpbzZbzC4INiA0M2FZUaGbLlItwyyAqUFiBiQry0GIHFQaCYAibzsbQPO8zRpgArAAAAAAAAADICGAEtVGmQmqx1XGqzR7YZnW/K9FbmpQmsF3vm6jNrmQ5u3hX0c9sE34toWe3k3OTsw1ObeqObq5bNc6xM9p7I4r6Jrbl65Ijbnis+zmMujLqOc14gb2rm0254471Dtw25xd3D6JMvhOzXk7COH0uM22x1pgQZ3mbCYJoy1y1AEVjrmaCY0Bz5PrFjrzmxAPUguebpJOfY0JDbl6uA6N8djGKQb8PcWgFxduRhrsxgEVGNZ9vH2QZxoHN0c1dMVhG7830TRcsncIJvLSgTCLgbTGJhFQmgCsQRcWgAEXI2ADCBgFMgpGdFkOgidcyhslWGGk6CVMidczRpgAowAAAAAAAADIZAACarHi7cE6KVma0grO2cvXLW83KPk7GY9MIKy0OfW2tQJLebHUCtEJuoFZKJ1wtNjKl0zINKyotQGkGZ0KEaKANcLNDMDHaTVSDqHDeV1qsyNDNk64XWhmRpk4rcyI1M2TrhZosw0zeddBmRoZsz1yo1yoKzrM3M2O8wV5WWoZebg1rMNJlk643VmZE8vbJj1SFkAc+mVldOWksVUkRrYufpDm1rOs7jeKAM7i6aaCLhKaatAEXCWAo0EaRSMBSLhLExNAhMpoBORXNA0wz0zLGgaCKixtMeWmZowABRoGAAgYAJoGgzacAAhoxjTWyKoWFpCKo0AZKs9M7NGmoAZ3NIwFE0KpsQyFnpFWBAmGVxpQMgi4p1NADhRpnWgEABnpnpTEQZ6Z1oJwAEVLqwIADPTLQYgM9MzQAaAjTLUBAZ6ZGwmABlrlqAA8tMjUYABneegABFwaAAAZaZ60hqCLg0QAMMm6JKCVaqG6IdERG0UnZEKysaWiQWLEbQidUuZYmauRlAhhnpFgAE1BbkKJBVIWSFJIpwyyGORGhIUShVFFOGVDk1aYAxAKwBMAABNBNc0agA0DQGWmd2U0KJhF56IxOVZ6RZbTlAKippGAonIrjQAUGdxWgECAz0zqqAhy5p1FDE4IqK0aIYBlrlpTE4M9Mq0AhiBOXViIaAz0z0AQPLTM0ABoM9ctQADLXI1csYgz1y0GCHlrkatA0wy0z0GgCLzNGgYBlpnrQmQs9ILaYAGdxYAhy0DTGAEVBoIAAy0z0sAaqNMymmNASmJQCgCRcWAARcFtMQ0Z3NDAHFwU0xgEoY2mCck3NiGCz1zNGmAAMAE1TAAAADz/AEMYYA0MQBlcOynLGIWLjREmyZ0gZQSUGdFCKRJQRSoQwmNcylYsOgyosgtma1khuiCwzxy6TR3mNaBhZZBYRG2aBolh2zGmyKsjN2jKy6zNCM8+jKmWRBYY2aWZmhLlBpYy3Lm7DC1qZmgZztkNrUzLkz0jUgpkRvnTLIgsMLWlkuiWI2zplAhoipErj1wXvSRVZssgLgzTc5djQzBaY2WQFwQauAsgByGhDKEhXnRQgedwaCY0BFxQwBxcFMBoCXNFAhy5C5oGgM7k0AAAYAAKmmAAJggDMCBoAAy0irKaFaAz0z0QAUz0hLAlBoikWWglE0TcaCADLTOtQIADO4uhhBNSKpugCOXXDat88emAERplrTTmPOvVHX5vpcRp1c3QZ3FFMATRlzaut415Y6OadC8DYw68OgzyhGvTjZy9M0YdnH2gAZa5aixcDuIOppnPGtEUwzlo3w6OA7VrzEdnP0HJhtmdmqYZ6Z1o0QwDkVZ1zehncZdOWlOpoAIOXp4K26FxnZXm+iRpw9qMBSLhKYKTXKj25mdLYJUiaVElBMawMoJVhlash2ExrAFsgsMm6JLCJ0kl0yHTM6AsAGgYAAAJqAACAAzAgAAAgcWaOWrEkjTKyyGXm4NXmFkChKTYgltSqNMbSyCWocWbEzLoZgtMbrQzI0mVVXjZTzcS3nWl5yaqUGnPoamZGmZFbmYaEAVk02MyXSYKVRZoZkaZk2bEErc5GPVh0WXKJah52aaZuWyAnXn0NJhl5vOugzI0IBa88l3y9JrmRWzzIqs2TeV2aGZLpm4rYhlEuJvO7KhiqbgdSxiB8fXBXN1M5ugyMOvk60YCkXCWApGmRzbYdKagAmgc2IaCLgtpiGGdzYAxRpmW0wAIqbAYKNMxtUAwgAsAYAAAAIYJiGgAAzAlAAAJx2zsp0yXQuNzoktiqNc0GrENyxGkWWDlSpGekaWIZKo0zqxkIYZ3FUxkJVJNxpQBExplWnB3eVHrPz+0i/Odem0oqKwroYQJohqhgAmidMJOkXOdOfNvW4EEWGWuWtMWUaRxdhqc+homjLXlR2LLUM8MzvCDQw2Mr5+sTjA6s6itQIBhlrlqiGlM9M6sbiQdZ0UStEROsCKZDoIjaETsWC0Y2tEh0ExrA2wQwzZQDQ5aCpY3IOXJoSxuALyspwF5uTRwFkgryoskKhwaVAWQA89CmmAAAAmAmAACYIGuQEAAACy1zs1cuViDPTO7GBKTU0ri4aaFnpnZqBKJoz1y0sYEpnpmaCYAiKl1QECaJ0y0GgFnpnVZbuOLqsOHbTSlzdXJEXPVWgnAARUUMaBNHDrruHB3hya0Vo04QBnrlpT4+tRKvOop6w08Ti7MOknVs4+f1OQ6+TrRm3kVrnZzRsGquDQAGIz1y0sBkqz1zqwUJjIuNKAIUXFNpgDJmpLACaRnpnojBK89M0tpqAEVLSgAi8yqmhgEphQMQ0RcWMSKzpFgAMM7ixgh56ZlOWNNE3noUAAAAAAAAAAmgakhpygAACz0ystpwAEMdAwStGdqySgiNsi1ZLBRWVq0RRLMaTQU4goMnSoLCVajO5ukqCY1gbZCKZjRdYc/TvERtnTKZBZGTdVJbjOdprO3ZmaERG2dBoog0DDRaWQtCWM98rG6csc/Wzn1NDMsIy6MqZaiTRGFmlkqyWc9JsoprDoMdJ0SShVnrmlNCtygvKk0WYtyQaOAsgKSlNSEuigRaZUaKUXBJsQFkhN5WWSFRUFVLKJAJZbQNARc0AwIqDRpgAZ6Z6ACHnpmNjGmGWkWNpgAAAAAAAAAg5unnlsAYIYAstcrNKRKxMgaSmmomiNM9LGJyrPTI0AAAz1y0GAEXBYAJhCqSwATRncWAAReZo0wYGemWhQgMtcq0AhiCKTKaYS0K87G0wzuDQEMAy0z0pgQs9Mq1aIYgnTLUJpDx1zNAAAM9MtaAImbzNWgYIm89AaB5aZ1oIhgEVNUAQTUVTTAASAoAADO4tJGKRpCUNklIzpWIoJnSAGCLCB0IpkLSSKdEOgjPbMbpklBlasgsJz2gTtkFhjrFjYAAAAAAAAAhgotRm0KAAAGW2KaOGU80XKVbGZGikFpjdUQS3lWdm5mS2ShaY3ZoQS6ZuDV5sszByTWxmRooQXjdWZuLzJrZ5kaGbFphpWihxWbmtSAszcFZlmzyUusSqrTFmryDWJSbrMl0eTFpjVaGSjbGsrOgyJdjJj0w0s0UEt5vKzoIUuhkBphVmxk5bzcWbkEuhmydcNLLIJbyvOzUQrEgrOwYBF5lVFDAJEk0BK0Im4tE01M9M00aaiaTPSLGAEXmWDAEKosbAJqQqaAGTlrBbGABnpnoAAZ6ZGjTAAzvPQbAAAAAAAAAAAQ0ZCcoAAMMdsUsA5jPtM60zrQxmXoAIuNBDBZbc5z9/BodRx9Ir5xOljWZuRtUSwJzwuunm6c4KmDl7+PsoORx0xpxnY5oGBGmOowBYXynbWGwHGHTXJsbGOhUcHbTvnUdTTJlyagDRJOWnKdpx9os8eevTMN4BBOvN0jGCy1zNEwz5QNejn6ETSWstIsomJdxBnpza2aFCzntklK2uGZsk3yo6iWVOO4nVEFtcXTSSxYS0TKlYmxZjXJLChICbmwAHneZblGhFE1FGjgLzcGjzZoZhShG5myyAWmGhoZhebzNzOTZ40LTHYbQMTAAAAAAAAAAMGEo0wAFnrkjc0cPRgHYmq8zbu5Je1jM9M7KQBx9nMPl9CDz+6rMcnadIhSakdRQ0I83eeuny9ag5OzEM9dDyte1lcXZxHXpFg0GemegxSc+eu5j0gc+XaGHP10LHoRhqww0jUsTJmlVgQJoXF2aHF2xocWPp5EbxocedaC68tRiB56ZGoAcfZmRaxroCoUaZpjHU1rk60cb3LNgFM9M0tMXm3VRwLtVMcRltnrZbmlYBDTRquddQDmc0mjzcu/FtzWa9OG5zCRfThB0WrM+HVG7vAOuLIqbGAGWvIV0ef3FHPJtUI2eYaEWZ6Z6AMFlrxm/NnoT6HD3GemeiMBWAAAAAAAAAAAYico0wADPSEzpaVJTjOds6ZTiCwxtaEli5xvmidNYNAxLKRZETqiG7M8OoMXrFOdSMlqjHQusnoRnn0Zk1YSUGVOqjPoIxeuYywgsMinZDslhaTUOqTM0Jc50ViNCWHTMrWhK0DONsx5dEHH10zK1pZBZLOe2djdOWC0cqfRYinLEaxYykAyIuKqhCuHKWJLZmxXlSWQ1qXBo4DQgG82mmNitEpTiiW8CN1Ro5CpYQyxiDG7gyjqCmgi4sbQHn+hBhvTOKO8OfSszC12ANEXFjADy/U5zGencmgMtI0AAGgYmAmAAAAAASZNOViBgxJhlpnpYNEpneaagKAiNM9EoQpF5luaAAlCLAAaFUWAAouC2IaAi4sBA87g0ExJhGmVlEhUOTQTAAzuLGCCagdRQxMkElgKwRN56ACKzrM3SBoDPXLWgRDz0zNRMBBnplojAVZ6Z2aiJWII1x0soTlM9MrNCRWIJuLQBLUVCW01aAmpaUmlJqUKVBFhKYUDEMM7mxDBRpIFBLYZ0qE6CZ0gHTILRhzadIqpkFozosh0ExrAygkoMtc9AaYAAAAAAAACaHz9HIaico0DExy0Za5WjcsM9M60BQ3ITpnZRItZ1maOGUSxS5s1JJaIYrzsYgIrOtiCLMwLx0puFGmdQmpItJBOmV1SCCKitHLhpIV5urImNs1FmtYhsZUMgNiCXSUC0x0pkuHledmxLlAROuN2WQ5azvOzVyS0IM9MtLKQSmWkWaNCiajPSLsGEplrnZTYqaZF52jQKZ6QlNioYRU0lAKKpQqaAAhMLchSQKosAYpuCwYkwy0ixiCs6zNRUGW0EaKhgBNIm5sQwUaZltMADLSLGAAAAAAAAAAmgx2R/8QAAv/aAAwDAQACAAMAAAAh+gqia+KCCyOuwCCCqCCCAzz7z/vBnDV99NJBBx1998gAAQ8sAAQBBBBd9BBBBBBRlB99t9zvGOWCSyyyCS6GWqaW++6VqC++2++qSma+ucs4gE4682CCS26y8iLDDH//AOzw489+wz3+/wD3nEUHHHHEEE00132EEEEEEMPP/wD/AP8A/wD3++yuCCCCCOm6i22Syy+VqCyCC26CGO6aJhh8sc40gQcN1IAQEoI8E4oAQ9MEX733rTvZzDTHPT3f7DDPOu66nTDDDH7vDjvbiGGCSy2qCKKKqWCiGEGOOKyViCCCCSCDC6C+iy666++aiaCSyS+i62+PXHLzz/vzj/fP2iTHfLLPDfzzziCCe++uG+yWi41FL7y+iCGaeGeOKCery1tdtxJ915xVqGKCCGOeiWGK+GOOOO6SWOmuOuqiCffzrrLD/wD2xw1/zbSQQUfYbQQQQQQQXfffeQQQQTTawwwwxzwgkvvsssrggnvvssmgksgjvokgglvqmwhmekhdISPMLPAXLIELQIKdDBImrB70w1pjjutvoilt63wzwyxz/wD/ANtNzD3z/wC/6wwx0ssggvvvjjggnuhoggkvvvvugggggvugvggEgIp3T7NAmDcQyjguG60P7/M91A0L30jkogshnluFt/1y89/+n86kphniKnnihljkoktqrsrvjqqvrgoDDBGMAASYMrjlrvgggokcD7MrdVOfeOcdPIHCOfPI8xC09DzNsivgugiOscvWn8fyQX7XxQYhTk/HuY/x2tkqgqgsjp7kgsinsqllklulonqntXvvvtqjjglRupFrjHIOMLCIGICGBDjEo7EUGMhOolPvrOuLuqlmsl1mhlo0o/jhvrvqmnkohrjKirhgoimGuunvljuMFFdqKAKdgSvvuguvvgkTAieNAFCDnCPGKKPLOCRLw/4xzM6hysvulupsDS33gwSyUQwUwQSkLuedjGqsngAqnvghmimsvkNjnCHSGNKNYckcORdvqghjkwhUQY72a5MJgPHAFLGKGMMJDAO+3I2JIMGg2gmChugnovvg62nahUQgEoEKnqpgrjrtvqrglvumrsLDOLHPTTaBbZEVNafvoglrn6kFbNyxG6wIjPPcNCENGL7N/wBQE0r/AKyVG8KAlUOGi3+y2WgW+vqyu2OmCuOewKy6Km62me2mONcE4soVwFlJh9ZlBDFBF+6CCe+y+UJoETZwJAbU4RAUMwEQHwLrsxrjZD3Z6jNyP24gq5CoBmZ3Tx6VxCR2QUCCq+KS2OqWe6G++omaQsIJoJV9V15dBAhdV++KCS++uMT43zytsqvs9vMwfEs6wUcM0ZbI/gCO8uKUGeWOWame66yqyzeTCm+mG6qmU6iYWMSywyuw2pAcgUspFJJhlJJxBBx/9qSy+KS2iAdgg7U8AA488FscwscgHAD7H/DnjWTXuMOfNKJBLVCd9HxnVBHxDifuxU28qSSGSWCCS6+e+p8cUIsd9JxNFthRBjhV9iCCy+KSCAn8JLYuKUL8wDAY0I8SY027Q3H2r662m+j6AOpFmdup5W9PrFOBB2969ACW+CC6CCKOcWaW+ZU8Us89xBl11BVpxlpplICAAQsei8PAE/wQM070AzIImwgQpgfjs9lrnqPn6WyWEeGzW626eWGyiPjT+6/ayCEmA6SQGYKGQ+CEONdlNNt1d1BRhpDLJZtbRpAAAAU2C0TkU5MI3c/oE/MU2AoIB4r34pTCZbH1ukfiWyhhqt7t96RPzBPVP39ClW6e6iW+Gcu6eGGS+pc85UtV97NRVhFv1Zx9d1MMMM8OC8aBJfTH3/D/AIW8jJjMEwBKD9F7ANkhggtuljhigmhqrtgj0hi1gyossrthioJhMfiShjYnuvscKHycYWaRUQTXfbbTXWTTTEMIHIvDzAF0ILTAyBAnPOArKiWG+xYw1H8r8XuTWhDgfVp40bfxRqRW+YdYeldpglsvvPkTviQppHGcPbSV9cfxUYTX2XcjVvzScMMMMLvl5KN/PDfPPPH0OFHKAH8vv0Bz9KttiNmTBqVrUej1uVX1Vzdc5WfOegKnjqutvTqzpj0vMFKeIHUGNQGXfYddSQXdfw8bOMOMNPvkwTbzFA0U/wCw9hkuBzjDzTxxSykKBa5AKJoJY46rL5Jppcp55YIJJZqLY6LJrI29WNm113HkVFHNO9cWLf8Am/vFVV9//wDCDPPHPHvkYMNUAEvDLGKHXnVpqK6K89A85A1vvqogujbocUhfydR8a6RXgShlMoEtjmogi6oTigfOMDKYADQAVVGSQSy26QRdb0cPPPOAFhvmXYJyURwGW4DTLH3HBxOPPHKjHKnBkqNvogihmquppqsjwhhmgqmhgpiqouAhpAlWtuWNHHPbDBSQbScdaWdVZSWQUwcMNIAAKVvgURIGPEKPJEBTNIKPvG6si+Aw9A3jspsovrKvADhWvaUyYlKWgRkhHgtggsDnoBhNvpXCdUZReb3afbb/AHn8/OtEU24EQACBwxIIIUxDggzFxRHSQjwGD5wpaZ/iMezdRY7IoZrKYxjr150Vb1qX1r2opbIJa44j6K55yrID5gwgEhDVW2UDUn2332nkEEtUgAACiB44IzMXklFV0n21dXSlyi1QzArTQQ0QQJpz6ID5rK5LLoLaILb5Yr4pqIQrhJqGYRyRUCyEiFGGvEMcvtM1vvdv2NvUaEb3wAACADD4JwXw12SljCWh1yhSRggMhQ+IPexbNZIbZ6gI4hTqBIhkpmYn2sVLAXp6ZLYxKpRI774jjDTgtQwE9scH/OPOOctn52r3yAAAAADIIBcF30gnnXnglUw1BilhyDyxhyTxgjrhKoB5B7IZbx66ZLZq5ZoK54T5ao5ErLJ6xLrxSlRgHCSfzUmFmHHWlfWlfFvXywAwBSyoaaMCF0JnyyUAzjLg54RfwxvQM9Q/xpPwLo46rJ4I64n2707MNa6pb7jbp6JLLhCLCIgkBVjm/wBJLdtNNnVtdJzxHSxup58AgAUq+ueFkodKpq0BQEwGcCaEzMsTonDsaESfEGS6Oa+uiwCINulWlR6ciuC4S6CCiWqeCOuqp4g4chUxJ95J111VdBTpHTxyV9hIgAAG+a6v5sLZn19xFpNN9U84ow0o4sQkMtgIkuuky0KOhKxKKaemi6u2gGCxik8UVkYgsFJBh1t1th9hVhS9dF9T1dfFbzlXV9BAoAQomuq1EMR8ZWWheyy6cCKAjyYDgjv8HvTGuiK42WqKK2+Ga+sCA02dWaOum8uCA2k8+YwsF0tkJdlNFNzNZnzHzDbBK+7i1tBBIAE8e+qBolTNFN0pecVutGOgCYIqkEwcmIUgNCYoKNCyZit6iaKIC2GmUm+l+wI+xM8ksU4gVA5c0DRxZ1Hpxx5VpNRxHdRGdBBBxld9+ui59gTs15aRa+hOs2uMy2IGk2GULIiWC6SO+A2CcKiy2iSq2miOE+yrm4qMk0ocsV4MLl7dBLVLVpHZtJFKlhvz2mEWpBBRRBR4AMOxKON+8+WVWGt6uamES+qbwPX4nQe2O2Wi+4i+MbICQud+eGOCK+mFyg2y4ios4oU4dEVocFVt9F9Zh9JZdxdNSc8qBBBBBBVpowihrDRVlxt1SgVCoyO00SoQQuCcucAyQqUw+EGWlaViKCO0y25eRIg5wVMEZMkg8nUtTVxNBpFl1NdlBxxNpxj9isBSpBBBBBF+0EA9mKzq+9KG6ymmCSS22K2OGqiOe0Wu2qKeyemGUC8O6aSKK+I+uumSuYeigWsw08AIB8ZZ13BFNVYJBhBsV9ueeyAChBBBBBxfE48n7/pfzB6deyVWCqOwCGQa4CSIa8QKVmck0dSuQ+lyexetiC1OdWKhOVA4M0kgUtEcFs1gF1BV9ZD1pt5QxBjBCJBOhBBBBBBlI84HDn1eu6iGui/quKuca24e+GmumySye+Q+qmSW6C0ey+yaa+ju5+Kx09YdpBN9Y58Z5ApRJxRXhRenWfNmZx6Cqeu6tJBBBBBB0o83r/p6SWeG+SzOyCOweaW++quSeyWaaiqOSoy+OCiaiiOG++wunK6x8hwWwKpIAV04teJJh91t5tRBVBxqlx+xe1VX9BBBBBBFco0X1f8AS8+wt7umEtmniEloMsojhAppvhRhLQjVimkplmhSlatjevZU9VKdCMSBHBBWIUZaVTafQfRe5XVUUOQfhXOfOvbSSQQQUcDGKFLv0ttxonujvqmsopnsjiiujvquuqhvmur1lvtnnnuDkigjwkRrrQhTNIdPfHJVNYWSTaZTWZSRZbwZbiIMoEpMKqQQQQQVQSBGGJ//AEOec4Jb5X6raLiopjZNJLBKipazZUV2V5qSp0KKW6GoI1ZWxY3LHCg1y2TgkQE2kk11GkFHknldnFhTjjCKgyYEEEEEFXH/xAAC/9oADAMBAAIAAwAAABDHT+OY8sMM/Mfjf/8AXnzDwuPHPRtD8977/PLT/PLP/wDojnjgkPPLu86w34+8/wD8te88P99MN20U1UWX+8/+IMvus/b+s6Zf/MMu4oO1Y7P6RAihAxrwccNdPuOkMpa7s9z4jh47rQzCQQAovP8AzDDHP6z/ALjk82xz/wD+tHEXXlX0gIqOO/fMNMPevsdsfa88+6tP8/8A/aG/xvKyZVlgUsEkaEghdwwsN2KOm2yzl8Z1mCOCAcQSAAw48g4wUwQo9BFFIsc4wWOCeOOiT33zjDPn7/267HfbmcqPPqugLX//AP7vrH+135zx958/53+9/wDms/elds5eRY89W/eODR4vOAhDSjTSAxzD/vNsNMOVn+OulQjZ7+fMOetst9eJrrNIkFGXPPXW9uX7vf8AjHP/AB30+9y84w0y72/1/wDvcfve5q8PP/8AD3LRIgQCqrDTvDrHDT37DDTfvLDHrjDzPPpDDC+6y/zvDfzjzvDfjH/DD7DX/PXPyu7DX7TNT6lXzA0PnvmpmTscUcP/AF0zMfU9wZqotm//APsFXGFWFixgwxAQACAzJqLwyhzDTaopYa8sevcPfc08P+bseP8AjnDPLH7DCCCC7Hj7HY7ZY5Edg5G1TtSLbbsGyYyuxPudDRCez/nS9XRlV7ZIEIEMI4TgM8Zk7tlT3TTT3PrDH/Xj/naDuyCGGosIIl8c5VgyuOWqD/vL3N0jOHWShNG5snTTaZkYdbLb4KKNTwnHT/DaxQhWj2ZgPozXczk7aR2NcfDqsEkH3DLLv9NT8zvj73LPrPTbfv7/AI9jsct//wAtbPNe35/5+7IVEYEk7H24XhOHof6Uh0QNAM8hf/S8SOfsNcGSV2VWBWg1/l6NP6us++OOSOvfc+b/AIXDrnryPI0YNW4AcNuxS3/H/HTjHtkDXh1+xFJRxeZp2FsBSlmzCT3dl7m7/wBQXzd1wviEYE4N08M7Kytb5cgsT3bfd3y3417z79/ozyDuhHN0MMmGdWgcHOa8x89/4E2+xyextMgrD88ibfiks+Rree/ihWsSSQD7Az+DfTxVUfWYJFUtSngQ+Ww9YUzQT8T8/wDNP85vbf8AgE8Ycu5tn4n5I/UWpmLfTXb6r8rU48eaqzoNtzFZKtdZTvyyaY4PBHpy93Zogt91XUlpltjFJItNhLxoB1LRszjvLPLHu/emD1YcoQCHQDbDCXbiWQ6WhCH/AC36/wDdQshKH8C3s2mGvEGYGNUpX4bpQOrc5SomA4KIPOM3a19b1qCBeWo5+pEdvH0d1+J0GFFfe/b+jPPhAxuAPWENMYppsLIE47e9O98dwQb1+RBZSTZ/H4b0LZgUblEYgoV4wPuR82gvf0Xb2blWiUWVhUjGbW7H2JuxuvyPzOMC8PzO0gAbDK8kttvYfo48o6iupIIqZLcdztBLkZ7u2YAyeFkoVkkdU6apPebnHYp3f3Sbmqawa3a5yJDpPgbQl3lK8ndMFns1vN9dvuIsESwrA7d1v9+5O6pdgN6/I77KKZJfwTQOVaDxa2IbDLr7cpRtM+pEpIcANuGtFjkNF76VIELplJwy9EMNH/VJd/3cEFtucs9RecKuEBhQz77F8Pfv+s887/64z7gxjjOMDRzpnbZbanq5HI9g2mLj2JK2wxaiNQjcH2sFNHCFWplkXnEkBgzHWAh2hTdRtNT+hLchs/SPf+uvtPKrpLJarTj7qJCamADzhRo9iiQKcw7l+nY538fDFEoCVPsFBKf5RAa29xjF06aWoSKr2/QQcyvCj+VblPm+Nc6+AOf4Nk7uGQyPjOPOj+cqNJhY49JZkAByzSJcB2s/zEl60y3fXA5hZ7WtLUqUa3U/q33v094V4XWYd7m0fCA1xnRm3l2XLb9iNw3o1opV9prPlRwnsPK+b77odbp6oo4oHHyABBzMARDx2AA8x2OXi1WYsXhhkIAiXtRhMwLVpN0N3YIUtx6dBekItzrap50L3H1PGmSpkK63ILSCeIPbsU4aQrI46i6JHbEg1kgAwABMfFhD3DTuwJL22EGK02Iqc9SkMGxlNUtep8HZ2qaXTEJZj/iYsSsItqlv3UU/mFX4t5JOfRw2HxzuJr9DIsc7M7eMbfjg2TTzSwQNPwfOGo7P8104l7sRZh4GlHGa33O9w/8A47XaJClRe7Kpt7YjctyFTR4GBG2RS7S3DtHdLTX337DXIJYMWFgAZMgqSKiUYwYM48QwjSHYMbl9UpRudiMTHDXYqlyXV3PF2/d97hR8Onu6BKwTbUDk66NOZpLsjVfNPn7zGVS2lMsMcNUQ6iX3kGLXE1kGP67UGM84wksH7DLHqVLTduHpGbaaBhBV1u69enNOrk/jsDPO1uBRuhixlZAI9xQBVRdKlaLj02GQ3ZiGjU0YAxoE3LbDLmLHCDXvLCzo3IEIc88KrDbJ46co+EMWM54FKBzCq3jIhq/BCHXfrhdRvpz75GZ+CEqdDqROBxfpBzjD427YPYuaHcTvnb73UHLn/wAGxyIMMErrqQxEPHIILn819nBFMKzGDbGHBV9XyMx1xiYvv9sez609Z7b92wUhSordjQpgevJebwexz/E+976M71+9LGA/LA+6zwHy60l2jlol4EyAAPFHImw1NO7i1+1+w34G6n/ljwdJB4DXdzflj5BwwI4uXevUnYukRlXQhei5/C7HliQoKER0LB9kz64czcGIMDyNDJFyDLtbuY/APPHPDNgjGkMx+G9ODSMxJXNbU+lZal1tqU1j0Tx3bTX/ANcX/t8LOOlprSKHd5V2uMsxPNAtp98jnzwgWAC/GDHejjxCzwwal64HyDzDzjBJcBimZORK89pAv9RNiRt0RCWRWXa313fg9ciNSHnq3TVlvmblHolbXvAvprJk+OK+gKcDGdwT9zyXIsuu5eqKsAcdg8CHywAwBSypPfiSd3JegBvyDD9bctjJUDoG5IQ7yu6QMN/+N9Eo0ZbKPo1AB31sOHjdpfO64Hg9yJj/AOrqPsfPk/mquk6qSfwvJVqp1Z8AgAU6e/P7N8Z6bqIhkkwDYz/E2hZqVuyob4zGcHZH/v3jGL2H+TWhuSNb/nzwzyrD6nbXr/TX3ZC0AboPmzmh12ZS2DcPcgP1p9hIgEAH3KXlnGc7ozzqF7FJ345S1qSJSBZe8TglcDuE7QXCR2xH1md+hZKTEHLRHEUc7ckaQLlvq7vjTnf3G7BbTmTQyTY38IvYB9BAoQQ8brWikYjApKm9TrTv9fzlSf1GPK29SOWLO3nwfqZZ+RuJlNTF/L1mvDvW7U3D0Ttp/IwsXIPQhixSKjIOeIs4cYkSpBoFdtFBIAEo3jSDwRsXLtIwuMtG73/q/k6rKl9aLWRRvrYkTN6qZHRmOqfAWzurkr6dPOUb9ZTrZUtsj8WkUMFbLF8v7bP6X/TD0an91BBBxld9BR7e9IEUldaZOWF+I/bMznVLgz/wmdbnS3nnLdr7AHbxpTVjxFqZ07Hr3Ib9SF+ogDm2kbkjf42YKmoOuOrJeeE41x7EpBBRRBRs3zgZ+uvyAiSpbjF3H/bUvff6VK+tuUT/AAr+/wA0GvvSoykcVr0FWL27ue3fyf8AwfAxJupUnMr4g/pfnZSjDuHa3z2HVPvBF99NNBVpTDYI32kNJ4dV2YRD8q789uEAUXLIvON/E7w0zI2S5jRLzW9cPXlaRUA9NTg8rfiySpuTkR+T3mXGyHe7rmnOjLQ357atp9999BFGXXyAiq2OGlDu3Pvb73/HL37zfnTnPUzfG3b/AK5186PwJxY9an/wL3t1howI38PzhCevIP8ATLHfxeL64tbpr9dJ421lnujXX3H0HGOP/bY+OiPNHLUaYHLre9Re6SsT+txOjXsWfxCQVrtzZd7YVP0L43KuIp3YP3Eil6ynvCBvhthffubMci8rpH9kogd3L7yX3mGEEFF8/oIteQYYJ9Jr+8uovuAtMTeYsN7u+cv7czJPq/8AinAP5WXC1QP+RiGicT4RH5q7uvyzXsi3K27Ii27wdA+l2+4F80kGn5hBFBBJvPOluHhU6WTCGaHHfWblDjWZqPLavvnf+T3uH4PfOvqLHC3iTtgqj2e/MbQPEKx8BPkIV2XFVyjmc0KfKerpSKtid6CLWBBB99N5L7LdYLgbTOy7mGAya+OYr/snbiWwueXbBuw5Sdqq2iqam9WpSGgOJV/HQLoU/wBKoOC+NXZV34oj8klxLyv/AO8JJ17fAvB+0kl33Gise9rGy6ARskYud7/fcnuUkL18NMLerePZcP78P+vZsJ/PisZO6/pnpIHqHyhXCfgx8R9t3Nt/IMcuJZ+TJLD/ALJHcfLorNJFR5RdLv8A3vu1My42llt6djok6F75L47u7E0P5wMnfSbKruOkbslWlQssWmxDtfgcOAUG0FJ/IfZflewy9+//AJ0x/MOt+PNEcPIX0l12113/xAArEQACAgIBBAEEAgMBAQEAAAAAARARMUEhAiAwUWFAQnGBAxIEIlBgMjP/2gAIAQIBAT8AQ9S/A8eBeBf99a8V8dlFFFFFdlMplFeNRRRRRTKf/hP0X8Fr0WvRaLL+C16LRwWi0WvktFo4OI49nHs49lqKRUUymUymUymU45nk5LLLLLLLL+n4/wC7ZZbP7M/s/Zb9lv2Wyyyyyy/gv4L+C16LXotei16LXo49HBwcH+p/qcezg4OO7jyce0fvsqK/9e5taP5OvqXV0pVyJtJ2WWXwf2+D+xfBZfwX8Fr0hV6HV4Ra9Caei16LXo4rBwcHBwcDo4KP2fsqaiiiiv8AurDjr5/k6KNQ95stroE/7O9HS22zqb0zpumdA4WR5cLM6cvCl5cLM6X5l5hT6hZU67VLZYos9Qp0vpeI48/Tv8RSuxLJR1J1gS4KKK4wf1F01oaZUNOymdK5KnkpjwoQ8wszqXmFOlCyhxqXCw5eoUvUKdLwOF9EvF0ypW513PMdIrHxuLZbLdFstjbstiZZZfBZY3zCL7FlRwcUcQ6s47HCn1ycexeShIoqKmvGsofh6cysysOddzzCh67NS8wp1LzCzN4HkWVOpfa4UuFPqF3OF9EsrwOOnKHRwIXTbOv+Lq6K/smrOj+Pq606nRx2urOPZuVhlL2UVwUUPJQlyUUynRRUUKdKFlTqXC3LhblwpeoU6lwvoX4bqFlDy4/x+r+O30ro+122dPX/ACK+npeT/J6OtLot46fZ/A2v5elo/wAhJfzdaXuNOXhS4WVFinUOqwOFOpee2+EWLKnXbblwnFj7X26/4KHlx/H1V/b5Q8nX1/3ptcpUf4//AO3QfydX9uvqftwsOftUuFlDXMKdFw4U6nqyWKdKFlTqEPLj3LzCw5cKX26l5hfWIbixvks6Ov8Aq20sqLmzRa9FjL+BMbL+BFr0X8Flo4LOPQqs4K+DijiHVnAjg4NI4FVo4jXfQ8lRRQ0VNDTKKmuCoeShfRIficvPap1PqXmFOpcLJZ1ZNS+31Cyp1C7nntcKX26lwp1L8r8T1+IXZRTEhpiRXBTKcUymNMoSKZTNMplMcLMU+x5hT6hZU67dS89r7X26l5hdz8r8TwpZb7FOu55LEy2WallsTdlstmi3DbsUXF4LYm7Li+ITi+x1fb+uz9D/ABCjg0cHA6OBHH0Tz3uXhQhy8wszqXqXmFOnLhTqXkvs0oWZ1L8TjUvMLM6UvP1jn7V+eykcDqzgWTiEcHEcHAzgVHBwaOCkOikKuz9lL2NKykJHHs49nFI/qKrmuIS5KjU1FcFFOdFMpjTspinUvP1/2/uXiXClTrseRZnTKh6hZnUvMLc+hbFOoU67dS41LzCnS7LYiy/oEPPiWHOpcIcLc6nFDhwsOXr8Qp1LzCl4RYs9qzOu3ULKnUvMLf4nShD+lefEsMv4LNFljZZY2WWWXD6i2NstifI2y2JumWy2Nvj8FsTZbLZbotljfMLZZY3gsTn0cehZiy+MFifwP8F/BqFOo4HVnAtnAqjjv0u6mUyu9eNbnTl6l5hTqXr8Qsocac9WvxCnUvMLcvUKdKFlTqFOlCnUvMLfc/pFlD73KijRU0yuR5hFFRRQ9FfKFmKXtGnFfJ1a51CKKK4j9jXPZQ9QkUV8ocLJUU6KYrsplMrhQiimclMpjTvwP6RZQ+/rw+ZWV41OpcKVPVr8QszqEPMLcvULtWZ0oWVOu3UuLZbLZpRY2WJ+Pg47lnxrKH4l3PULI4UvX4hZU6/cvMLDl6/EKdKFmdKFmfUKdS4W50vp140PLOBd3EKvXc/wcQ8llxY3gsTLLL4LL+B5ce5b+C/gRZa9GlCyWvRfwPChZL+Cz0cehUcHBxRwcDRSil7OPc1FGiiop+oorxryPLl967nqXHuXrwPMacuFLwoWZ0oXap+39y4WH2rM6fbZZfhcLfjQ4U1LXbUvRTEnY07KZXDKZTGsFMS5KKK/1RRQ1yyiuGUUxopiRUNY/ELJRRWChFMo0oplOOahDzC7VnxLu05cafkeoWRzfa4TzLwoQ4WHL1+IWZ+39y8wsOXmFv8AEvUKXqFLwoU3xCyMtmoTLLF9BqXGn4HjsepcLtQ4WHLwoQ405evxCyp+39y8uFhz1Zhb/EuFL1Cl6hTpQsoeY05cL6DUuNPwPHZpRwOjgVHBwajg4OI4OD0cCqODimcHHodccFr0Jq8F/BfwXwuNn6P0PL4P0J8Pg/R+hvnB+hb4LXov4H+C/gR+j9DOPQqODgdcHAqODg4pHBxFI0UVFCRRX0evJ9qlwszrtU6UvMacvULI4+39y8uFuXmFhy4UuFL1CzOlC0OFhy4Xjstl9qnXk+2XopiyUUaKYhqFFGkUyhqPZRQ9FHSuSimVx+yihrllCXDKKGuShLJRQ1j8FMSz+CihopiRRQ0+ISKKNFCyhxpy4UuXGvLryL/5ZZY8IuG41LhTqW+Y0y4eoWZ0vzCyh5cacuFuXC32rcuFktlsssT5m+JcLtXlU68iw51CHmFhy4U6l5hYcvULM6/cvLjTnqzC3LhS4W5evxCzLwoU6l5hdqz5VOl5FuOC1RaLQ6tnE8ehvBwcHBwaODg4ODjmOPQ9QpviFlDy41LzCw5fa4RwWvQ69HAqOBVH7FmdFQ/onCnS8Dw+zpy/xOpeYXg1Lj3L1CzOv3CyPLjU9WXCw5cKXqFuXC7VmdS/onCl4XgfZ05nRT9FMaKYkUymUymIqNFMpjTKZWSmUxp8FMWSiiuChLlDXLKK4KKHllCwymUxrkqKZTHkpiWSn6hrELtWZ1L8+oXc9eTpyotmblwvBqXCl6hZn7YWR5cacvLhYcvPa8wt9liLZcWKdS4Xfwcduu1FMoeh+NZQ8uFvtWZ1CnUvteoWZ1CyPMfb+5eXGnLz2vMLfat9qnX0rzNw9fgfjWR5fa4WfBcvt9QszosWTZZqXlxpy8wty3C34l9a9fgfk6suFL1CzOvK9Qszr9wsjzGpeXGnLzGnLhblwu1fWvQ/I8wp1CzOu1S4UvChKa4mij7f3Ly4WJeXGnLzCw5feu1eF+TTl6/HgZ//xAAsEQACAgIBAwMEAgIDAQAAAAAAARARMUEhAiAwA1FhBBJxgUBCIlAFEzJg/9oACAEDAQE/ABbleBeBi73/ALV68XuLw1TfbZZZZc2Wi0WvNZZZZZf+ufjXmp+5TKZT9ymUymUymU/gp/BTnmP0U/bustFotFotFo4ng4ODg4KKKKKK/nX5GLvX+jpFIpH2opFIpFIoqKK+Sj9lP3KfuV8lfJXyU/cpnJycnPscnJycxyc9v6jn2P1/J1/9J01avENlN5Z/x/0/0/V6H1Pqer0vq+xWuT1fs9b1ehel6f2XxVnV0PpbTyiiuSiiuclH2sSfuU/c59yvkr5Ha2c+5yc3k59z/I5+Dk5LfZbL8Fl999t/7B5UfRP0+n/j/q31p030rg9Po/7Ot06pNjbbtn03Sk+j0+n0+h+k+nnrdW2en6fR6n1a6MJ9TPV9Lp9D0n09Vff1vGaR63pdHpen6Lp/d1dNs9D0vS6fT6Or1PSXWupW+rCSPqun0PT9f036a/wpOj62319PXd9HUv8AD4Qn0fZh/dcMWFDl5UrLlYhzuVjuqF2qHK8W/HUUUUUVPJz/AAXC9TqXS+ldTp5Q+pqqYmfR10/UdL67S6OWdfVfqPq+bL+Tr9Tq62n1O6VH3uqt17H/AHdd9FtP7VSPV+o9T1q+9rjCSo9Pq6Ff3dNouE1SLQ2i5tQsuViOqdysQ5UPDnalQ8rtcrcOdvt2pUPxqH2vxPt6/qfW6+j7Orq4HlTvuWChnBRSEkUjZSKQkUhrgoorkqFhQ+/n3NnJyI5jmFD8G327lFllllllzcNiZaL7XjxPEvEvU7lT04UPHduU+IeJ3KxDcpjyMUblQ+1yu3bhztdr/hMXesx1YYrOYsXUngfVTRZybOYUrBbHgUMss3FixDfEWi1cXLlZh4ncqHK732udrtf8FDFjvUPDFhR6n3JXeyul8s9Nrmvc9RX0M9P/AMKNysuViHhihzuVDxNSsQ53DncpFdi7K7lDnfa+5fxns6cKOtXQhdNHq39jOlV0pRtSsuenEPDFhQ4Ys/qVDqp3KxDlQ53KwoeZUPt9pW4c7UrEPHcvIxeFnSuMw0JfJ+zq6bWYr5Gscn7Ofcrkr5KEiihIoZTOTZThKGcnJzcciujkZz2O6OTk3KjZZYsFlxcWXgssTyWNxZfKLLEWMv8AgsXiUrEMUPKFG5W5WIc77XO5Xe9zuVjtUblRtSofcoZUb87F4k8/mGKbRaLU7LRZZaLQmqLHFifJaLE4c7lQ5W4eHO4Yo3KxDzK7V27lQ/4TFjvSt1Ky+5YKHO4pRShYhxSNlKFDwUjiKhQ+yhrhiSKK5KKEioooRRvt2o5F2cmzk5jkZycxz51jxL/05UrEdUvKlZcrEOdoShQ8TTuViHO3Dw+1ix2qHmViNysQ53KhzvtfiYseK663+Itmzn2LfsK6wfoeDk5ObRycnNnJyKzkdis5Hdo5hNnI7OTk3HIsFjLLludyu2yyyy0Jqi0WrLRaE4ZcblQ532vxMWPF/f8AUrLlQ8Ch5U77EOeLlbhzuUocoQ5UOdyo3KjcrEOd9rOCoqFgoorsfaxY8W1O5UqHlTuVhwxR/ZSt/mHidynxD1KhytwxRuVG4c7lQ53DlztyvKsLxPKK+Svkrkor5KPtRQkUUUiirYkikJUUhlIpFK0UikdKz+SkNIpFIpWUihYKmhFDRRQlkp+40VGyvkcV8nNnJoVnJzZyOxXRycnJzHM38Dv2L+CzbLLEyxstFostTaNwxYXiep2pWXDOnEOdyt/mGXG1PT/b8w53Kx2qHKy4c7h4nb7dysKH4HO/O8MXepZc2WbLRYuEWNl/BZfJZYtljizZZYnnhw2WWXyWWIubEXFli3DfEXFmi0WbcNlotFyofcofjXbuHgXf0Zl48ijcrwdP9vzDnfgUPteJ94c7hzuKQlDKKRXLKGhKH4+TnufgTp3Lwxdu+1ihytw+7p3+Yc7lYhyoc7cdWBRtw53DxKy5UPKlbh+Fdq7342LCjk5jZyc+4l8lP3NRU0/cSzKUViUsw1FFcxQsQ9SlDlZYh9rKjb5Ofcd0cxs5ORHJzwWzn2FDZZZeC0WWi0Nlll9r7X5OnChi8C7V27XjWIepWIcqHgUe/e5Wf1DFDlQ52uyhqKK8FFIax+fIqosYosssuUyy1wWi0JrktDaplqkWi8FlieSxvgssvkssThvBZYmWNytw8RZfLhlxfLLGyyxZlQ8ihbh4c7Xco3Ou95XkSzDFiK7lD1Ky4eGLCjalbh4n+0rEPUqHqVDn3hysuHO44EVFFC2V8jxHJuVPJzLnfbteBdi3KhzuVhQ8qVlw8Cwo9pW/zDxO/wBSsKHqVD1Khz7w5WXDnbh4YsRuencOd+Jzvt2vAnTXZtnMKzkdnJyblWcnscnJtnIxXSOR3wcnPuL8lP3GnWSvk/ZXL5P2fsWFyfsa5XJ+yvkS4yU/ca5XJ+z9i/J+xr5P3NfI18nJyK7ZyOzk5FcO6cX8FlliLGyy+568Tna8n9nKhzuVDnbhiwo2uxDnblYUbU9OIeVKhz7w5W46sSsuHhixDypUPE7ml20UiiipeIo35NymWMtFovktFoThzfLLQ2hPhQ9StljfBZZasssT4RZtFlnS+CxvBaLE8/ksbx+S0WJljZZYmoZcLMPDFG1K3DnfbvxOd+R/+kVCy5UbUrENSsysFD1K3DxO/wBSsKNyoepUe0rcPUqHFISVsoaVMSKNyofa8HJzHJyK4fbc78jypWX2vKlQ5/tKxD1K3DxO/wBSsKNysQ8qVDlQ9SoeJWXDw5eVPTiH2vHgepUOVl+Tq1HJycnIro5GnaKfuc+4kzkd0c+5ybKKZycj1K3DxP8Ab9Rpiwo2iijpXEPKlYj25lQ74OTn3Enycjujk5Fd4h4izcrBY3Kh9yjcqHKy/B0uupdnVhfmdz04UOVuHidysQ9Stw8Ttw8Cwo3KwoeVKxDypUPUrf5jq1+Z24eHO5WIa8NLs2VCRXYsvydWItFqy17loUMtFotWy0N8Fos2Wi0Jqi0N4LRaFstDwWWXyWN8MT4XDLL5LLFhFjfKLRaE+C0Nq0WixMsbwWoWy0OLNw8OdysQ/Bt9u5WIepWX5OrDiiuVKKGKN1FCjc9OIepW4crLhvIsKP7T04UOViHlSo9pW4aKRSKKHgqNyoefArtw53FidFj0WWjpy/I8MWF2rLjqxP8AaHhixG1PTiHKy4crL/EMWI3PThQ8ysQ8qVD1Kh9rwKNyocrvYuxi7enPV+fI8CwocqHFRRQl2qHO3DwKK5/RU0bK+YWFGyihYh5Uq4eo5FDlXDnflU34unPV+fL04UOVlw534FDlZcdWJ3DwKP7QxYUbnpwoeVKh5UrEPUqH/AXbXPa8qVvyrEOdwxYh5L7G8RYnmG5W4eC42WN8Mss/tFixG5WFDypWIeVKxD1Kh/wFD8G1K3+fAj//xAA7EAABAgQDBgUDBAICAQUBAQABAAIDERIgITFRECIyQWFxBBNCUoFAQ3IjMDOCFGIFYKEkUJGxwVNw/9oACAEBAAE/Atn3LvX9B6Sm5D98r0/QHMf9qnif2im/sHMJ3p7/AEfrF3qH0HIpuX75Xo+gOY/7VzP7RxP7JzCdy7/Rv1uIQP7xUsEMP3ypbqbl++eJv/ahmf2SU0fsnMJ3Lv8ARlDC4hby3lN2im7RTdopnRTOimdFM6KZ0UzopnRTKlsIWIVSrCrCrCrCrCrCrCqCqCqCmqgs9mSDh+8MTPYZ8ipOW/0W+t7Rb2im7RTd7VM6Ko6FVdCquhVXdVhVhVt1XmN1VbdVUNVMKoKYU/8AqQ/ZGP7RzCdy7/SSUiMlN2imdFM6Ko6Ko6Ko6Kroquiq6Kroquiq6KpVqtVKtVhVhVhVhVhVhVtVQVQVTVU1Tat1bq3VurBYKamqsZKQVIUlT1VPVU9VLqpHVb2q3tVvare1W8qdfpJKQUhoqRoqW6KhuioboqGqgKhqoCpHVU9SqepVHUqnqVT1Kp6qnqqT7lSfcpHVSOqk7VSdqpHVSdqt5by3lvLe6Lf6Le0W9ot7Rb2im72qZ0UzoqjoVV0Kq6FVKpVBVBVBVBVBVDVVBVDVVBTU1UNVMKYUwphTCmFMKamphTCmFMKYUwphTU1NT/b5/sO0Q/aOady7/QFwAmfppbIjwwTTIsVx4UFJSCY9j5qkKkKkaKkKluipaqQqAqGqkKgKgKlEnkJqGQ8YKjqqD7lSdVS7VUnVUu1UnKT1J631vrf0U3+1Td7VUdFUfaqj7Sq+hVfReYOq8wKsLzG6rzG6qtuqrGqqbqqhqpqamp/+6yUgpBSCkFIKQUgpKSkpDRSCkFIKQUhopBSCkFIKQUgpBSCkpBUhSUlSFSgNp/YA/b5p3L6D/lI8iGT7/URJxYtOiY0NCiPobNM8VjiE47q8MMSVMbXvDQh4ph6Jrg4TBRMkyMxxkDsbE/ULNjzIEomK/EFQp0YqGf8A1DpZXlzW5lMiMfwn9+SkNFIKluipboqG6KhuilDCDGHJeW1eW1UBUdSqOpVH+xVH+xVJ9ypPuVLvcosUQ83pu80EOUn6qT9VJ+qk/VSfqt/ot/ot/ot/ot9b+i39FvaLf0U36KbtFN2im72qo+1VH2lVH2lVdCq+hVfQqvoVWF5jV5jV5jdVW3VVt1VTdVU3VVDVVDVVDVTU9s9k9s9k/r8VisVisVisVisVisVipqamprHZn9B/yLqvFxfpyoMml0857PFcCZvOaOQUXgKgtkwJ+McIx5RA3ZF/UjBijwTNlIUBlJKjj9MyTC4PBCnhMphn4gnZEFTCF4ciVJzUaLLdbmvDw6RO45FOhxnHeUFsog7/ALRMl/ks6prw7I/tGGWzL3KBV5n7UWPLdZmojTNs8yoDaYbR9dJSCkNFS3RUt0VLdFS3RUN0VDdFQ1UNVIVAVAVIVAVDVQFQFQFQFSFSFQFQFSFQFQFQFSqVQFQFSqVT1VPVUqnqqeqp6qk6qk6qR1UjqpO1UjqpFSct5by3lvLeW8t5b2ix0WOix0UzopnRTOin0U+in0UifofHQaIrzqZ/US2EAoMa3IKSAko0BznTaVD8NIzcdnkt8yux0MFETEk2G1uQ2vgtcm+HaDP9h5k0novDCbp/tubCYCSoBd5mGRP7UeEXgS5Lw8pdf2Y9flmlMm08Kc8vjTIlyQyH/cf+TG6DL/3N4qYR0Xh2ObOY/bjVGMQ7LkmCGwZhBwOR/ahn9cka/tUt0X+OPMq/8f8Aco8IRYZYbS9b5RrkUPFPKZF8Q5wwQq1UnqT9VJ630akKyM1vrfW+t9EvQrW8t9b6m7RAuW8pu0U3aKbtEXO0Qc7RTdoqjoqjoqzovMOiq6Kvoq+irVa8wKsLzAqwqwqxqqgqgpqampqamp2ua12a/wAdmqawN/Ze1xyKhQqP/wDAXZyQbLYcl4Jm/PopBOeWgkCeKYZgGwpnCLXWVDXYMza7JNytPELmZbJBSCkEQJhSCpCpCpCpCa0SVIVAVKkiN4KlU9VI6qR1RmBmgDLNSdqt5by3k0uM+63lvLFYqozlJYqZ0U+in0Rcp9FV0VSmqlUqlUqgqgqlUqgpqpVDVTCqCmFNTU1NT2TU/wDsDeJ21xkCV4N4bNAzQ9SaJbIrnufS090REhmc0MWKulqJ3ZqBUZkp0Rrc1i5RtwTmhGi4buChRa3EKJg0qCwEVc9jnUlDEWOyTchaeIXMytdmLmcNp422v4Shlaz1d7Txjta7l3tdwlC1uWySkpBNA3u6kFIKQUgpCs9lJUhUhSRbvBUqlUqlEYtVKl1Uuql1RnhipHVSOqY+ucjkVIp0xLupFby3lvJ0wFit5YrFGaE1isVisVisVit5by3preW8t5by3lit5YrFYqbljosViplTOimVMqZ0U1NTVXRVKpVqpVKpVBVBVKpVBVKoKamp/TN4nbYn8b/xK8GwUk7Mf8kobBOE502zUVz3yNMghwhPBwPVTdFMpYINAEk/fihuzxGERs8lPzMG5JjaIsumz+J/Q7JTcmiQlYck3K13E1PjsYv8t5yah4iL7E3xUM4HBTB5pnPva/Nt0PhtPG21/CUMrWer8rTxjta7l3tfwlC1nCLW+rvb9w9rTxt+bXZt2PitZmmOqbPZDLvNMzhPY4yaSvCjiOx2be+3zWV0Tx2Py+bShaOdvqtNpQ/a5287JIjZJSUgiApKSksQgfpBxnbmmMDBIbKR5k7PEHcTeEdk3aIYDi7Y8AjFAADBFm+HJwJyK8kzmXT2epGIQ6UsNbCm5WEyUePUZNUOA6JimQWN5KS/xWI+Glwukm+ezqh4keoEIOa7I7X5t73Q8vm138jPm1/CU3IWs9f5W+sWv9Pe2JwlC1nCLWervaP5HdhaeNva08TUclCh+aS4prQ3JVtro5ympAPb87PEHdA1TAGQ06PEdwYJr4gp83XDZEMmOKgwmyDuex/Lvaciha231WuQsKFot5287Ta63I/SZPVSq6KpVKpT3lNF8hkmxJhOd5kQCWSqTTJVdFV0VfRVdE5yqVfRVqtVqreVQVYVYVQRcmuwVYVbdVWF4mLhSoMOeKqaFW3VVDVVDVTCa4YotYc0fDt9Jkv1mc5oeJ9zUYzHSxQNsPL5tdxttdwlNyFrM3/lb6x2sMRgzcE6LDNO9zQINj+E2nJM4Raz1d7RxutPGO1ruNvyjHcHSLV4Z2+8AYZ7CCfEA6I8bex2ObVF6BeJ/i+U2KwDdGKc1z4jJ7Iv8b+ygfxjY/l3tdwlDK1tp4rX8u6FhyTcrW5n9o52m1+SFj8vpPXd6tpgY7rpJjAzY3na7JC31XMy2SUgo2MUoNpY0KSkE7xHh2GRKk1UjRNAxVIVDdFQ1eUzRPgs5BHw3tMlKK3qmxGc5hCk5OVHVNaqeqpPuVJ9ykdUQam4qTtVJ2qk/VSfqnVSKFUlv9FvrfW8mz3u63tFN3tUzopnRGdQUzoqj7SnuJ6IiH1KLZykChDjt4ZpvinDB7U2Kw5KpPO6g4KsKtuqrbqqhqmkABVDVVDVVDVTTTKfdTGqmFNTQ4ip2esdrT/I3sU9wAUBsgTrtP8AI3sbBDYOSLR5rD0Ox1UR0vSEBIbH+nva7hKFrbfVa7l3tOSFo/arFUrTa/JCx+X0h4xceIXNzNrskMrfVczKyL/Ke6dkEcAjEixsG4BP8PREYOZQyGxuZtfy77XQ2Hkj4bm10lXHh5iYUKK13/za7iba/hPZNyFrM397XxGNeMeS/wAkelqqjOywQgE8RQgtCdIS7p8aEwTc8IxvDxiAMZ80+E+DvNUGMIg6p2VpTcgpBSGikNFIJkjPuqW6KhuipboqW6IATKpCoaqQqQpb3wpKlUqlEbw7LywqepUuqkdVLfz5KXVUn3KR9ykdUQah2UjqpO1Unare1RBwWK3lvLeRnJCaxW8t5YoTW8t5by3ljNYreW8oRe6O7FGax5LeW8sVisVvLe0W9osVisVM6KZ0U1VipqfRTTycgmskZqaqU1NEqaqCqCqCccFNTU1NOQ+jdxNuPELm5m12SblaeIXMys8UzmmPrhN28Xj+xG0Zm1+V3kMfVyxUo8L/AGCZ4hjs8DtdxNtdwlNyFrc399jo0NubkfEH0tVEZ+bkIAqxTYbRysjGM9/ltEhPNDwEENNUyV4ITijpjs/g8R0KfwWnJNyFrMvm0cTrfuH8bfuf12OcGtJKMaI8bsNeDcaojV9z+tp4x2tdm212Vzbee2LHY1p3hNeEZJk9U8TElAaWVDqnxGsGK86K7eDcF/kRHcITHFzJnZFjUZKG6poOx0VgTHB2x0Z3pCbiE7hKhAj9rDZJSXmMnJYKSkpKSds8xk5T/e8bF8uA42P9Pe52bbhxG05IZWniFzbHtDhJYwXy5IY7PDb3jIh6naOJ1r8rmev8tj4LH8lKNB6hM8Qx2eCdxM72u4Sm5Cxz2tzK/wAjipHNfrxE3wuOJTYbRy2esdrXZt7rxD6YLz0X/HMwe47PGjBh6r7AtORTOEWsy+bW8T+9v3D2t+5/XZHaXQyAvPayHJoM14SEWtLjmV6z2t9fxa7iba/hublb6jsM4pOMmBFjXvk3KaAkFFc7zQ0FNT4TnxsclHB8qTUGUQk0SYnzpwXluemikST3OiPk1CE1oxUHmnCYKhYEg7eafEJwChFwfJHBGPonPiAzTchtiMc4psNwcENj3SavJqE5psGKHdELHKI+lq/x3EVTXhfMmasv3f8Al34sZ82RLncrvVack3K0nEWlN52+IYHMUCIWmh2yHBhw50jPaOI2vyuZm7vY+DDdyTmxYJEsQocdj+hsORTOEdtjo7G9UY0R3CE3w7nYvKhQ2irobfWO1rvT3Xi2ueIbQM3YprQ0SGzxBriMYnCTJWnIpnCLWZWtzd3t+47sLfuHttobps9buwt9fxa7jba/K5uVvqOz/F/2MtE1jWiQGx0MF4KFhyUphNhy5qWChwqU9pKYJJxkFCmXFxT504Jk5Yp2RQcG8sVBDiaiowNGChQpDqqHOdihtcI01TE5oZbIrC+SLHsxmmOJZsOSh+JInUgYkQjkE7JRoT3nBQ3Pa8NP73i4Zd4l9kThQaqVSqeqkiFSnUDMoxWzwmg1PGGCEUteA/mpKhUqSIQaqVSqVSiMlJUqnqpKlNbmqeqo6lUdVT1ThgokAOHVMiOhml5Q/JSOqpOqkas1J3uUnaqTtVJ2qfVJAO1W+t/ot/ot/omzm7ut5b+i3tFjonTm3uokGv04qqPB4hMJkcPyCqPtTnGWS/yWtaBmi+NFTII5goSHpVXdNOLsOaq6FVjqqwqwqhX8KsKtuqrbqqhqiRh3VQ1VQ1UXxAbgM1AZjW7NPOCmphT2OOBTeEWs4bW8+9vrd8W+s9haON3xb6/i08bfm12VzcreZtOYtOSFou8ptnP9gmSc4xDSEGybsdGng0IQy1+IQyT8k6I1oUMVuqP73jWOprbysicJTchY+PybiUXRqxUU9hcJTkh4VgzxVI84NG3xTKh2Xhn1QhYU3K12YubmbX8KCiQ2vGKlFgHVqhxWPy2es2v4dkaOIffRVRy2cpKJ5oDYgceoTTNoKZxP72vzZ32xPDjiaaSh4p7RJzZ9UXRYyg+HAAJQErG5v77I0UQ+pOQToviIcnOlLRM8RCiGQXr+LXenvsjRWt3RxKBA9Ts1IJ4ElIKhuipboqQnNEihkqQqQqQpJrRJUqjqVT1VPUoDPupdVT/sVT1UuqA3nKXVUu9ykdVI6qRrOKx1RmMS5HxW9If/ACt7VCdTlvare1W8t5SdUVvLeW/0W8sagsVisVinzksVvaLe0W9osU2a3tFM6KbtFjosZlY6KZ0UzopnREmYwU1M6KZ0U+iOyan0U1Pogdk1NTU8VNVBVBTC5qamFNTRU1NOAcJJrGtyRyXJNa1uSkNkURT2TPDunvFAS/eIsfwlM4RYGNGQUTGLJDJPeG5oRnea6ls1D871S2R8vheC/isKZla/lcMza/JDLZJP8MM24FebGh4PbPqmRWPfgeVsTgKCgDzPERXH0mQ2R4mFAzKY2ljR0TeN9r82d1MDNO8TyaEIcR+ZQ8OzmnwXw5uhn4UHxDTJpwNrM399kD9TxEV59OARDeYTf1I02jdavufFr8291Fj+luagwJbzs9sThtfwlC1nCLWc+9reN9o43/Gx8JsSU+SY0HxUhkNjeJ9o43W+sdrX5fNzcrRmbTmLTkhaP3JKWwqSkpKSIwUlIKSkiEPo3ZJnCLQJve5NyCkm7kU4YctvijJq8M2mELWWvuHEbX8JQyFhAKf4dpdhgpx4ee8EyOx3Q6bX8JQyToEZkRz4JGOYKp8U/iIaocFsPvrsbxRLC9rcyoniZkUhNhxImJTYTRtORRgsewTHJfrQP9mqHFY8YHazN/fY6DGZFL4MscwqPFReMho6JrGsbIL7v9bC4NzKixnRCAxQYAaMc7InDa7hKGVrOEWs597W8T+9reJ/fbBgeWXGc57G8T+9o432/c/ra/l3uZkLRmbTxC12SFot52nO02nJCx2SH0ZTOG05pmQt8TiWN6pokALWc7X3DiNr8k3IW+vY+Ax3JUxoWWITPEsOBwKdwlNyFo4nJ0QNRj+0L9dyHhnHMryWtp7oWHIpnC3tsieGBxbgUI74Zpij5TXBwmCmZv8Ayt+5/VTkpqJ4gDBuJTYL4m88qgMoA1tiZfNrsihazhFsPn3tbxP72s4n97W5v72jidb93+truXe0puQtGZtPELTkhaLedpztchYckLH5IfSNJxwUzopnRTd7VN2iM5ZJlUslN2im7RTdot7RFrjGnot5b2i39Fv6Le0TZ4re0U36Kb9FvaJ01it/RTfopu0WKxqW8pu0U3aKbtEZ6ITlkpu9qm72qbvapnRY15KbtFU72qo+1PY13oR82EDzaoccOHVVn2lV9CjGAR8SOQKqiOLk2FrNAMbyKqCrCe7Luqx1VbVW1eY3VF4kUx4pGKrbqq26o0OGMkWGEaobvhQY7XF08DNVDVVDVTGqmnGTp9FEjtlqv1ImHJQ4LW99juJne2IcPm1/CUMrW5C1mXza3N3e1mbu9refe0Zut+58Wv5d7TkhlaMzb6hackLR+0c7ShY7IoWOyQ+kZz73NtdcM7X5IW+u05JuQt9QtdwlPgw5TnJedFh/7JsR8Q5oQNU2Cwck0Sc74tfy77HuYwTcZJnimPiUgHvsORTOEdlJSCkFIaIwGPLu6Dnw8HiY1TaCJiSpbonRYTeqk+K/KQTPDNCoboqQqQi0TaqQqAqAqQnjD5VKo6lUdSqOpT24ZoN6qnqqeqpOql1QBlmqXe5Uu9yk73KTtU0GWak7VSfqpP1W9qmg73dScpP6Lf6Le6JtWPdb/Rb/AEW/0W/0TZ491v8ARb+gW/oFvaITm5b2im7RTOim72rGvLkpu9qmfapn2qZ9qdPDDmpnRVdCquhVXRF2GRTSZZKroVX0Kq6FVIFVDqqwqlUEXYqsKrqqwqgiVMKoKsaqoKYUwphTCmpqeKnsnsNrkLChY7JD6RvE65trrhmbX5IW+v4tOSZwi08YsLg3NRIxODVDhPcBNCE1RPDA4twKbHczCIPlBwOSH8jvi1/LujORlmh4QuM4z6ioLf8A1b5cthyKZwjtazN/dOplinOpd+kVXEeZPMkyA0LJ/wAWu4md7YmQ72xOAoWHJN4RazK1nq72s591FithynPFf5IGLmOA12s597W5u72+o9rXenvacihla3nb6rXZXDZIKQUgpY7JKkKkKlSVKpUkQpKSkpIhAKXVSUk7JD6QcZubztdcOI2uyQyt9VpTOEWniGwuAzTo7iZMTYLnYuKoaAmcI2lgdmnQnwjOHlooUdpeZ4G1/LvtgyHiInWex2RTOEdrHRGtzK8903UDMoeHe/F5TYLGp8Jj8wv1YPVqhxWPfhpa7iZa/l3ticBtdkU3IWw+G1nPvbDyPcpxAEzyQDvEOm7h2w8vm1vq72+s9ha7Nve05IZWt52+q12Vwt5/tG05IWOyQ+k9dzedr8kLfVa7JNyFvqtKZlaeIJ8YNw5ry3xDvJkJreWx2RTeEWvgtfEPZVRYGeLUyKx+R2v5d9vlsrrljsORTOFvZFwGad4po4cVVHf0TPD+4qEwCrva+APM3cDJCM9n8jflNcHCY2nibbE9Pe2Jwm13CU3IWw+EWw+fc2w+FeIBMFwCgxYTYQxxTH1+nDYzK1vPvaON1rs297TkULW2+q12Vwt5287TackLHZFN+kODwpqamFMKaB3iqhqqgqhqqhqnESQeJKtuqrbqq26qsaqoTVYVYVbdVW3VFwkmuElW3VVt1VY1VQRO8FUFW3VVtVbVUEx4liqwq26qtqMRozKfGL3SaoUMZuVTBzVY1VbdUXCSa8SCqGqrbqq26qtuqqFZx5KbSnwGZtMihHfDweJ9U2IxwwKe7LupjVTGqmNVMJ8RjRiV/kOODAhCe/iKbBhtWGxmb+9v3P6ogHNOgluMMpvieUQSKnNO4mWv5d7YnCbXcJTchbD4RazL5th8Ozy2TnSNrOG1v/7aON1rs22u4Shla23nacrhbzt52m05IWHIofv+Ji+VBc+13EFSFSNFSNFSNFILCpSCkFIKQRCAwUlIKQ0Ul6lJSUthTctktkkcxZJSTP8A92STnNaMVvRT0QhNYW7JKSkEckzhCkFu9EDDORCkNEAKz2UgqRoixp5J3hubMEYnJ7ZGeaFJVLdE58JqLnu4WoeFni5Q4bKRgqG6KhuioaqGprRN3dUBUhMewvczIhUhUis9lQpJ0Fjs06HEg4tJLdEyI2I5uPwqepVPUqnqVLqnDFuPNUn3Kk+5SOqpOqeDTmpO1Une5Sdqt/VOqpMyhVILf6Lf6Lf6LeTapCS3+i3+i3+i3+ibUt/QL9TQLf0C3tEyqWCLi1pJC/yjKZhGSDiRMBTd7UyqWSm7RTd7VN3tUz7U0nRVO9qqPtKqPtKn0QO8cFV0Kq6FVdCqgicWqruqgqgqgi4SKDgqwqm6qoaqoaoOCqGqqGqmNVMIneU1NT2OyuFvO3nabTkhYcim5fv/APLOdTDYOdruJt3qtKblb6haUzK05i5nPvse8NCDXRXTKa0NTuJtpyTOEKPG8pupOQTPDudvRXTOid4eGxs2YJhmxp6L7h7Wxg0jFT8t36bkYsR5kcEzwzcyZoNARyKZwN7Wszf+WycSNFdJ0mtKHmDxMnGcjgdn3T+NsaAJgswKh+IdVREwO3monp72vyticDk3IWckzhFrOG2HwhFFx8QaRwhNFLQNjOEWsytHE605ttdkUNktrVIKQUhoqRoiBUpBUjRUjRUhEYIBSCpCpCkqVSFSqVJSxUlLqqeql1UuqkdVI6qR1UjqisVisVisUJrFYrFGck3L9/x/C09bX8u93qtKZlaeIXMytdmLmc+6e8NE01rojplNEtjs22nJQ+ELPx29yGGyK8EhgzKAkF9w9tpe1uZTvE+0ItivzKZAY1PhMdyX6kHq1MiteMEciofA3tazN/5IJkUeHfFbEBxMwVCPnRvMlgMkUOM9rXcTVEhMijFQ4j4LqH5Kc9j/AE97YnDa/hKblYckzhFsPgFsPgGyOyiURuGOKaZgHYzhFsPhtbm613E213CULW2+q12Vwt5287TackLW5fv+OY4wDLlja/ld6haU205i0ptruV06au63or01shtdm20pnCFH8P5kiDJw5ryvGHOKJKFBbD6nXZ9w9k+Oxq82K/hCHhnO4imwmN5J+Q77ZKLAcDXDzUPxAduuwcmcItZ6/wAthAOY2/cPa08bdkSG2IJFNc+A6l+WqGKf6O9sTK153SmZWHIpnCLYfCLDkofA3tseyM/Alsk0SEkclD4RbD4bWcT+9p4m2v4Sha231WuyQtFvO3na60oWty/fcJiVsThuOYtKbtnsdyuZztcp7ZqafEqeW9VDaGhTU1NOOWyamp7IZ3Rtmn+JY3LFVRIz0zw3uKEhtiZDvbFgMeMk18aEBhNqZGY/I2Mzf+VvrPYWnjb87XtY/dK3/DnVq8xr6SNbX5fNsThKFhyKZwi1nCLDkUzhFhyTOEWw+G0cTu9p4m2u4Sha231WvyQtbbzt52m05IWty+kfwlAGQxUjqpHVSOqkdU4YjFU9VT1VPVU9UW9U1qo6qjqVR1VATmhUBUBUBUBUBNbmqAqAqAqAnMCoavLaqGry2qNJrZDNeHhDMqhqoaqG6KgJzRgqAqGry2qgKhqhtFKoaokWEzLEoNiRimeFYM8VQ2uUuSoaqGqgKgJ7BL5VAVDVQFQEWiSaxpaOyf4QZsMig9zMIk+6bS7EOVPUpjeLuqepVPUqnqVT1VO+ceSpOqpPuVJ9ykdUQahipHVR4zmEMYZvK8O148U4E4yxRbMSJUSE+A4OBwmmOLxMOUnaqTtVJ2qfOXyt5b/Rb/Rb/RGqS3+i3+i3lv6I1SOCbVIYKb/apu0U3e1Eulkm1UjBTd7VN2im72ol1JwTS6Q3VN3tRiyMjmqj7VM+1NJkMFUfaVUfaVPoVV0KYcMlV0Kq6FVqoJrsXd1UFWFWNVUNUSKgqhqqm6qY1UwnESUwpqe1tvqtdkha23nac7TackLCm5fSP4Sm8ItdyubmbX3DM2uysJkEAYkSa82l5YG4p0KO7Fz14KdLp7X8rXODRiV/lAYNE1/6iL2TPCNHFigANn3f67cs9j8h3tORTOFvbYWtdmneG5sMkIz2YRB8qE4GqR9Vo/kd2Fp429k+qk05qDBoxPEea8PveMjnY8TLQnNd4d8xwlNcCJ7X5DvbE4Ta7hKbkLDkUzhFjsim5BRIwbgM1IxIgQEhJOyKbkLWcItGZ72njHbZIKQUgnASUgqQqQqQqQg0KkKkKkKkKWKpVPUqnqqeqcFT1UuqkdVI6qR1QHVSOqk7VSdqt7VYzWK3lvLeWM1isVisUZrFYqZ0WKJQKmdFPopopuX0jskzhFr7hxG1yFozNr8kNsd8sFCbJqA33LxLqYRXh2ygt2v5d9rntaMSneKc7BgQ8PFiYvKg+HhgTt+7/XaRNNDhOZ7KJkO9pyKZwt7WOaHZryXtJMM80zxAyfumwfyO7C37g7bDkv8Ajsoruux2be6iMD2kLw7i15Ydr8h3tfw2v4Hdk3IWOyKbkLH8JQG78I+GiA7rl4ZpMTPY7hPZN4RbD4Ra3N3e31jta/K5uVvqtdcLedvO02nJCw5JuX0hUPhtfkhb6rXIZWjiNr8kNhTR5kXYOIrxdZbKWCh/xs7bYnLui9jRiU/xc8GBNgRYmL1DgsZy2Q8rfuf1tiZDva7IpnC3taz1fknwmvzC8uLB4Dhom+Jbk7dOwcbvi37nxsdwnsv+PwhPHOrY/iZsibvikNj+Xe1+Vr+AoZWOyKbkLH8DuyGWyDDeyKZjDXY/gd2QyFhUPgbazn3t+58Wvy+bm5W+q11wt5287ShYcrTkm5fSw8rX5IW+q12SblaOI2uyQ2PO6V4Xmdg4zY57G5lRvFzwYFD8PEiYvKhwWMsh5W/c+LX5Dva7hKZwN7Ww/V+W2JBY9FkWFwnBM8QKjWJIOByNn3R+O1kNjKpczM7HcTNkf+f4Cblsf6e9r8rYnAULHcJTchZE4HIZWP4ShkLDkmcItbz72+v4tfy7oWtyt9VruVwt52nO0oWHJCw5FNy+lE5lTdopv9qm7Rb+iNUk2qS/U6Lf6Lf6LeUnTUn6qT9VJ+qk7VEOlmmh0s1J3uVLvcqXe5SOqpM1SfcqT7lI+5UnVEGWaJDWzLpJsap0hOSLJjiTB5cQgqn/AGKp3s1R1Ke5jM3p/iHEyZNM8LFiGbiv8djAqOpVH+xVH+xVH+xVPUpreqo/2Ko/2Ko/2Ko/2Kp38+So/wBiqD7iqD7iqT7intyx5qj/AGKoPuKoPuKpPuKLcOJNbgMSqT7iqT7lSfcpH3Jg4seapd7lS73KTvcpO9yMEOc5O8M9uLHIR4rTJ/8A8ppLsngrf1W9X8Lf1Un6hSfqt/onTqat/VEudGJ6oVy5Lf6J9WHdb/Rb/RfqaBb+iiVSx1W9opv0U3+1Tf7U8upOCm/2qbvapu9qqd7U5xpO6gTLJVO9qqd7FU72pxNJwQLvaqne1TPtVR9pTjunBBxlwlV/6lVdCquhVSa7AKoKtqrCrCa4Y91W3VVt1VTdVMaqe/8ACmFMbXXNyt9VrrShaMzac7Ta7JCx2RQy+lbxOtcmZW+q0puVvPb4p2/gclCjvDs1F8UJSbmmNfFOqhwAzY5gcvLis4CvNjA8KLvEvTPBuPGUyExmQ2PyuZlb9z+tr+Xe12RTOBva2Hk78jaP5HdhsLGnMJ3hy01Qym+IcMIjflB7XRMD6bXcbPlR40hS3NeGhnntf6e9sTL5FsTgNr+ByFkTgNsTgchYck3IWs591JSCkFIaKW8qW6KhuipCoCc0CXdUBUBUKlU9U0YKXVS6qk+5SOqkZ5qR1Une5Sfqt5GeCxW8t/ot9GaFS3tFN2im7RTOix0UzopnRTOiq6KeOSq6KroquhVSJU1UqgqgicECqgqgqgnHAofSjjNpTMrTmLSmZW+rY8yaVEdOfVAFQIIfioYAaJW+v4tfldDyPe37v9bYmQ72u4T2UPgb2th5H8ja3+SJ8WOY12YTvDyfuYYIRorMHNmh4qEecl/kQfeEfFQuqfGe9wpwULw+qAltfmz8rYmQ7i2JwWxOAoWReE2xOA2nIpnCLWZHvb6z2tdy73Nyt9RtdytOSH7XO02uysknZIfS+v4tKZlacxaUzK08Q2eKf6U5hBmiSVArDkzK31/FsTK6Hke9v3f62vyHe13CeyZwt7Ww8j3NreN/xb93+qkCjBYeS/xmLyGLy2h7cLIzK2qG8mhrswbYmQ7i2Jw2xOA2xeA2xOA2nIpuQth5fNvrNruXe0puQt9RtPK12SFot9VruSFjrX8KH78fxghPpI7Xeu5nO11pTLTmNkZ36pQESImeFHqVLWjAJmVvrtfldD597fufFsTL5tdwlM4R2th5HubW8b/i37n9bTxNtjtpc141THBzZp72sEyU3xYJG7sicvytfw2xOG2Jw2xOA2nIpvCLWZfNvqNrvT3tOSbkLfUbTmLXZIWi31Wm11r8voPEgN8TWf8A+eFx4gqgqwn+JAyTYkxkVX0KBxyVR0VR9qqPtUzonT0W9opu9qm/RTfot7RNqW8o8R4e0IVyC3kalvIwZmZAQDhot9GpNqkt/ot/ot/ot5SNWak/VSfqpP1Un6pwdqpHVSf7lJ/uUnaqE57ozscE0HVSf7lJ/uUn+5Sf7lJ1efJSf7lJ/uUn+5Sf7k4HXmpO1Un+5Sd7lJ/uTgaTimgyGKk/3KT9VJ/uUn6poOOPNSfqpP1Ck/ULfQnU5b/Rb/Rb/Rb/AEW9X8L9Tot/ot/ot/ojOoLf6Lf6Lf0C3tE/GU15jmHcW+4lxxUFhLpyU3+1Pqww5qb/AGqb/apv9qm72p85ZKbvapu9qqd7VM+1PnTkpn2qp3tKqd7VU72p8yMlM+1TOiqPtKq6J5wyKq6FVdCq+hVYTnCRTXiSrGqrbqqhqqhqmuEs1UNVMKeye8bXenvack3K3mbTmLXZIWi3nacxa61+X0H/ACgPlsI1udmNkeJSJBQYPM7RmbXIbCmPq2DMqaZ+p4ie02lMyRcBzs9Wyoa7X8JQ2VsHqC8Q+mH3XhWSbNN597fX8Wv5d7XcJTOEdrYeXybRxPt+4fxtPG3sbYzInmbxwmooaGtDcymMOShtkNj/AE97X5fNsThtfkO4tfw2u4T2QyGyQUlJNGCpGipGipCpCkJlUBUBUKjqi3EKnqqeqkdVS73IgyzQBlmt7Vb/AEW8sUKprf6Le0WKx0RnMKZ0UzopnRT6InBTU1UqlUgVUFUFUFUFPFVBVBVDVTCJxU1NTU045Ke2ady7/QR4XmQ3NudmNjf1IiAlsfFfOTVCc6shyfKSZkiZIx8cFVUE6MGJpmJpzmjNNAGWyO5xiUhExGbs14NuBKeZAqDEeYvynWlF9LU2EX7zimiQko0RzSAFFjFrRLNMJMp6LxDjg0c09tEpO3lAc4sxUaK6uliiMe1tRcoZmwFRoh4G5r/GEpvcv5YgHIZLBreyDor506pj3V0Os+58WvyHe13CUzhHa2Hl8m0cTrfun8bT/I3sbYgmWhUOaoMKWe1/p72xMh3Fr8vm1/LvbE4bX8DuyGQtZlaOI2uzbacihaMzacxackLRbzUlIKQUkRipKQUgpBFSCkFSFIIjL6aJkncJXhxnsKnQTgoINUyo3CoYk0KOHEYJsMNYmDdKlOLihJPZNBFGfmvQgGmZUEShhR/43LwsNobNOuiZhNlLDZGY8kFqZAeXTevV8KLBc8zBkv8AHcM1wQyvDt9RzUfeMk3BoQiSe4kKUSLnkocOkqPwKGWsZiVCJiRS+z7nxa/Id7XcJ7JnCO1sPh+Ta3if3t+6e1p/lH42u42fNr82flbE9P5WvyHe1/LvbE4bX8BQytZlaM3WuzFrsihaMzaeK0oWi3nbztOYtdmPponCuSa2k2eq0jBBrShtKDW1ZbSJpjaRJOuDQUABZ67JJzZAlDJUM02ubUJJvhRjM801oaJCz7nxa/Id7X8J7JvCO1sPh+Ta3if3t+4e1v3R+NruNnza/Nne2J6fytfy72v5d7YnD82xOByGVrMrRm612Ytdkha3nac7XXC0W87Tna7iH0zsimuFIVQVbdVUFUEXYhVhVhVqpFyDsMlV0Kq6FVdFUfaVM1ZKo6Kp3tReRyQfPIJ5Oiqdoqne1VO9qm72ol2iaXaKbvaqn+1VO9qqd7VN1eSm72qbtFU7RTfonVSQrkt/QL9Tov1Oi3+ibXit/ot/omuieYVv9FvV/C/U6L9Tov1Oi/V/1T6sO63+i/U6L9Tov1OidXSckKpCRX6nRfqdF+p0VTgcS1MqlhJb/RAv6Lf6Lf6JtU391+poF+poF+poFv6Bb9ZyyW/oFv6Bb+im/RY15clN+im/2/8AlTf7VN/tTp1sw1U3+1Tf7VN3tU3e1OLptwQeTkFN/tVTvapu9qeThhzU3e1Td7VN3tVTvanE7uHNVO9qqd7FU72qo+1PJww5qo+1V/6lVdCquhT3YfKr6FVjqq2qsJ53Cg4aqtuqqGqqGqmmHdCmp7Rm608QtdkULW287XIWHJC0W87TnaeMfTOyTQJKQUgpBSRzubb6tvi3SYvCfxovaZgFC1vPbMIlMcHO2RAS2QUJlDVMap3CUMrPNZOU031d1W05FOMhNQMy7Z9z4se8MEyj4l9U/TNBTGqLmtzMkE7hKbkNsWPLBuaeCXY4lQf4xa3if3tH8ruwt+7/AFtd/Iz5tdxMUH+Rxsfmz8rX+j8rX+n8rYpGGPMKtgzcE2Ix2Ttr+E7JBSGipEslANTTPMFNApCjgCGVAE4YmqQqAg3EqnqqepVJ9ypPuRBmMVJ2q3tVvdFv9E6qSFSm7RTd7VN3tUzomk6Ko+1VdCquhVSq3lUqwqgqwnOCqCqGqqCqGqJEkCphTCmpoFTU9vO2e9b6/j6YqHw7Smh7XZzCi5KCZ2FNTojW5ledC94Qe05OGz1Jzw0Yr/LHJijxRElgoDZQgizeqCLwxsyj4p5M25IeJeeSq3ZoxoleBQMhMovfFdIZKA52IKcC+LIlSDWyTQA7BR4hG61Se2RqXiIpDWgc1DgFwmSoJNDkMkfEOnwKEXHFyjO9IUOCAJlPJyGqexsMD3J/8aG5DmmEgOcSoTzXEcdE2uNMk4BAvIlPAJ8VzYA9yLnv4igTRT1VVMFuskIRcM14kza1k8RmoX8bPxURwDCmxGSG8E7xEJvqTXVAFGE0lNAd4rpP/wClC4Pk2szf+Vo/lf2Fv3v6Wxn0vZ2K/VfjNNnTinxvaJqG+sTUUypUBssU50kTITTH1BRHAFndeYq018zLZHfjD/JecBy2RXnIJgizxK8REpo/JMM2g2R/DguDp5lN8MEIQDgRticBWQX+RE8zBu7tawMq6pnCFGdMyUMSaE6OxqZGY/IoZnvsmNp4ha/hQtbb6rTy2SCkFIIgSQCpCpCpCpCACpCoaqQqQgBNUhUBUhUqneVKpVKpQG/9MUzI90+IGDFQ4jn+mQRMgmua/JR+BQRhNRnGqSc4gyBUKdAmim805jXZr/EhJvhWDXYc14kGSb5TIc8EB5sbAYJ+DFCBoKjMc9okn+HPlgBOZSwNRb+jLooEFuJOac2oEKFCLGlQm0zUV4LsFGmWtUP09lFm2JVJQ2OiOqcnQmOzCiA0SagyliGSIGmzARcdlJMyNUyCS6bkRNRGTZIIiM4hpyUWFIBrdMUIR8gNTYVMOS8TDIlLJNhGguVM6QFGaaMOS891Ia1sl5JoLim8LeyjMDmFDwbtQmeE9yAlshQXMjE8lD4Baz1/laP5H/Fv3f62xx+rD7IJ/AVUAzqvDjAqP6EwSaFEwIKiRC8yGShNpanTfFb3UQSAkmDDFMG8TseHPigS5pzZABDJRAQagJrztGlPbOROqYJNAsiS3fyWFkTgKixGUEVKC5gQUaI5uDc1Pdn0TeAdkwVRFFMmqUMDeKA3xSmc1FikGkJsEmRJ2njHa1/Cha231Wu5WlC1tot9Rt9Z+nBDapqNFY9wkoZFITmzChsoCiNm1NEgnwakYACZlsbmU8OIwKp8XqoLYw4zsOaImj4RpPEmQWsyRCkAE3LYWg7KAE3M7aG6KSPGFhY/hKGW2WxnPvb6/jbIFRGzbILy6ZHrspbontqaQhkn8J7JuQthcAtZm/8AK0fyP+Lfu/1teJxB2Q2GE1ASTxNzPlDYIbQZ7HDeZa4bzO6ltpGiiDGH+VkZr3N3Cv8AHdhNDw3VDbE4SnwWYuUFg2Fs3TTuEpvAOyhhzXHBOaHBf4zUGAOTOfdeIYCJqCZs2ni+LX5IWtyt5m12YtdkhYck3K0WjM2jid9P6nKMGiWHNMIkFMKoJzhJBwkqwphVBVhBwVYVYVYVaJxVSrVaqRcmuwVarVaqTXYnBV9Cq+hVfQqvoUTvBVKpVdFV0KecMkCdFUfaqz7VU72qZ0TascFN3tVTvapu9qm72reryU3+1Tf7VN/tU3+1Pqww5rf0W/opv0W/on10nBNqlkFOJoFN+gW/ot7RQ6qRgpv9qm72qbvat/RNnvd1N/tU3+3/AMqb/b/5U3e1Cup2Cm/2qp/s/wDKqf7FN3tU3eYd3kqne1Td7VN3tUz7USa8uSqd7VM+1VH2qo+1OJrZhqpu9qqd7VU72qp3tRJm3BTPtVR9qmdFM6JxM2YKo+1VH2lVH2lVf6lOOLMOaq6FVdCquhVSc/Luqgq2qsKoaqJEaBmnRK8G5JmAUwpp2RTchZJVATRqf2TRIbTx/Fr8vlC1uVvM2nMWuQsOSba20Zm1ubvp5b5T4dRCDAqQqQnASTZSUgpKWz1Wm05JuQtGZtPELX5JuQtZ6u9v3Pi1/LvbE4Hdk3IWw+AWs9X5G1vHE+Lfun8Rb9z+trv5Gdja7jZ82u42fNruNlrvT3tiNFKDGjkpBUt0VIRaJINEgqQqFT1UuqDZqnqpHVSdqt5Y1LeW9opu0UzonE6IE6Ko6KroquiqQcqlUFUFUgcSqgqgpqaJxU1NT2OQsOSFrbRa3n3+gcZCd/rtcmZC31WutKblaMza7iba/IpuQtZz72/c+LX8u9sTgd2TchbD4G2s9X5G1vHE72j+V3YW/d/raf5W9ja7+Rnza7jZ82u42Wv9He1+VruEpvCLW2+u1/LuhYckLJIDNSUgpBUhSE1IKkKkKkIhUhUhUhUohBqpVKpRbggFLqpdVLqpdU0KnqqTqpHVSKZ9B4p9EFxv9dpTMrfVa60pmVozNruIWuyTcha3n3t+58Wv9Pe1/CUMrYfALWer8rW8T+9o/lf2Fv3f62n+Vv4m138jOxtdxs+bXccP5tfmzva/K13CU3hFrbfWe1r/AE97XZFNtFvO05i1yFjskLCm5Wsy+g/5Jp/x5jkb3cQtKbb6rXWlMtGZtdmLXZJuQtbz72/c+LX+nva/gKGVsPgFrPV+RtZxRO9o/kf2Fv3T+Np/kb2Np/kb2Nrv5GfNruNnza7Nve2Jl8i13CUMrW2+s2uzFrsim2i31WuztchY/JCw5JuVrMvoI7PMhOZqL35jZNTUwphNcFUFUFUFWNVViqwqwqwqwnOwQcqgqwqwqk1wXmNVYVYVQVW8qgqwqwqkTkqlWFWqkSg7BVKtV9FWmx2zIVf+qr/1Kr6FVdCp72SqOiqPtVR9qqd7U8nDDmpu0VT/AGqp/tU3+1OqpOCBdLJVP9qqd7VU/wBim72phdQMFN3tU3e1Td7VN2ih1SOHMqp/tU3e1Tf7VN3tTZzfhzU3+1VP9qqf7VU/2oF1bsNFN3tVT/YqnexTPtUz5hMvSqne1VO9pVR9pVR9pUzWMOSqd7VU72FVO9qqPtRJrGHIqo+1VH2qo+0qo+0ouNYwORVR9pVX+pVfQqvoUTvs+VX0KrHVVhVhOcJtVQVY1VbdVUNU8iQ7qoKYQ8QfOly2O4Sha231G12bbXZIWtt52nO08rXZIWOyKbYcimZD6eJy7qlUhUNVI0VITQJlSCkFIKQRGKkFJSCknBAYKSkpIpqkFJSCkvVskFLY7la5NyFk3xXkZKDCa2euxkRr8tvrtfy77CQNr+EoWw+BtsPI/kbWZv72MikxHs0Q43/Fv3D2Fv3f6oONZG2tqP8AK38TsDgdp/kb2Nrv5GfNrs27JBSCkE8CQ7r9Poo9LYc14eEDiqAnNwKDVT1VJ1VJ1UjqhORxUKI54W+t9by3plTdoqne1VHRVdE44hByrVSqROCBVQVQUwphNIUwphTCmgcbTna7MWuQsdwlCx2RTcvp4mVzeI2uzFrsk3KwptvqtdytKZkLIoo3goJmCdgYA4nb67PPiF7mg80XRGOZVz2RA6LGMuWCgkh1GyJwOQysKh8DeyMV7n7qbOWKiRAyU0DNs14d5NXdRIgbhzRLxvIveQXaJhm0JucT8lEikmTVCiOnS7Z4bF7ih/I/4USMREAFg/ld2GwmS8yZkmRDXJfd/qpc9j4m9SFEZJvUlNG+38VFdJqhtpxJUImt3dRDSwlF/AehUNOiSMk4xAK+qGIXiXScyWhQfEZNQnVMadruJlvinEBoHMpvhmym5RW/qBrTghJjFBjl7iCncJQte6UNQGyRKnsHEbXZiwyCdFYgpBSCkEQE0BUhUhUhSVIVIVIVIVIUsVSqFSpIjFUqnqqeql1TgpdVI6qR1UjqnAyQB1UnaqTtVJydORTcvp4mSFo4ja61ybla3nb6rXcrXZJnCLPEOmQ1QRJsk+IfNDRZ6/jaVC8NQ6c1HaS+HscHsiOpGagwy3E7InA5NysOSd/BhovDtAE9niGzDTovMc4UgLw7KWnujDcY5PJRmFzQBqnNpgy5pokFEdxtHNyhFrZnmoTfUoplDcvDtlDHVDjf8KHD/WdPlYP5XdhsjzowUNtLS4qG3Gajfyt7IZbGwpOJThNwX3P6qI2pqEN0t5QBmVEE2FNDnxB22Q4Zrc5yiipzW7PEtJiMI0RhO3Z8ygJCW13Ey3xLSQwjMORMd2EpKFAk4krxH8fyoUJrceafwlDK12++Wi4WrF+LjghMRBTlscYnnGlCw8QsiNeXdE6EAwrw7jKVhyTcrW287edptfkhY/hKb9O/IpuQt9Vr7XJuVredvqtehYUzhFnlNqqTfUqGznZ6/i1/Lva/hKGVhTBOGOyDALIeR/I7SJyRyUEVxnO6rymTnLY9tTSEBIAJvHE+FTv1WD+V/YbXCYQC+7/W37n9dkZ27JQxJuw8Y7baRVVzlsd/I3sUROXex3Ey1/Lvte2pskBgn8JQtgNxKImJL/G/2TIeOx+EYFCw8QsL2tzKixKsAoTZCw5IWtt5287TmLXIWP4Sh9Ockw7oU1NTCmETvKaqCqCqCcVUFWFW1VBFwTXKoKsKsKoJrgqwqgqlNT3lUFWFWFUnuVSrVaqRcmuwVSqCrVSa7EqpeYJqroqjop74VR0VR0VR0VR0TycMFN2im72qbvapu0Ty6k4Jpdopv9qm72qbtES6WSZVSJBTfopv0U3+1TfomTAw1W9opu0U36KMXUHBQA5rThzU4ntW/wC1Tf7VN3tTS6p+Cm72qbvapu9qmdFM+Y7DkFU72qp3tVTvaqne1TPmOw5BVO9qqd7VM+1VH2qbvMy5LziPSt578lUfaquhVW+MOSq6FV9Cq+hVSq3/AIVY0KrCrCrCc7eYqgqhqqhqphPP/wBqdj+EoWsyseXjIJrXOdN1p4rHw2vzToBZKnFMdPlY7JC1tozt9VpztfyQsfwofTlMAkqAqAqQqQiN4KQUgpBSCeMNkgpBSCITRgpKQUgpIZqSkFJSXqCkpKQUk9BSUthTOEWtzdsBn4k91Np57CW+YMVMTlOx/LvbE4Cm2HJQ+Bva2Fw/Jse0OElD9f5Wt4n97Rxu+LR/K7sLQf1D2RaDyQEtv3f62/cHa08bflSVIVI0VI0TmjDuqGqkKgKlObgg3qqTqpHVYqTk2qS31vKblN2iBMypnRVdFV0U0TiqlUFWFUE5wQIVQUwphOOCaVNTU0Tgm2i31G052u5IWROFD6cqHke9ruJtrskLCmWjiNp4ha/JCwpmVrcyiZAlMm52HNOHlxGgHuojqWEqn1OKh1GI3ZUDz2eaxxkDzticBQsORUF7XNw5KJFLXABBOjyeWyTnxAKlA/jFsP1fkdsWJQ1Qw6qc0zN/5KLFc1wACZXz2viUOfrgmvjOE0yJPPPYXPed1CI5kQhyGIT3hgmocarZDmIjp6bHODRNf5ALTLNAzC+5/W37g/G138jPm1/p72v4bm5Wjnb6rJJwGCkpBUhUhOAkg0KkKkKkIjBAKlUqlUoNVKpVKkqcVT1VPVS6qRUsVI6qR1UjqpORBwWK3lisU+ch3Q+oh8+9rsxa7JNysKZzt9Vp4ha/JCwpmVrc3J7amkKBA8vMpg8yMXKI2tskPD/qCpyLf1W7HgtfWPlR489xvyocGhonnbE4ChYeE9lBeGMlzUNheajsEJ5jOLhhUvEehgUHBgth+r8jtjM3gmMATM3/AJKM9tJHNQZ047Xb8cqYaJICZmiMEKmYSUqop+NkcTcNJJtACrC+47sNkTF9KeGzAamiQC+58W/d/ra7jb82v9Pe2Jw2lNysKbzt9VruVr8kLHZIWi0Zm31WuzFr8kPqG8TrXWuyTMrCm5m31WnMWvyQsKZla3N22QGz1jb4mNSKRmvDQPW74TuVsTgKFhyKYxtLcOSG0sBdUofCLYfPudpAOaCZ6/yXlNmhsjOk3uoUOZM0IYsLf1ye2wtBzXltCoNfRes9tkSEXGYTIMs9nrPa37n9bTxt7Wvzb3tflaU3K1tvqtdna/JNsdkhYU21tvO12YQsdkO6H0DnBomf2BxFTUwqhqqhqnuElUFWFUFWEXCSY4SVYVYVYVQQOKqCrCrCrCnvKpVBVhVhOdiqwqwq1UE4oOVSrVaL00qpVKtVIHEqpVKvoquinvBTOiiRaG5KDDc41uCmdE6Z5KZVTtFN2im7RPnJTdopu0U3aKbtEa5JtVIkt7RTfopv0U3aJs6Qpu0U3aKb9FN2ibPHupu0U3aKbtFM6Js97DmpnRVHRVHRPqc+ckyYLsOam7RTPtU3aKo+1TNb8NFUZZKo6Ko+1TOimajgqj7VM6KroqlVvKtVKsKoKf6nwqgqgqgqgi4VjsphTG12be9r8rTkm5Wtt9Vrs7XoWOyQsKba231G13ELXcu/0Piv4Inb9iW/8KQVIVIVIThggFIKSkEQmhSUlJSQG8VJSUlJepSUgpKSIUlIKSknZIKSlsITbRxG08Q2PhVubPIbX8rX8JQsORTOEWs4bWZHubW+rva3N/e0cb/i31u+LQN89rfX8bJKSkERvjsqQqAqQqQnNyVKp6qnqqeqeDJSOqk7Vb2q3kapIVSU3KbtFN2imdE1VdFUqlUp7yqVSqVSJxVQUwphTCcUFNTU05A2HJC0WjM2niFr/T3Q+g8V/C/9j1/Frsk3Kwplvqt9Qtda7JNysKbaOI2njFr+Xe2JwFCx2RTOEWw+EWw8vk2s597W5v72jjf3tHG74sKHGe1vr+LT/IO1rvTa/JCw5FDK1tvNSUlJSRG8pBUhUhUhEKSpVAVKIQaqVSqURgg1SVPVSUkJqR1UjqpFSKxmt5by3lvIzmt5b2imdFM6J05tQ+gcKmkfsHjba7JNyFredvqtOYtda7JNyFhTbRxG08Ytfy72v4ShY7IpnCLWcIth8PybWc/yNrM3/la3jf3tH8j/AItH8juwt+58Wn+QdrXZttfl82uyKGVrbedvO052uQsdkhYULRaeK12bUPqHcTe9pTOEWtzNvrtOYtflaU3KwpvO0cRtPGLX8u9r+EoWOyKZwt7Ws4RbC4fk2w8j+RtZm/8AK1vE/vaON9o43fFv3D2tP8g7Wuzba/L5tdkULW2jM2+q052uQsdkhYck20W+q12bfqYnLupqpVheY3VVt1THCSrCrCrVSDsSqgqlUqlPeVYVaqVaJVSqVQVScUHKpVKpOcmnBVdFX0VXRVJrs1V0VfRVdFX0QOOSq6Ko6Ko6Ko6LGrJTOiqPtUzopnRPngt5b6m/Rb+ifOnFby3tFN63kZ0lNqpCm/RTfopu0U3aJsw0Kp2im7RTdopnRMmB8qo6Kp2irOiqKbMT7qbtFUdFUdFV0TJ73dVdFV0VXRT6JpNT+6qOiqOiqOiqOia41OwVR0VXRVKtA77vhVqsKsKsKoVnsqwqgqgponf+FNTU0Hgp2bbX5Dva/hKFhTbRnbztPFa7khY7JCw5FNFrbfXa7jZ9TFy+VJSUV1JC8irGaEJoTFLbJDPbLYc0DOPY5AKSkpJwQ2SUkckxwOyKS2RCZi2aKYaos+uyW0cRt9QtfEamkHYSAphP4ULHZFN4RYVD4RbD4V4lxa1vdNxaNrOfc2s9X5G1vE/vtLgFEjH0qCaqj1tHG/42y2fcPZSCkFSFSFIV/CpCoTxIKGzGac3FuKkdVJ2q3tVjqnzwUnareW8t9OqkhNTOimdFM6KaD1WqlUqk0qpVBVKaniqgqgpqYRIqUwqtruSabHoWHJNtbb6ja7jb9TF4dsbF4TchsZz7p8ZjM0zxDXGW31WxTJeGE3EqJ4oAyAmv8o82pj6xNeIdSzBeHMQibrHZIZWR3lxpCgMA547HiaaJBRnSYvDNxJRMgv8AJ0CHiZmVOyI8tiYJuQs9YsiupamCrHquBNM2zT5ufJPdSykKFPynT1T4lICY5zkSGgkrzYjnTXo+E9xbCElCMQ55bXJnCLYXCvFv3mt0UOMQWg5bIzjwhCtgnNQHF7MddgIKJkoLw6r8rWZv/La6G+tRWhrRrNQMj3tHG/4RMl5jTsJkF5orKbFmZWfc/rteZuTRIKJEJcJIxXgSOaguqbiohkFCrqnyT+XdCx2RQ2lxD5I5JoUrAhIqSMghSckMypBUhSVIRAmqQg0KlUpzcUGqlUqlOCDVSdVI6qRTp6poOq3lvLeW8mzW8t7RTdosVM1FTOiMQDNCJNVL1j6mJwFDYBXFXk/7FASGaGZRDokc91FAa9oHJNyGz12+K4R3UJtMNQw1jyXqM4xThkoLZMCjDdXh3Zix2SGVkZp8zBQYWp2QgS8nZHxIChCS8TOhDQBQ4e8NkbjmmGbRYeMWR3T3VKIwZIMe7i2RIVRwRgmSlKEorHOf8JokAF4ngHdQ4baQnZFPl5QULh2uyKh8De1sLhCEMu8QZ6qON9gGyMx06gmse5pK8OJQ/nZ/FE6FRHmIZDJeHZIHvazN35WeK+38qHz7pzpbBsHG9R54KGyaC8QTMBQmbxmgP1LPX8bHZFQxM7MWvGCfNzkBSJJwmJKGaXUp/p7oWP4UNhMlIFHIrzeSMQheYmPqRyQJdgi1zcZprsE4l7lwKA8uJRMlVPZWAokQl2ChElmKcZBQnuLthzteVDi1Gx+SFrbfUU57RzToXmYh68K4hxadh4x2+pfwlNyGzyorHTai7xGibOkTQ4iqWznJNhudFJI2+q2M2qnYWNdmF5TJYBASXiHHhCgspbYck3LaTIJu/EmmKSlLY9kzNQ5zM0RNBjRyVOKKLHvfigJCVh4htcZAlQ2zMyncrX8KGwgFASTsivLqligJCW05FM4RbC4ApIw5untZkmCmffZ4h9RpCgw5CZTOf5G1ubvysewPzTfV3UXeIAQyG0cTk5tSAlsLQVLef8JjJWev42hktjgKmp0MHY9lSbDkU/090LHZIbImibkn8JUOEooyVMmqG3moruSYS3khNyluoVA5J4JUBslEdN8kxuGyI0ufgmwd7FASUTMBNGGw8Vsd3JNdSmmYmnRdE2MZ4p2LU8lrZhMdUE54amOqGxmVsWJRPVNgviYkprfI9U1AZN9Ww/yDt9S7IprhSFUFUFUFUp4qpVKpTU8VNVKroquicVM6KroqjoquiJ6IHoquiq6KpEppwU1Poogc5NFIyQJUzopnRTOimUJzUypnRTOix0WM1MqZUyp9EZzCmVM6J9R5JkwMk5YqblNyxT5yQqW+t5byM5ITkt5b63kZyKZVSFN2im7RTOixTJyUypnRTOimUyclM6KLELW5KGw5kKfRM59yquiq6Kammni/JVHRVdFNT6Ivpq7qEDmqlUqk07zlUqgqgqggd4qYU1PZ6rTxC13K12SGwt3tjsk1SRCwAUqimBS2SRYE0Ly2znta0hxXNPiEck2bjNDYeKwqkufiqJlS3U008lEm7kmT8vFSmESYRkmwy7FyAkim5Wxv5yj4jDdCbDc/EprZDYeMdvqSmcIUlLb6rTmLX2uQy2S2EJuW2WxvOySGdvqtOY2SUtj+Vr8rXcJTchYcimcI7Ww+EWs4RseypASGyHl8m1nq/K0MmXd0BIWDNykpKQUggMSqVSFSqQpbypVKpKkdURiFjqt5YrFOngsVvLeUynTQmplTU07JNKmqk4zTcAmlVKoKamgVMKamprmsFhtOdpltkFIJye+kKGyZm7aU3K0wmvJmhAYEBtPH8fQz/Zh8NvrtOYtfkhY5NysKbla3naOK31W+oWu5d7X8NruEpuQsdkUzhHa1nCNs9kPhFsLh+TbD9X5G1nq/K1ubu9o4jb6z2tPELXZttda7JDbQEUApKSkpIKSkpKlSCkqVSpKWKkpKSknBSKkVIrFRDIJrXxDNAELFY7BNTKn0U1NA5qaqCqU16/j6F5kf2YfPvb6xa7la/JCxyZkLCm2tzNo4rfVaeIbZqadytfkhY7hKGVjsim8IsKh8Ith8Ith8NsPn+RtZ6vytbm7vaOJ1vrNp4xa7MWuQsOSFhyQtb+1ztOdr98prZCw5JtozNkl6vj6HxQIYXDl+yz1d7TxC11rsk3KwpmVrbW5m31W+q05i13K1/Da/hKblY7IpuQsKh8Ith8IsmoXDbD59zaz1d7WZv72t4nW+t1vrtdxC13JCw5IWOyTbRaLfVac7ImipkhYck20Zm08Y7fQ+IFUJw/YKbm608Qtfa5NysKblay1vEbRxbZ7OdpzFruVr+HYSVMqZTzulAmSmVPY7IpuVhTOEWsyth8NrP/21nPva3naM3W+s2+q08QtchY7JCx2Sba20W87TxCzmjytdkU20ZnvaeMdvoSv/xAAsEAACAQIGAQUBAAMBAQEBAAAAAREgMRAhQVFhcaEwgZGx8EDB4fHRYFBw/9oACAEBAAE/IcF9Klf167wfC9ew09i/+5aaLCMIqaFIjeb9JRfxPLqqeTvXZAW/XseBW/8AuevSrLRCXpLL+KSaTQTTpmwJ9VhWBk0eu8I0BpT13/8AswRIgXpjL+JJQ0xOlLzMhOyoAJc8WIk5hLZCfV4LYneUkNjspAOU5DkOQ5SI94h5ng03bVthgnCfSbSR/icE2hyogOiJ2idr5xe5+BSKX+g6/A7Pg5SLAoLocY5kciOZECcJJJJJ9GSf/gbn6DZmz6iy/jas1gWvg3POWcs5ZLeT3k95PeS3nYdWdGdGdWQ2dVUcpyHPg8xyI6ieBPA9h0R7RcSGB5IbNDsI7s7DtFyk9+BgYONgS2DujO80/wAkNjiRxjhHAOHhuDB7vk7fk5vkR/2H6M/Ji/7CRS3kt5yDlUX38Vg+ARuRG9HtPZhdB1E7XyTtE4I5pzcCkX6I6v4I8/B3Hcc5znIcY5DjHKiO5E4xzHMjmOc5jmOYhuQ3OY5jkOQ5jkOQgQIENyUSiSSSSaFd6GbIJHpWMMvXdmQld+pBBBBBBGEEECETUShLAiaUogNCsMEWjOA4TjHDhOI4zhOCj5otWTpaH5s51R2nIOfRW3uo5EdJHA9p0H4PDcs5WESLkxw/A7fjH3DOOcI4otgR3IbkMEkk0SSSST/+PCIRCIbHAjgOA4DgOBHEiGxDYhscQ4DgOA4MJxHEcRxHAcRxHER2xiJHAgQ74pnInUzOl+neRd3F67lsVEp/OxoCwSEkIYGNFGnqQM+B/KOZYsTZepGfEhSSXXMJXlZSngnbESjEbGVjmcnOtZKES0Lj1oIbHAOJHEOIcc447mEZkOA7vk5n8kf9h+zPwYmQc85xmCDml6JSx3lI0fqjg/BwDgHAIKI4LqPYdBO38k/9yf8AqcH5wfJOYcvFgmX5Ih/oGv8AoO74OQg1wHHOIcU4hxjgE+gjuQ3JJwTgkkgTgkkkkkkkkkkkkkkkkkkkn0Jwg7HfDG7B7aBOwnYTsJbEtiWxLYzcEQLNP8HUnHx/PYxIfmCcko95ixCBLex2dEkJyRCma1ZoO0Wlx60q5kGwx6qBSFmW9gjy0Rg9FdoTfJXRi85mM1XdU8i8F1R2eiIP0kI27ITHYKpk9F2ZYQ+zIxbX0p9z6mdM57YtZ38/1QQiEQtiGxwHGOIcQ4hxDjYbgOA4zhoZ4sHtoP7jtOw7sQ7CMakd2cjORkd2R3Z2HYdmdhLcS3YDk0zXc5yEb0RwI4EcD2E7UdFiUlOAOScgluJ7ie41AlH8DWmcny/ohsQJIaLcIaNQxKQhEiMdnBkCVnOcEkiCDyShi5FqPMzjPcn5y/Q4eYzR36TUqBOY5NIsOPSYjZjPLS8/RTcf8DTnMQohRAjlbf8Az8fxNTc1aapJJJJJJJJJJxkkkkknCSf6OcgjyT9Oxr6DWUamelNbG/pNl0I47TIShf8A2Ou5Z7USZkLN4So7WCxLMRDWGxXnkciwHIQEjcVBhLcRwI44FNjpw+w6DE24gnZQkEAwsF5ZzzkmZEye47hchDkjyJ1pO7B5TlwXIcxAjvgjuQxJJJwWwglO4sXoqYhNR/8AwF20UXgudEz7BFZYDg5cosdQuXdGjCsXCx1T9sRlhCGlAi+bIRxHEcRZQto4zhOMcDI3CgtJ2Z3GxS80zsSkPCdXXoILAI3EcMHRXR7SdqJ2nU5RBO3AS3E9xDGRMT3LFaoiRIYEQkZDAjuQ3E8cxyHMQ3IbkCO5Dckhgkkkn/5tmfgx4MRm/UjTDRGUe5CywmGUXIzA57k0N7CRBHJlkZjXeRGoLqRFaPe0mfOAyQyWozaWxLmY0HvcSPA6Lg/xUvhvFj+Tp8sVDHlPenwHT45a6pu76fL0/Up8QsRBBCGlsWyFsQ2IbHATsh4jiOI4hRMaCJwHARFfKQIEeTsRQvWDsTDdq4mFkup4zqXbByjXt4HKRuI3Ebh5hBjcRhZLJVhWPTenG8rLBwPZgb4YfYdSdpO0WwSU7SdpwCNwHBhJ7MnsT2Ow6s95HZkSJDAiEhDc5CByESIk/p/6mxPizGhPNNwlkWDHcsRu6EMlLuQytiKpSkGsV1qIkMgaPPDOrA0XO5C0qGpQphw2jE7NCVJReLdWUXl7DYyjVo0PLvkSmSMt7KfIFTa7dPhOnxy11Tf3Ut86n61PjliodQvpV4NL5HFLz39YXtnsJUuuDK2OWMF7eh0buEMUmYD9YVFjLFTf2pf0pt9xUWFlKv6RiEQiEQEShJENiGxxYJIyJEiwSL+WrBpI09SCOWCmQziiOG7EZtfYklpgvF3hlwmZQEiDsJrIomTYf4COz0FpboUksajR1M6W3Yl1EIsSNttl85jNaZJsCZ4t0AqGfap8AKjxzwqb+yl+BioePbp8MsVDszwafs+kDylP3BoZ7Ic1a5iKEIMwjiWuYR3V4RMG4USyxoeR7anCesukKQO2FnQKjxixU6u6X9BDwRau0NQ2RbS2ZNKaHTuQqLF2Kh5HIv4237B0Z3HVnVnRktOhPZk45C50OQNFxZZjmah3Ow7jsO4mWSYslmdh0Z0fwQ2eBxM7saRAgcuE5Ryg1J6e0iQSscA4hxjmRMSdS0kyfIotxkFxGVNWohkkk4Mp9iSSST7OE4+IeF6QPESWEe48gmsWSnNOVFzo8GmHy0+AqfLU+AGYqbkPB1tYYRFyErLQnoW01uahXIrEc7eO3x4WdYqPELXVOrun6xDxt6qV4sU+QMWEmohY2cHjcqfsLKLHaF/Hp6EiKIy9YNShsmxXdCzK+4y4QQQQLmEyWEYQiBBkQiBpRgQtiGw9geJtkJitpIbD20LK88ZidnCwUvLqceA4hsuU0snMXqh36aFm7hU3Pc7C/m7necw5xzxLsYV6Z4BwBM01YWLNWID2HRHVEbyiQ/B4uNZaHPw5UlmmrOaCkRLMSz7KHMrtCWWkhyJbEI5ROtgDjCSb0OMcY4BHcVmNXHEOZENyA2fwhISTg/IwknD97gcd4yMsbsMhsrChTI4ahjKUpxBhLk7TM+WKgWFwqjxCxU2+9L+lWVFwtVNz7p1FRPE86bkKj7Cyix2L+NvPWl6TvFrql2Uux9rxYkGfwjSPYmUvc1M7ZzBIRshnl02dAsLqIXKbAdLKYcsmKj7dPljwqW/HajIlBbhucMZwwuS8KW3SEDBExzWQHSblqbWS6L4sYQihifEcCOMcY4kIho1HAOGcTCQvo4TgOPDjlESO7Ibs7M1bUSORRKe85o8rNP8A7J7zlCw3uvVRyI2C87kbyNyI3ojejPSxIXI4kb0RwPYLpaPYewjiRxIP2ntPaNtZFpoW5gTbQzqjqjqPLYWQnYidgkOguBO3EBtsZsiE2xPcT2I8DHJa5l0ZHkiRMxCU5DkOTAIQxHlLtfyLrmvqh1O4WOvSTsXO6HJpRbGqhP2whbDbfnYePQ9rtCoaOQTsaIY5e4Jw8mnxTwqpksBOw99zFmGQ/YXVZspLOgoxfkcgXpkFyGqzsNJqGJTr/kx02aFRc6PGpvdqfPVM/E+6dH5fC0kkNybFpknxuFmuDx/9U+Sp8gVF8VNlOvBkXshkhznWbyd0FzbLIT5+kRGkl3HtNXNdgrDrEsa9V0SXF/BOtbjaSkl3Rmhs8QulLiRYQNpXG2azQkQIbDXO8xyWQkIECAuS7ERSLImn6qNccJd0XgnS/wAwvSl4tekGa+6GlkRMXMZImsGy3/R6E+4VN/Zgszg9x2TPImnzVXgHjUIJUi/MTPMjUaXwRq8rYs4gapnzTufkXbIlmcpYJ3mQXhQqPGPBp+9T4Cn69P698LrFyMyraLMQrmieVxpdtP7dNwXpS+jBr5GYjpywkjFshuFJXLBadky6u0vYyNLN3PgCGTwSs2KTsRKLId3mcCeREuDKrPB5lmHhyHYZJLFtwVFpHl3GLFDUEnPKcU0zkjJm2/dStXaO6ZkjO84IVo4W9WVJ6SVFifImSSSSPdyJkkkkieYkknB8w+TCSSRRSSSSMP5E4Tg8PU+Nc4NWzMX1cZJMxXondcw4Xz7GWN8LJx8Y8Ng+iZcGXxGZAbJE5IlFD82m8mTI+EiCMLCEdHLOjQKjxjwaftfpOqQXg4yuYzgvSj+zTd9hU2qV9JEoha8C9kMHXoNJl8clbodeHNluhExSkjMIY1rDxnNQkOo8QTOJB5NxkM3aDyXkJCxlIsTwFhMEkHECoJk7iGhuhBdY/LL+S12hRbZJFj15C9V0O2UfFC5ixmzuzuzuO7FRmJBtF9yESMJ5Gp3KYFXxoYlaIbshuzuZIqCPIo6s7M7Mz+wh2Z2HcfIzO53YaW8lvN8TpMS3xoxJSaksY1N4D0x+6wfCElzNiOyog2cew6PknawntwlLFuQvkvgFyhB89iAE2SG0Q0tkLQ5/Q9ll7Clp8CNsszGf8BxfA7PgW6TIxy4gcYnZxxjhGdqb+C+swvWJdzmRDckR7Y/wk4yZUXZJOLZ0yfwUl6WBqp+LS+xUst0qqqovVLngkli7mfIklbF0mLBayzTAIiQrGcabFDWESQZfJF0DPhvWa1l/VK8KiJtYaFJWWhEz8jOHbcjhTJXFhmmqZE1d1lRZVeZSzyabhYiFoWDqEubPbXBP4KbwnkI1q1hkFOBDscbqOW1PoALSahiswwzwC0CB7bIzqpQixVamSgRfLMTlc8o04YWxC2IWxGQhbE6lNtNiHXbc4kKTSV0TaI4GE4S1tBVDokx6IwjI7sh/sI7j9GL1MdxNA23k94y9sToDvOeBAOmAlyISqbTCWwJdbSRoQjaI1tEbkKQlWI4j64HsHcRZ4Op1WDyEdSdgkJDqZCyJ/wCmKMktATgPlnIwGlsc0W8J7hsrCb2JbMnuJ7M7jMJOro6OIcw2InMQ3IDWIYJ2YoDoZOBZg2uYJHuWoiHIthSQvWQ001lR4g3w0S7SpMrsRnQ1cOMa1syRzEtlhBN2p7D7qbuwvS90sdYNGoY45wTspNhrS0E0eCWoRtMMEavSHMdAvyr6qlqS0IkblcjGXQIWSWxtQisaM7V+m9kWxdI9x0tBavI7KbCg1d2wqGY+eP2IWMnhi5Lqh2q326fJX1T+jjC/IdkXfGHlL6p+hS7VOx0pdi1T5dP26blS6nXCEQQh3IIbENiEQyEhAgQFSEuFEiZXv/IuU54KeENHoI5eYE8Ikie9DsNk+6dHYvTEf4KEENGu6D8wzL55BOHjFrrBqKSUbnGZNRm12vh5y+hYrpSQS27seSuDT8fGLimozvyiRe1ri377YPWbWltrdXCkuEjR+XoXTAI+aU3JFmofchUeIWuqHY8Cm3vp8d9U+O+sNCSJNWH6OKV8FLt/L02dNLtUvNp+yKi7UudRUio0iov/ANIWFqhmSEYqFj3gcCKh2PspsFQ6vdPCp/wITL/Bmo8bGak5jxDwMJJJG+dFyY+0pl3fsOpKYwso8Y8YRI2n6yfEJiTR+7il29vsaJmQiSbAbL2QoQ7U2+lL/EWqh2Z4FNnf6V/j49Kfr0/j3p+gKix1bzafBdN6pc6EOoKjRSvUrv8AIYpDNmLcHPxlaYNGPzZ+bOETtfIhaR0QynY+SdkbCN9idg4Jwfkn/uSqwuJOz8nB+cPOtEzQTsPzY8GXdMPHwP2Z+jxzbia0H4se9OUX33GSE/qFRJdMAmSPNM1KJdDXCGZR+J/50cT+Dt+BDy7CP/Q5n8HMZrQZztBFLzJHHOGO+mZEeTWoXGalDFtjhHEI7i80tAnBOXA4lKBHt57iR/kfWE4wL0JJJw8AfJ0SSSN5Va529djv76fPp/PvT9Om4WiKPNpa+Cm9UudLvTYFRppeFSv/AMpM6Z2LadPdLLnppXdU3jxqXRQeINpmdy2yXch2TgnWfASMUjD6WEIKbsVs+ECr2hPhENjgRwHGHLENX+w5KkskcAeQlLg4YF3Ukeg4zhLS1wO87CLcXDoR3ZH/AGDkFhQO5GSsxPeT3nJG8PMPJnORQZbZqeD4PwcAjaJ+Y8qOQdgiWedX4l0D2oaKLjoE/wDeJ/3idr5NEVydv5PxY/8ArP0ZeYfgznnOOYO16w5pIpFLeZgoTOTwl+iM+j+DNd7nF8Ds+CGAiPWA8+WQ5TlFxcUWZyYLkOYW8cxzENyG+FAkgSNmLCSRrUrKEl/+pGPl7vBkiLfTV0tXXpV48CnwHQulhK0ZbjAYUWawJWKeCiWlHi0resmmWZE0mgtEIWimsH+I8dSy/fQzuWORU7Odhpc5+DNnmJJCSyp+Y+qfA1Gyi90eLT97p+zS0++XdOxJDVTKCaaTVnhZ2UyZlhAj6lEl1J4xapTPtS7OsMiEQJnFGELYhbEIRZkLY4DgOAgIWxHY4TgISRIEMFoSHdndndmTc5SYluS3Ecs/5XgioZ92MYWi9IXi11S7eqbPQnUy0IhRluQAJuFoeDiqhJJpTqCGXKV6besWEKS/6YeEzwVFiOiVWqSx0mTSBQEfR6kifrT5D+qbeuoqjwjxqbHvT9+oTDYzGlZZCUJJaYXe1N/fSqc/VxTe6LVP2Uuzqm4KnXWWLuKjSKi91SuFn8iv6FQ7F3em6WKlXdU3BvipdgqLDItP3TKmewhnYIlGDwjxKZ1UZYE1Cs1s+1qThZ0YpUHbh4x4QQy0IypG3g6Lg1cwZRVo0RNxyT3uRkGRsERkrH7tP0asqPAPG9JWUr72XVIFi1hdaj80lobw+90r5qfCVP7uKfGLFTq7pf0puC9QWLCo0CovFlHhFi/kb2QkIbnMjmQ13EpEnCOQ4xxjXCKzOAcDEKK85TlxkfuEkl0SbmwSDXAchzDjuIQY5yK45hNYFSzuJ7glLMFwBxs1YVmehxjjnHOCK1IgRIbQ+4pMsk2EoWxUReg4xxDiHMh4jtYy0DkdSemSKFiRiySSSTn6fYjhBnkuCJ9y0EiSnKGUXdP16kqPFPGo0qV7tTZ7eG6AlGH3OnX2p+jT5FLfAWqdXdL+tN4VOr0jCo0iovdFtHjFq9d666t70qnOLYOMcI4xxCUmRwHEjiRxIVFhUMiOxxHEIbEZCGxDYhsQthFAqgQtiGxC2IbYKCEQiGw0ghD7EIhsODGzgZQEIhsQ2OAVSyEVnQ4BpLoXy9HCLC0HEjhCCGpE55CVGWnARaaho4hlUJvZGWoSH5kWjWxx8BwEGhnlfqwe/wCRyE2MlNzuFBZ2kN2d2Ickj8wQZFqQv+jDTJvN5fGHMOVj2q2C/sjh/A0mj4JYSwuSasRuEb8BboaUjAXETtE7Bl5JRLJ/3Cf9gn/YJjZ8iKsE0Zc1KcmRoo3Cui0+R6PkMix5H4s/Bn6M5xB7M5OLBPcMutDIX7I/RHd8E927I7fA7vg7/g5yJToQEcpxDjHCM5nqcI4RxDkQlXaENyG5AlDZhMknCRiaJCZJODCpKi5T8YsevuZNunyhUMV/VNrHy0uksqfNFQy3twlWppB2E0JHm03jxRaIUqCSyme1DUhsuRji7QXi0pOW47ifGgiPzewpEoWpHgHiKfwcYQR0ZlqaFhvRgvA+8GIuPa4ikHkE8SX8RUfehUeMeFg3g7ujwxieNr3qzJLMXcllhaHRDHpnmfLpfwYsSPvVKwhECFsQhFn2cBwI4xwjRNDiOFguEUgiLC2jjwokBBDdkN2d3gdmdx2E9xfcc2gII9yNxG87kb0NQeeI9p7TOdFv106VK6q/xptLfpBn2U+aKh4JjZmgIWsLDzhUXMG3l/8ABwzCtBEAloheDiolSJXE3JDvKlF0zYlzD01xE2ftbHjHgKXfuBhTEoQpyLgrWK5KDx2DFh98iKZ6M9k5iRJTGN46fsQqMr+Bk0jFMudHh4LB2pjszwRknbidnNiHZnj0/Y6fPp+2KmWU6u6f8KbgvSa6XS003C2hlj13Kub0vuVTJUWFvv6ePfum/sKhiVGYbS20QtSx8wVFmGk6fgskvuSzJGG2Xa+E/ruZDMvZDbhiRnR2wZepi0ahi3lJdCZ2L2ZlXxTf2iLMPtEJWwXh0+IyCMnTL4tIZImnkXUv2qmI0ih4R4dDsJRXOsAcxkLVnGciG2IuHh02Pf0GYj7/AKQIt96f8Kb5Z6XXgsWFRo7FYWNjLaGWvXkNypvCZJJJOGTJJJGyHWfZJOCR8+wmiSSRsbywlEkjrLsSEolENxpBAFgk7kCGBU9xMgQIDYj5iUShosycWYWTLIUs5eBUQkkSSN8QTwkkcXke45HkhTPtakk4eYJJJwTpzx8EiFsU7ajf6aEg4FRa6CoSSto8Y8Gh2Z49HiHh4LC50JHXTYpcSbo+16cW0/4U3RPSa6XZTp7FRcLaHYtfyzomhec0bcXE24lvJ7zuMm4u5s7CP+wjuOR/JlrnYczOZ/JzP5OwR8ifc7zvwEVYm0OE4jhN8BnlZ6HATaYThE7NTJscRwnCRTkQOW5wGQ9BMYYTjwR7zvAlRQR4iJ6/J3/J3/JGdDvO75Od/Jl3fySl7E5q4mTAfwRmwREtrvDZmZlkTlMpbxNfWHJOUcrB9LvD7UGRYn/3412QfBMKBRQ5OGcL4OEJFLVhG9DWlhAwz0wIOg6onb+Rs0iy3GXKWPwZ+bPyZJcdx8qjy3P2Z+LP2Z1DubXRuOL/ANCUqS2SJ/8AsON5rHTOKBMpQTUubAfohJFn8Hd8CJIeB5cFri69GcY4hxjmRO5i3kQ3IEokfIknGfAnCcH8kMTQ2VOqmxTp7FRcLaLGWv5PAH+Gm/sKh1CwVDrkrYqYycrDRxPwJ1NLZErWcTlj9gqJIhEbMDTzXwIhtISwlFA1Im2j2PDxFPjHjMFkIRPNxr8eKWkUop/A5psuR4AFSzrjXHg+fvBTJZNv6wCCEmuPiMYxSo8U8Kjxjw1Q0dR4xrr9RzrNtkRsRk6jwqHgIwiqoQnyCFscCOBHEjTRRWRwo4zhOAdVhv0wu47CPxI7vCdh2GRfUTbie45uIb8C/BYCNgjWI3kb0e09gy9p1J2nUt5Ce0nZgJ2DIsMi2EnuJbMbJlv+S6PTWC9KWlnpa6WY5ZdRK3qxVg7nkd1U/ONvQLCZRIYfLLGUKUJfIlR+PfFCQyISKfgeBp8ZnhKE0IKJ2HUEiLtsxOV6FH5eDQz2Qk7zGzG0afiKfuQqY8KjwjxqPDJETD85FzcksshHnjxVQ7MaX8elL8yn7UKmwKjX1TYuxU206qWFRpFReLKLhY/ksPsqrKVcKi0tdekrhYsGhGZu04/lFdCx0cbOgnS0MzvtjROfuIMs2+H2un9e9PgafCZ4Sn7wiYNyZN4dcL5LEyeFSdnfBG0q7YRaAz/GHlv6weZ7teTMsPrio+1Cof4S11R4R41MWusLrhOMHmDxKLH0eBT9ul2FOi10FTap19U2LsWE4Mtp1UyFRppXhUXOix/I7Fzum+WKn/AVF4bJ1QxviwkkkcNkiT4gi8JxcMyRItlaLlXuN8onuI8lL3wkbG82STjKOaHjoCo8VniKftYpMzN5dmhLsykuBXKGqG/mfeLFljCPOYi2FjrD6IqMvvQqPBLFQ3wHhUeAWKPDPEoudHhkix+9S8eSRsuipap1On7BYobyqq6lMmE46aV6l4hY/kY6pS1wP6PBztk2ZGSsdBBQUcTdo4pxMBx/jDEIf2R+aPwWH3Jyh7o5hyccQZ/vgxtwPYGkzMVzNYkWcP6JI9yTNLkSyM2IUykEsDSq65IJhIJByimxCJEOjNsJUFtDZSzyH5UULCOec85w/UvOScn4wn6IRT2QxnoQPAM+QEbPwRDmpMbPxg3AI3BL1XcEbBkIYWDBamMB1EgnWhoSsJ0ocH5P2Z+jJU4+5aifufuzn/Jy/kZlZZbiKQ7yOT8nK+Tk/I+lulBD/wDRyfk5mCOaZWEk2CWDv0Q8jyZl0Ox3fB3fBy+DlFM71HAOCcU4xDNI5jkJRKLV2hNE4SN5D5MJJJNVLW7FaiwnBJOPkVCo0iouUvCLX9QsLNLeSm0tVUMfFWAuKbXIrd6nsZkliMbzeCqGhvZrWw2eqNjJlK6QwkUnlxFQz7nT+vem3oFR4R4in9LelsEUhPAmNZS4WFBof+1VS+c/gSc4rqe3+M6orUZegtVNVHhFioudHj0wjsIbHEcSOMQmo0OIPbnGcJkgcJ2EN38kd2dhOubJ7ie85GFzmH/sjg/BG9CTlAlvRxjA6IyXkZVkSf5vEhObwdb05pLeNtQluOzCdGW8nhgd2AthJyHIcgorV/L9Gmws1JUWVTeTBLD2HO2rC2YrbMTiUq+l9gqfN0/j3p8BT5o8N6VPwcUJIC9tQs77q4qzl2awBCzbpC9SOfY6JCUhYNo/dxVZUXu0KjxyxUJnzt9iwzw8EVHiHg05+xSn8aqKh2ZboYn4BUXdxUXCylXdLp6KIECRCIRAVJyz116dYfZT5wqLT7KxkpNbiZDJiBLYXLLLUsUqk+0VDPI0/j3p8RT5o8Z6QvzcUt2fmY7xYeSRJ0FHNDoy1XWaHgmqM4yo+9fdUVHkL7FTVR4x41NztSvCqsqLGeNSjVF4VFylJe6X9PSlnuKi4WevIBOha1Ozql2PspuXYnQ+Rq7wlY+cSNeXZwQCiV4LhvZGUwFin/CrVEjZdlXNFnpT4LPDU/hb0/g4p/XvT9omj3MBaRmQEhDTUvcRZ1U/cvum77Co+9fdOcFR4x4tN7tSvopvJUXujxqVURUXCym90vBON6FRZ7iovi9f8wJqeD7h8g3hG2OS2Gb/AMBqbMcke8OUc8ZxIfsz9Wfix5bDNeSOqFB3HzUTB1QslYjiLIEEIdkI6uhLDRG8RvEbxG9C5SDYQ4HwcI4RA2GSON8HG+Bw2/BBF6PYiuNRteAorPge2+BayfGEtrwON8D/AOQX/IRVMsmF/VH7I/RHVAy5aTjfBxfg43wcH4IsNQ4Pwf8AGP8AjEbkLzMpOw74g65+OHE8UbNZxgN7ROoJ2icKK7+hukya30E2D7hcHhfJJ1TifJx/k/Vn7MZ45M19kP8Asc/5OT8nOG9wjnYEtycv5HizWaEbm4RLeSuoCZfsiH+g7Pg1VYYTohwTjHGFM2pnAORENyRJ8ZOEkj5gnQ+bosUqqiouFnpddUVFi7FRY7QvX2lQmryxI3AYplCwQslRaNlg0KTP5RAx0DSJkSbQnjpFRZgXJELH/EkTXCScWxDchofZIRfIiWfWxlXZS7aT5dFPgs8FTmf8Z0+cvqn6n2L0QJPK2kjNavvRLA0ryzw+iKix0p+xfYvRle9hUZe8KvaIRwENiGwjQcI4xxnGLOlscJ3kI1IbvkXddzuJbzn4CS4EVAja+CNwjie0zdoJ0ITtfJ1JJ7TBc05hPcOdguDOrI7P4I8kKOufAjM5jkRwDmMsJSIl3IbnkCQlErA9nAXrzTr91eaNwhHI9yAkMYdfuTUzgkzss5yISWzQZRGcjlDbI8XwZ5qGNR9C5kO/ZLify2mNIqLBD2PQR8pgui6iZukxuCZX0QMxcyE94vMbExbExXV+DR0U5haHs0H9lCHTnEzRpp+Ip8Vnhqfyc0+YvqleB902VMl1rI3oUe6HZ/8ArG/0s1voKizppu9r7FRl7B41P+WnyaftU+IWqnyKfC9CRTghEIjMQ2OI4CGwgQOA4zgEWQto4jgOIUn3F/LYfKNJsLzYWE5uZ2JLWQjbwQLgRV7zMKzgegijRBkZGX7EhFhbLzkMaogAjaODdXCqHYk0u0jxJpwWhnhcSSiFKSQrhLIbyWcE7aw8C2VxEhwSaNyS5SNhMZF1bj80LMdRZWXVGmn4gVHmjwVP6OaX+N9Urw6WyeVP4uKGfo4FRZ0U+JFRb1io+xfdPilrqhlunyqmqPCLafMpsdCotpO1VXUuoFR5Yv5bwlKdDWRZ4wth2EJoSwakQgsTaESWWCwSrjJCaEkiNAnOFoqGKnKnMsiij/HBkSjiJCtdEjmIklbBTWHGFGih2YZx8RT5Y8VRJ+jmn9fFK8KlrM5fdSKj9/AqG8QqFy6xUW9YqPoU+AWuqGW6fKp+2Ki7Vu7U2ehUWCodnVuffpbIqSv5fGMwM5UcA5znEEuU7iGzI7MkVmRXMJMp78QTlnIEkvKPz5BBCgw38HjBUnnhvxZ+bPwZcbD9mP8A7RMsj9zg/JM8pGUhIkk7B1HUcS5ITtDC5UbHUPjkcMfoMqURA7CdgWCo8jsFyRYjcY3Fi0SWk4BL+y2w1KHUdBt3/B+DJ/2CZ/5Sf9wWilCeif8AcJ/3idn5OD8jyndpOD8nHH7s/FmaXBf9A/8AoP3Yv+8Y5+/BMwOL5n4s/Ni/7y96YohzDmfJyfkec3RW5+TkfJyDlDqz7Rbokow9+yJ7XYfgji+B3fByi3C9CGhwDjHCGu6E3CG5Akkf5sJJw8Rip1tOrul/UVFq7pXKj5vulX02RUeD/Nc6HFOI4EcRAVQFFDWRb7+gyHcnOdy8grllDLu2LRdiIkyTpg4ahk0kegiFrrGTk46QJuEtkjsQ0tEjaiZo+sq2hkMmpOALJUnIyalHgs8dYy2ud2iM7G0V5t818PBiwf8APb0jO39vT4ATo8x/Rn0TVH6uBUX/AKtS/iFRASBNTIe42hTeEETSyOBHGHIhJMp1KUj+VoRkoYmAzw82c/kR7h3YbmEI61Mj/wAkbXwRvwEDtwZGhwj8mfo8PmBzieFOjHtuxHk7DmOUYjPUUd8NyHCJzNC4OY5kR3I7ihJuQ3JRJOcTJRJI/AJkkkjZL+VMmfZjmRm+SNEuRqOXJONha+zQ4Tv/AELuPfB2E2YzMx+5GEyi8kHFqT2cVBwRl4M2hAla8R7wRbwt9Gs0DJAWglbPIlupEde1ZPc0vQuNJmTHocS3krFnokkvkxG3ew2dQQLhnNYORNysiTWdkdszKDQTK1sbKL4B/nJKTdfgaS1irtZqxvuSIbvIeySL5E8/YOVuMji2tTQD4WYhLMNakkaEKFkB8n4zJo/Vx6FZwf47JoS4CmhlHRNeoxf8BbUPVGYd/RAfsMvyTrGdQSF+QN9shoieZQ8HJCe5/A4GaNxORB23uKK2NEHJLCd4WMiWvKE0JvNmmxR21I7QTXUraiwyTyMnWRq6YOvOfQp8THwWZE4+M6blSz3pdxBBCIQoSWxwHEcROZCNjhOM4TgHro4zgxiUHhHcR5ISPcdmd2dmQN0L+dEu+BduYLmYkkZG7I+YZRXCFFvK4zMuLD7hDCD2WvcZppzwsjabCpSsuZ3mGZtLRCjXqxfj5DkPXHcoUu5WHrxTO7GozVxTS2HUEk0Y1tUGZyCAc0GTXAp61gt9GzFi49onKHqYhmXfLEpDGAICybDbgCIcm7nIW8ySJMMydFCiTk0pDiE9MK413NnjBDvYgyC1m3wIRJYbCjPMf2Ki/t9D5w1fl6ZO59iJJQK2hDjlnsIX7suXlkAOokCml8iezMfImMphubFlhIW+BaQWE6FnmEOeUrkazub/AMTiZYse69Am2qprqazaBS5uMmshAgJmrXDw4TD9x2TqKZVmZplzM3vLBGO7IK2MKi5Utp1U3FYyW4Fi7FlN77pWDOK8CF/KyQ2JkhnCHIFBNrcy0mkRKFa4FKi4kKh4C2Zm0Wk+TCyJSGTKSHqCGsxs0ix1hCSQJptI8nHMmA02MgQ10KFaiO4dEEEdqkhxEJYNCGiNVlIldl4QJCW5SycwCwi2R5Y8an7H3T5j0Law1dPun3rFcKcGHIhIQpNjIhpNZkELBU3L+iE7kKBJLBM2v/gzUZD/AAsLFUUDnMmk+opZpxISVCjaxDbgSSIQeALKgsHk3IAzOmSMJYLdseidMbYVH3qotJVQXoBlzotehWHl1JfysUQMVRWcAuQ5CYzIzM5ScS9cGQ8HsO74IbMy3YlWjI7MhszqxDVmJSZMhszoyGzOrNUUBZgzSGdGLizswjW+YTSz2OYcs5OHacZ5n7M/Nn6M/JkwaoOB8nG+TjfJxvkkzpkJ2Sdv5OD8k7PyM06W3Gi2D/pn/WJ2fknb+SGJHf7OP8mb/wCjhfJP/UvktcnD+RbMcMLZfI8uEypP1eCfgxa3ke3Oo/8ArOf8n6vDRRL/AKzLuOULd4Ev3Zy/k5fyckdz6hs5xyzmnNO1X9C3WPXMJc5/zgP0R+iI7P4NLI7vg5vBy4aKu8VnuTIXzmIbjL2iHtEkkkJkWdbsm2C4sbFKx0LKHZlqlEqcqLKV4soZbT5hNHlfwNpVwfSN2SEVY4DgJTIVly0OIhsQ2IQkpISRCIIFzXdEChV7WEEDp8CikRjd6PArMEYOyl9aoPAp+56XeZ9KV+zel2/lxUWX5y9AIwT8tiKLXl/VP18YRCHHy1RbBxHEOMmOhxmFDdnYT3CWb5JaYsO6H4z2k7WLcVcsA5JLcdw8ryYpJZMjhcxDcT7hyHIR3I7iYCTchuQJQ2S7GROEovDZEkkjeRYTRr7xnC/+CmNlevoVFjpzF9RUaBUWFuh1TyqfCPCXpJ2+l1lyPCVDPE9LvEfXpGf77p/e4pb4/Sv5r+qbvzYVH2qnwDxadfbpd3XpJcwwiEQiAqexDY4jiOAZOI4zjwFZCwLuImWIIkeTszMZsy7s7ie4nuG+4ZFyW45OE5Bcn2L1+pq3a+BUJUL606exUWlmh1TyROi8eFS9M6T6tPhlrqh2PFp+9T4/69Jf79/XAnwKS/ptT+XgVH3qnxWeJTa+3T9Sm4FR4RYqb33VVMVFq7pXC2ixlqn7GL12G3B9eg1RYW+9Oim0VFhZ6W8sWMlw8Ch+rizj4pa6JxdmZen0o8L9ekj6H3UpUyVHg+lb93AqLJKjxy11Ta+3T9SqqtR4RYvS6qbAqNHdK6W0Xui1Q7Msi9dLqsueSUQIbnMOK5mM9TlOY5sE0gxDynIcmERGFynKNBBZnJh85zCg3WN9xAW3dcitzsIckdmZZlMmdWWWZ3EYsyDJbkluxCmTeDlY5ZzjnHM+R3SwX8Wfixf9g7cAih+LPzZ+jHH/AOjLk/c/dmV/6P2Z+7HIvwZ+zP1Z+zHnXR+jifJ+LPxZ+bJltyH5M/BnK+Tn/J0qy9zk0FnO4Zmc0/7AtyjlEj6w06jn0AAYyAn/AKT80Q/0E+U7BL/pOL4HZ8YDUe4t7FCTQXwrTkHvDrpm7gTPAHyRJONvvUKmKi+W02Uq+pVF4VH3FlHhFio8T+hfQIHGcGG4CyTiOI4jiEQFsENjgICIFQ6I7ENiAigRZ9nAQ2OIgJKRCOAhsQi7sQiEQQixnhYwNAZEbulceQvey6xdnVP1sIKWkLDxyxUOzH+Cn8Ten8/FETLsmeNSVPOz8uTSssGzMiT8DdYMnDE1h+twJqjwQmsYIe+/og4DiOIthWj0NyGfVKXkh5PQ7xCvWFRqdxzTl4NFYtxf2ZHA9hO1E2WJHJJbhthnAyGzI8keRbZCYEXIcw4rkK5zHMchARITRKJJGRmhgViScLV3ikmqPCLX8/2YLF1HyBU1jqiw190/4iov7U2s8KhG+OWHgtOuDNHVFliUCIbJhCjlmh7DezmMPGLXVFjHJH7UZDUJ9xiVLaCJPfggvm8piBQHkHuMeHt5f+Fh3ddGaJhCPlzxQ93LUTlLFMGQjbHkhmG0whuM+37Ek4JDZjLgDFLef2e5CVecY/nZScD090h+Zd/4hXDbEs1C2TQPdDdYBS71Q57drHynTdGNyQ5YiRNNBZeyFh9M8UtVDJ/d5ESRC1Erw8mpJYQOqWWckWjiOI4iFYhWOA4ziIiY6YJzMSG7OzO5kjszuJbiYZlmJ91E81ihAluIXPPQsfz5nGlLqnwKdPYqLR8tDL+3pfuFRcPAognR5klyE/dKJyhYJKYhzy2GFGoh2yaH2b5xh4BY6ouDNA3WeD1CmT8kLA0yJg7zGh1GxSJbUaRHIetV/jOcuQxttqTxbE+1zCyZUefRQ2DWSy2zVhBfiTQu/wAmRMFN85cjdijT+XHxq6ciDSySM4IHwZYuEwlCgcUa5Hz6JQjdsojcIJUmmPnv6pX3shTmoO9skrNUQgisx4RaoZJShR1ozMpsM3WFYSvIeaGyVHiCxs8OZ3MxaUXuqjVSrhUMKi9Cosdoso8EsX9C8Kn/ABpsQqLC1Qy+lop/ypW0h8gX9jQ86NIVH1BUL8ZaosfQtN2wesEkrI/A3xX1ORkmexIVilsmcsc8nFiPI+gosmqzo/D5xyIgRCnlZPul/rsRFBqLVh5X7x0TQ9sPzuBa8JUee/qmzrxS59SBFgrFS1Pa1FPbVElYqTzphkHV5llHiUOllGXszTt8t9KrqWVTlRau/wC0t4UUCG5zHMIgR3OY5TkFwKA5TkwIgqDmOc5RsEm8SgRIwdFkRDQlSIckOT3idjIZMjszuIckdmQZLudWWGp2HJG1jTAc05uDZ7hf95+zw35s2RggrIfoz9mfuyY/zGypEHB+Tg/JwvkWx+SUgrmTtHD+Tg/ItNdkJFJvOB8k7XycL5P2ZJIZtfRxvk/ZnN+TmiQ0FzMZF5yfk/Bie4XJ+Rbk5xyhzP3mZxN5E5zeBJykTJs8xfjhH/QR2Y8pwwiO/wCMPnESaZnOcY4RzCIXQSbkkkjlYiSamDVEcdJ2FRa6oXwoxZoTZkTNlRdLaHYspuU6hUWxUfaIRjeF/nsY17zhOM4zhEHxHEcBwCJCShHEcRxCYsKENjgOAabCqZA4iJAaQQ2IbYURFAiggQIQigVBCIRCGjyMJLNofAsgkIFkNLGmJ2FhBZ0CRGPgllCZuqQlDfhvhBBKm592iUeJ+lQ8GXomR7cbTcISFj+Pelr5eEEELYVCg9DhRxsMqli6nBhdh3ZnXLMi7E6N44LixQ0ewnicKwFga4WW47jqeGJcR5x6MFyHMcwuYmCO5AhuIl0NkSSTheySSSRPAmhWMl3al9n9CwT5IqPKqrVRaNfuh+pB2E42st0M8048UiPK5iWqRv7B2jmOxGDbwTTSzK5I1c50vHLKG+AgLbGZ5240pCtKWNgZGlm7f36ASL10FUW4/dwK4Q0sxm04rdibC9iIo6ICSwNJIQ0IzmLSPA9yYBLw1DHYVdsRg0MXYSEQyL/zOl+Z90tkcBeib3sKh2LVDL+xBBBA144QiFsQ2wBLscRwHBgkCxx40uQsiQIkIwOwubOzO4s7MluE24mOYbazbxJciJoSPsPbg+If0GZIhUeaKi4WqLS7tQxBUxUXyxUWMt0M8o5nUGZcjY9lZP6J2dxtwUELEsksNPIjLVu/wTe61PHAqPFLFR5oy0HKQRn9DOeDO9Y5+BIffoQ6acmJ1gWpGgfCMizpMIQh6thIy4G+9JzQlCSHJ6AiVjPS3wpGX0Ia0xZkSPz70uzt90+HUCouewrUWMtUvuFR/jTcFQwtouU3RnDzKdVL+UTE8GWe1/QdU09iouFml5tP+IvRl4tVFlX5AsFYLBv4sdzV+CLc0D+QqHC2jxh1zSwglCxWdUQfa+6bMUphBIEnPqxfQIkoWDoFfIhexQJiSWEECSywIwgNjv2C8bCQGcDnl88F4tDHb+Xp85USo+9CosZaoZr7p102BUWuyyi5TsLMHjc+6dYvQ5niP4TzYV62Ml1kDmOMcY1AW+chzHLhiVHJktNTWIo0QIaYhDCnRlYYbMhsxEWIURI8kOToRch0Z0ZLeSeobTRph3ud2hmzaqdcO8HIWzQZJHyFiEnoB2fJWIIysJ7RwDgnDI4FSve+lqoNqOy9nD8s5IqrPCUIyh+FhVvjm4JSvQLMTOaco5ouvI5RzSe86MWfk7IhsyPJ2YTyHphOc5zkFO0Tao5CUSh/y2FhJI3mhUXOixQzV3TqpsiosXZbSW0WMsp1d0r0Coawy/gdpi9A5Eto4ziOFC5ZCGjiInEIiwqPciR2IbDQQECGxDYgNKAk2OIjsR2FSshLscRAgJmFyRAgQhEFvuQiEQQKMYRQlutuLchRh9gqdZR4x4KptU/pb0/dpj+ulP6OMIzxXioMR7AjCCEODhECOxxCLGo4DhxtM9yMXM+onvJbzVNUKK7BQUbjOESHAqBQzzy1JHodGREsiBAgQFxwFvHMcghxmMoIEdyA2QolEkjZqbeGcJJPKFjJ4wqLv4RccVs0hUXyx1S1d0MV3VLBUaBUlil/l6V8AQsfqCpNqo8I8dE4u1W/JzT9+n9vGMucFfsvqnw6CSeI9L8nTd2p+xUn+ItU/wCRGEEEKZAgQICPgcRwYguUJBpgJUZQmCBn1I7szRyHckJbjbcWF8VlunIJSQ9SNxG9HsPYZcT2onEQZsrX+Epurr0PvU3OjxqHYv7UMX19NVRcPGpa+6fq0+AxUfUFTLKPCPBodjxKf0c020x5/K1Pgvql/Z9ICcyp+Rp82n6QqPCLXoVgr6WVRaFRYuyyi4W0WFoqLn3T9AqE838KPQvQqLXTGebjJJPgKjzhUyotLVL7qfp0/dFR9YXoh4R4yh2Y/wANP4Oaf0NyScfwcU/p4xnC86+iaPHpLxafIio8im10FR4RbQ6nlU6hUWhUaKV6le6wKi990u/oVFtuxf0MlPYRInJhm6wQ9x3ncQ5I4xRI8keTNaZkanRnVkNmTtZCXYjhRJhEHUjsdTIsZbIcdR2E9w+DM9NZJ7iQnuJbhs2JDmnIwMutJrLI7CcbE6EjgE7RK0BONkJ7RwonYi+bFoiIOIcbDuExCNKHajWBah4opNVh7Wc+Na3pPeOmZXcnuJbiW8mEMi/+JyTknJOadpL6OSS3HVnRkPMhDnFOUUlwOU5BbhHcTHMQ3wQHbSdhvkFR4jCaBlWE4WFtN7unWKj6hYvAtpraPGMgVGrul3dCo+4L+hMnQgQHwxI2ep0Euoiz7IEIhDQTOQQiBCLYzqcELCERyEECBARAigggQFSZsVZPB9YDxMQSY9iCCBA0MvaE0yCCBunUjPUS5YXBmRMjpuWUeEP8IsWyYzz9qJHle39jgTgNI3RCMkOms2FGN5IIx/XxivzY2shGZ+QRgiEJhMiBCEl7I4jiOE4B5TAQFXjOzNQanNOaQKRpCT1ECN6PaewaSTItRpG8PIiVjNozqzoQM19kcKOGMhb5yETkwTmICa3HA6nASSSNl74JJJL3RYTR/nVKj7Av6E8hDY0MglcYXE9hs9jIhoQxXdU5NjWJmPiJTGKhIfNdJKjL0S0L6i2XgIVoikTfORxYUxt5IefRFpsFxfSaGZm9DJYsaxecGrkyAD55wjNCdyR/R7Ct4zNNC2UkXplNiW5u4aNzhDqcSxnj0K7LHb+xTR0S/cuNsholL3jkCcicaIYWRiVl2MtbhUfg4xnbtM3XfQSMIyRPAF52J+JFMCpmZylohU5Q6H+u8cvWmEKz2j37wbPuGvYlzWzWkYJEcmXBTRAhEIaRBSNtEDVDiRe5hcBE4MFcWASyIIgJO7OxLcybnIcjCcokWEUI3EbiMRT2onawDew0DGaSkpNnRjc9Yv6PFLF0OxIdk5knQZjzRLPh7IVXYeFh/hS2RuPdDclcGSULgdTeRzehSPk6xdhTMuOiQeSG0eo0Oxkq0WC3zMyA3OWCKPAkXoGYk0uJAlkbHKeRCSSSQ2RoEpNyZJLYRWllBCVmiJNS1zCzdRPiLleEW8fGPEUWIFDnU30KgLDsRvvDBWzMs54NZhaIHkn2skInHyVF4fl0JWWXQmH1B0syGrLLBvSntpErtb5UMkNDjMWM5xmQEi0IKkDc1KL6dcLcEXDcTPGEqyEG2QalCZLYaGY8aEKEk2MiVhTNySgJuMzIUjkS7D9ISNQl7G5NZYWxURJDGqBYtDltNtKC4IiE5HGIV54X9Cz0nhDsTjpzGIljkEZi+ESoEkdWuLBlOiVwYrYYJEEogwOqC+pfrumt4rY2I3aZEyfeBLYsOuCpIF3DaVmGjRjQiQhS9gvQfn0fkLGBcyEywQwxNh4Q1STLIVEFh4gvx0MU4TIhONfN/ZCTthAWk8zxgW0zyFC5LRYWGDbKF+DHzULTMiQIvCFY7BzNuh3YHmoENKIGpFoyAjQhtZjIZjpWJUOzB5gTjJ45mSx7gkLvkTYjUB2GvovJbDNIQRDfYyJoyBMHNMZ4JTIeSLSYWuhUWCzPBAjOgZYoywEi0sXZsziB2LFMpVc8htkDNPM2GN7+SBflC/o8QQ6MS4mQ2Ys/LQ6M6s6M6sbxyYuLOjJbiW4Y4ywkt2BlvMoNgTHcdGZdjaE9ie4yfQXCgo3Cwzw0ewPNkcBn4FIN6JwC2TgJBrI4sI6IGQBnl2SOFHAidpmRuA9kC6ntFm6FizPYewT4nxhBkaUCadgyqoOHHbgG0tXgtznYfaAnQdxk/wCxLcdwnejOrGaNRzCW4nsyYekFm2Lwjozq8Hy6IYXIcwmSdjmI7kCUf44SSSP8VEF3cVH3FmDHIQ2YVQNGZpIpPYmBKQQGCA0gSwaDVzUN4CyyEhYWuhY2MjYZC0g4ulsSmnmMsEVFcQjY0JnI5JCFjLVLJMdpFpED+RiFJYecF/RazPgIEDQr+iCEQRgkiEQQWYJEEFjLRCIEIyBBCIwNIv7YNEIaC5+iCKEYRioIECC7uJUXRLIjHwDwqPGPDYQRh4dUgUqT0IxYXfxmQRjb2EEYNDWnvFQIjCEKveIETgOIR8ZA4iGBHLwQwPcwjr2hBRuEt+HMzCy4JHCNAaBwEtiexcGJWOp0HvECKwIRDCiQEyIo7kCAmpkPsKBJIxTJJwWSFGDfdI4iwRzaDSkksLGWKXUmo+mBCxsBf0WeBun/AAoZ5oqLlKwsUWUzsXUrnXopGxn0deFajxDwqPCPDUOzPHwl4HVvxc4TjZSPtUMf0tfoU+FVFRYuxYQQJnEywgzJEhPCSECGBURIkSApmRIYjwncnuS3GSszmOQ5CN46clJizTGcwPA4CQlsdWZnbHQIkygX8Ej6DGy7aGPwU3dxUXy1UWDUVhbQ6hd6p09ekRs+5NF0sof4B8nVHhHiqixnh0uc0W+3902YycPseh8kj/OqfoRI2Th4GMkjGqLV2NjJeoMfMWixdRXfdM5hUWhYtpIdr2kUpKi90WKiDyMIRCIDUKF/AwbP0DprPs06exUXix1RaWcZHYtfeM1KRX9UuwXoOD7qbgqPDLHWEknhHjYTha+jw/Q84Gy9v7JwkkbLBTj92pVg8E+dYZkjZ9SIodnVMvlFJmZmY7+VGKYy5gTwkZEkkl4XOhmoTJJJHy9CxdtR1Eqqle6LFT5tSL+Dpb0XkejUWLuhssLHVFtEhvIa/dLG2yWSyWMxLJZIknKJslieDlNF3cQxvBswm4QhqcxzDAiMzmJQJuB37Q7gSSxMbJ9Dv2abAqLHb+8E8dfYeCGffpv70+fQz6UKh/X0ro7wL0JcLKHYsp1io10+EIWDR+4VHhFnpV5YX8Fh/8QAKxABAAIBAgYCAgIDAQEBAAAAAQARIRAxIEFRYXGRobGB8OHxMMHRQFBg/9oACAEBAAE/ENLjesmpGGk6/wCGPFsY7HdnwH+fciFXL/qPB/guXxfOf/w5/wCu/wDAhGxN4CUSmgEolECoLqXG8w48O8JMfwzZ/ndGW6BRCuF98Eg/5tkMs6xemX/m+FOTy/f/AIID5X/8SR/+B8zjvVonqMAA/wAHxWCzxf8AgOtVMqGCQhrXHmS4p3NFyyXB0JcvguGFc2VSUPriEv8AxGmZesvTmqKzW+C5cuXpcuXAq7rLlks4L4b/APh3wP8A4K/8Vy//ABsz83+Hbt2ZZ3f8J+ecnsmz/wALBQiUO0N2ZelkxFKYesBOSTpGfvdDhkcivbRHVJRzQ6+YMwd0nmYjc6CjaPJJhqHUnWRDpekv6+p32ef1MtLEN4tg6aD8sG5Y9cg4EAUGQnKDXaywDvAdZZASyXw1q4VCFZFFV4yo9KBzsuELLjCYf9Z/aSiSjk9xLm9kxW39MaV/UQhKDkoH/kmesXwxdSYJyxyBEEqkvvEty/ME2b8x5xfmHUJXrBNBBFJSWS5ZLJcuXLlJSWS5csly9b4b/wAt8F6X/iv/AAnHfCwg/Vhx0Fy9sxyhxGv2Ys+KbP8AxVC8k647MBizuQr3zFqdxDz51BkdqOG2N+j+IWlQ3lT+OVknv6IU3n1OkrHuTuM77DmQJySmLeZKuSCFwt2Y67plyHkhT5RRsIQRB76b/lKNkfmXlfPKcvZGFf55RLpudL4w6T1FSgvxA7pKcyg43LlCgl6XLl8dSpUqViUdJR0nZT+mlzb6J/TxbdvxFN4ZbrO89s7L7Zi/6QDb5IF/2QJuCs1IgJKtDymDb/pIfxRK+d/BA3/mfpIc8R23qYP9Ecdd/E6HrldU1feUvD0exi/zITjR/ule/oxLZP5Ic+dRHoS6vqiDeSkXXPdP2DKj/hmIWs7GdvBIYrrU/sJ/dQ6ad8mWn2Tt5/bS/YztZ287CdUx6adtOwh0M7X3DpJ2E7SdpDqTukOqTsp3p3pTrKSnWU6ykE0ZiHeHBeqUczeVw4zgYz4/864L81pgJcNDQrWpUqUlJSUlJSUlEpKTsEeUESfhJenlCpaydJ2iMGuCACWwiS3lnaz+gj08egnbyvEnJ0lbkzPdMbBtsh1/NCOkc+cKLDSORi2Ke0SF3PqPX+p0Pcg9vVDkx7s0mCQ5hyzzPzA95UOV7iEiZS0wqafVKg/Bh/NI9D3QYvP5GHMJ5gsD+fn9vBv+pE7J+Z2XuHQTuEpKa1y5eikpqCS5cuXLly9Li8Fy/wDHj/DUo6SjoTtk7BO0Trif1U7SdpDoZ2s/qpTLt52Ueih/CTsZ2Mu5Z2st3Ep2MOhnYzt52k7COgiu8duPTgPWZ50BnlhNRXlhLiAHBKaqiULcXWzjWDBkXnNv+aol4CDmsqGpoaDL4L4L4VRAO/ZgFMEcfKW81QIflUA3aEEEnpcNHrqogh8kDA6hFSiEHbHaNXaHUEIjNkY0D6DG1A54a2NBDZohxMTJzZ3EoNz/AAFa40olOkt5Z/WT+mim/rln/ONt/HGZi8rlA6B7jL2/szLdeyZ/96KNyBCbbUQiGXqyooiD/wAiUBtXSpWuSiUS6naGoE7dEOh6YrVemHP9c6b84AsplU2tDq903OKxeRfzE0mK8i4OcdBP0sLg/NZP74if/Ug7Ctgnu3gjWbrBA+b4cOYe6Jbr0xELj4Z2cargJJ53tn93Oh7SY7+SGyfwk7KdhKysB1JWUlZSdwlYiVlYmVlZTRWUlJTRSVldFJSUgJZLJZBJZLJZKRSPSyuWPBK6iHRROslUg6gljlL6YczUL3cpqmzvYkb51ykodKCj/PYBsP11qSpXBUJcvhvW9bpG9S6i6jXKYyQqgxWN709sSiB9VYwLECMrMJ+CXujCYcFToIgjHCVMd4l25FRlg5LhTFbmc+aROmcJVIjOC4ZUceOUrNOvgD60rzKwGymkvkKT/EzVBbKKbnSUfD/CVIaUaYNYWw83E0bdw7Q/w3tXPdyRXFhnQgEJZa+v/jVrRKlaInaJ2p207KXbn1P6iKb+uf1UxS/rowijBnYxeVypKUFmdp9saaprzL+T70Pn9wL+UaefuZdn2wLk+4p/KfsYDz9p3vaUt59zy+4vz9psr9oH/wBYu59sA29k/u5V/wB5+1jf/rCZeh1MjqdA7qftIf1IdF6hCdLOlDux3Y7sIdiP7aGf+6D0JfS9x/vyvnncQbcIyg94f1Ev2ha5ToQwB/nUinYe9ncIw0DW5fHf+BdtFwBEQkeTpmMgsYBxBtAT00wYS25sjI2eXKJLSiISkh+0Dgi8MipyK763Sp0oaZ3pQbHEQuoyOu9SvL/iJFskFrW+folpiL0mo46gd2OTcHJlB/wsJI0tN+qoHwvJahbxEG6DMuTZSv8A4F/53/xVK/yHGErVJUqVKJRKf+B0tQGA5OoQ0YTKwErAwikpKREGXopKSkpovRSWaWSzjvRdBl63DgUPdAhoyBv/AI1aQIdL1Q/dw3sm3Hhw3wMVpfof8StqfEAWG5IgAAAbH/wr/wAx/wCg4zgqV/7X4rB5iOBAQyjAMyAQeohIeJiTa4CEG9BkIXfIpCV0wTsI9YgbAlBWYLkndjFAAylxIBFsHMqJ2THlA9CdCilECJwc+GU22S1k8sJczOsEOdJiGCsiJd/YIqZsToekR5ek2t6Q6XpMtK+tOPNuwlRaAguxnfILsJTrBdjoUlICUgJco/enUloI7FzUuXwXpcZquUy+qFvCS5cuWf8Ax7l8F/8Aif8A3n/leOpTDR8cu70IeVv1gQ2PVSyjCTNclbxsNMjswemI6LUfqivwRmNKjDwoVWjRKWwPS8xLJUKBA1BtSn40xpRKIT8UAidEo6aDthKvB/JO0R6CdhHo4as5u4gpE7PSVNw4upMzIAYhvA/MpC/XLCYtHiGFCIDa/ickiPXQp5C41HJLh0kqNk7sV2RW9CR4JhyjJyvM7eXGkqisZ5Q62F4X1jFNnlogZdoIZgOxniwfN+oJyZ5NEbZiC24NY4le7BtmV6EhgMq5ILsZ2EE2DEuSd6FtU9zsomdyAZWVlJSWSyDLlyyXrcx/gGXL4Ll63wjpcsly5csl8d/474yY/wDI6E2MQ93QENDQ2RYPmsEyztEgdN2QqhRccEFCHAULmDZyxbnN2ISXlKhsnNiF9MDkRhKLgjIaV26sdhNMrXLIS9SU/wBB1Q9siqBnWcryiVSCtjFhDL2S+D4cuTgMI/PBig6bIitI1w8qbOAFS4vUemGpHi6zOD5eL0tL0Z+u6HD+p6kNalDbvAJUqUQh50B+IlOkp0J2iU3CEVnbTsp207aY/wAz6J2E7CdppjEwsfKs7Mz3ulLZo6rycvwS0J3mdyK9Uri5uL5Us7XKHdFBR3IDVphwMw/FxTmJiocvhbH5MR6GYMGv2hK8szNshdkSj03D21DqEzbIcypXbEUKwREbJXWQc9Su2V2RRCsMrtldsroJgYC5SE2XNmKidCeMeBAm26GPKHZF9KdlECEU14Najs2KajuZ3sQ5oTifvZf+DRU6ekRQfTDoM8sH5zrMd8xfOPNE7Cd2PQTvE75Ec5Z/ieN0IzEO4w03zy+xMwYQNBBiuDkwUJsY4uSF1ZTZNVBQGKwjKySXoiXYD2QjDlhM0BQRUdqPEpaMLpWIEFBaE4mEiKHJt0ZygmXkE2KDbg+JPi8KrysrT2KOKZyuCp8QSA7PSlsI6jcaB04RT7dbiylX6Xwup5wKvPnwWt6IaeVnBcSiu76hw0PCHxjg2MVqbVrenyX0cFz9L1eFOmW9VDgF9ttB2+jB3h6oDZ0GYa7yoYRkbOwbih0+TRgHnj5p1oq/RpSn654XwpU8XC78nhWySXLNHQ8Js4NyZiYhWlk3vMK0qUSsiBKJRKISSjadidqdkhqwnRTPsnbTtIQGjcg20enFyo5Ksg3EP87wYd4HVtlBGYKIWJYKGDLlww6X4lSd6StGxzmSARpllF6umNp3IaACuUcIEUnUleux7KyyO0N2IsLgUBS4ONd2O9VitKCWsFsy0WFswCAF1SbYHqLAlVZsjI7dU5LM73m1ZDAD2YOhROziN/8AXMOBVwgAm7XlFe3hsd5OBjw6Q1vdxQ4CpHOPhHBi3ZhouEheEbj9reHH9PJDg+7+Jha1H1PJ7vqOagxJVVQdSOxpu0KwOyvsgakWmLp0TFqH9U4+biE3HzXliJtuPLQiXXSOrpOilbu3D9vh785EtcsijSNYcGRNjQZcZYvMsQdGLShJrteIbRdLSOOzgfoTbqy3TKosf5q4GKaFuSsmvN8ELV9c7fVP3ECbbM0S5RIu0DE5Ii48qVQRpMO6Xj+0hZo9Mw39MasHkjg6cT/DDmT/ABAP/dH+FmF6aSVVfoiJyfid19QYwy+3uukMBvC8p1oYLNpKrTu8TkNwAEAYIhuUFyIeYJ/0jXYn5jlAzSApGz9fZigRPk5gS4zMQ4wYIUjA6yxVDAEBKSkVr0/1gkBL0N5+eYn0MvW4K7yfg4FnzkJcQc49TvRgtXQilIdSXwDacHyU+N4c1Of+KS8X72QeD0f9U8JFyWRTgUOzoNbCq8TLpn+jQxcgICiHENTLVEzjvQdA6QUDoQZCiAA9msVwYeXPguBlU8nBcts6JgaKhiKoWyXL03nQZazsaVnUJ5GhS44RbcHAHohtFmETQDo7wmAezQdcE6NNp/gv/BeqPbvAgJR0lShiDuKAQkEgPAwJTcluoCmEr7ykpESkFxQjxEolJQxhWvhlJXRO1KdCXGIB282dtLeSVNsYYwgQ7DB+Rh0cpZldU2qEHBawR7M7aU6uJsKTU7aYILokj1YSQOVugsy5PvHJ3KWpaHPa0QlfPDAhA+cstgzDHYqf9dCtauHbE2K8sROwHiVVXqnQ9M2YrQVNVKsncU8Jvs/MWm8+ZagW3S+dEOcPc68Ouvc6jgkut6JUZ/EkTL+QhU6ugsp1gXGRmGSCawNwrOdr7JgTdiD8vRgzn1FFz6hTdvTLPJW+GCFhl3QyYh3RjBD+0gtV7Z2cKAs2/Vh/OT++nbR6hAHc6Z1ErKxZmxsE/lJcNCyNege1Yu6loEsyjzDkS4lrrPWB5F8kGBoGXeBwCO4xQOreIjnyh6gkMZHJ5UPFQaOhOY+nhfJT4Rwq090uXpcovwhrcrVuiYkuMGfFZj4pelxnzXAkqtIlxcMp7lIOJVwwaOezUmROybESGnxMcP8AxUdwg4fgPCZ8ghwfAjvwuBnwWDo6b0boCbIjXnO07XPRUL6l5j8FMuiD6zt6no0fFPxDS+DCiA0fkhNAFWIOZCguptOYuB+36Q4WfH8NnaZ8IRmIxUUqys8yXSfVgvD8EzF5uLOUqy00KZmFTWZtfAQZGaCtLyYqRLDPEIQdISpR0lDO2TZRswgq5J/TTqeif0Ep29UUBceToxbf1z+hlknpIQxgVXSyXbmNl75jr7MC2H2xXHjP5nn9zLfyQ5XslP5paaqs+o2hVqrY21PLHSaVNoJvtSY5PK9BB7p/BMgixyojE34Wttph/wCIf15k2+pn/wBEQ2Cn+rDpfUeX6oc71zJ/rhFQ4gtiPJYOZHLvNV3g5sLZXVFdcnMZepN6yXRKJCcspGxZeNoruyDcOLF5i8vvl4fbB6UaYgxKwAQ/lofzE7D3L54d2hvDSogGK1gt4lHfoHcxe8+cNpwld0Do+k7ToFEYaxdhBcHIkOt53pSUlbksQ/zWGXgFeAg63LjpOt8RhIeAX4J8NL4LUQ4N6YB36sBrDvOafBA4gOQEKnAjwW0ZX85CXrTwyUuXGAiMQIKQGOYURRS3LZ7haXPm/qGpPlY78LhZ+f8ARARlBjky/EvRXpDxcmwin2XFXndYBsSjQqbCWdyJEJvLVEMJLKwESkZcmGwwUzCFPlm04HT90dv1PCa/fzw/Bfjh9D5FwvqXzBFgq0xHx5DKISKrG7DSTKmsB7YOBft8yXo6J/P+uEqmccDNvy8DB9ZCIBVAIh4SFttlEqAIPa4/kl4e6rdjD2QncZS29r0TkZuEuGAqiJK0mEIN72lQhsqIN5gLXplDAQ7WAI/EFwCKUyQ2fVQVJDExKIhHTASiUm5AlcJAqdidlG4CFfojKm07E7EYCU9MxI0NdEEsb4H/AAtlbfLPAkY6OCdKk1h0Zh4DW9M/BPjmtaGkgw12MXzw0Ja6ElJaFuMVYljHaHdEwPpoz5BqaOj4R8Jr9DBNyMaOSJnG6e9SsR0ZuoZLfUNpcvTMe+L1+BeV7xobpg9Eth2wwjC2LZ6zZ6ACZi+f7hpelTBs2+CHcVb6Aj1pU/bGJq4O34uWf08x4OD5ufC8O9+uYMuXLl3xHo4T0fey5cuXLy6GhzZIDrUKzGtqdxYkA5jpA7Zfa8Ksei+yHAsPd+iG3APh+4KNQiYm3wM+DCgXHxbAtrqI7CN82EfsBBsZvdBiu7MhJktd/Aco36UfkyjspzY82jeYY292C7aB1YWlISXOLKRBvFK84FQVzMBAYwTsCJ7TlZAqqjnFKUBGmZiyjmERzdDrRQGwzY9cjNmnWpKIJsUq1Qb7pt4dGlPII0qQtILEqt1/xXFgxW/C8rgw6S0KhhNZTrEwL6RYURKwOgDvGgErFNIvkOhMpPyKAqUlJSBTC5+eVgykslKsdmXgrk4KSU3kVVvfRYufoElJSV/IMZUuWS5eJ+l2g6Ms0zqJTB8XlJSddY/UBr83Ha9folkcGpyyjW9/lixZPVtg+KSz4GAKCXLlz971IcFc3T9Ri0ywuoDggG3aM3j+zYYgxT8zbrcz8uYF28OYf0vh/a7EvgOTtfLw+j866oLUN3U5Rj2g+2Gpcd/h9w4Nj5+iGlaD3fabOB2mTcDDkhsDzIqqFpo4gkgRm+0bkABqJSQH4WDNLuxORC6mHuXbmxO6LzK/cgnWhYQHuWI1LgvTMy4pvCIiwVKvaWMXCY6trguwLDMORq/OLNUwfch1WORdjQIzlxvsHeCj6I8Rkm4kgVazEBgmMYRjucpL9lsGD/KPLY/CcBn8EWqbEFIV/wC+A/ljJv53hzd9wmy7N0pH1q9iURv2irUYFxUMEM25Iqf7YF/0gOqFfLK/LFOftA2e6B/mlP5JzZjDuxttK8LnPMGXC3G98Wu3+ZaQDenr3tvaXoA2YRJ2xW4DZI8hxt/4h3OVcVVp+Jl21Haep/TRV5/BBB0OkT+HDuUrGyDNvCE17gvqV0wuFLHV9kUbfKWVqmJe+I6brnVDgYXY3CRZ6lgkOb7CKKGWWASlMbXKB6a/bLtnMQJR3aB5LyiXFerQdiJgdi90t/6IU3fsi/4MQS0GXTzZRvWJgoJ28F/6RzgQEAOp3iV37ISCTlkh7ib6tl2UWz7lUsQ/kp2ErCZueAB2ysG+cs0U7l9pTRZLgPbcuWS5cOvp/ul6XpQXr8Fy41LJcp+H6MNbjXep9w4GUdyDwMB+mYFHBsYKHtw5+U0vUZvPD+DMA4R7JVlTZAIaEWMM2XBaFEQZRNqG3ATE2aIXoJW0zLYKLYiBLFeyK6ldza0hAFFQAXlBsoWsBG5bQf5FhoL2PN1k+BKq9Rq0Exb+4bEz3FcSqLEa1rDePd7lGUDINCCTFMNfMiuLW0vQjzisPdhpcuJPDhDiReuMV6iPC31hlrbauUF+e9kWYLthL4Di+IXo7f3Zy/S3Lx5gJCPPIZnLhL4f1wmk7YRkAjuMaMyOhFQcQShlMK1vYAiy2BqDUQSjVj+rY0Ezwy593tBhklgzUdF8lxfiIbHN9wCdtO29SvkgGEjHkMDBTAObmzbhk1FYAUb2X+yG+0uDrCZri/cqinrNJQLJ2n3PL7ZXsszhtvnP7OAsB/IyoVIxqFIi0oOHMHliAAYHFg3xv8keSyAN38UQFc38ELS8eZUEExox5dPxEAOZcI5pgwlMfgiHDeOHaNZ7BG7Hphl8PDCnNsuS+g0ToMjkncYp5Zd9qxYy5V4gdkOxP3MOyYdBch5RH+QnZ+52vuXTJ9ymoJG7JqP1s6nyn7WMsb3rP1MzJfzZP7gg25RgWMsBN8et+ojctAdeUIGco1gK/wDDGVh3lzrP0EOxgHrGIBHqTuQkNCdIdSVbiD8k7hBvKFW5KdYkeC8pRh+YJNwXJwlM2TIAQU2ZQIfKFAUwJMOSDgA/ypBxKKR5jwCz7pd4utXEGBKobsFUYm7XUJSbjsAsSmFDgQifpLMqJB5/TMr9UfZK135gzu4fg+EzYdyGoxz+K0bBYx+o8iNSgF+SO3IoophFy4MUBvxkzN5HyBlAQ6wOgZQYplpC95VR14NL0+B+ozKG6wGPv4JZl9CFBAyxcz9IbtYGxS+C37+RCBmLauS2bqKN+iWOTEACps+/7hwIH1/1gXyeEbQCHqHLWix/R4DC9mejQ1wUNeF+4R1s8NdwV6VKjXpiNDTKdlMuhtAgyRHA77IYPAzqLPzDgth/Vhwb0V+PgZ8V9aOp/EQQqJpivaZBK0qIQZeYa0SiQ0kdJ2ISkpUH3EOmj0oAiog2j0yHLJ2IqFXaPQhHzQgvQTZ/4zZ9o9npoaLEFnpQeIzB0Q7IYE5i1CS9N4UqnuXgVu1dIvyeG9PodFSjRj+GHAHF0nqsuXLjISdGNb7wSBigMOD/AB1gHTMesP0ozGO8DMFgHm2h6v13UZYxdOFLIpHAFRkpykAl8zS4lC1WFBtLhEOrgaRTQiYF+9gFkc3ga3F0r8IQ6glbVrPIjFufOHS9WJk7uAxMO8CuvMwVnMsKDRmx++Zs1SZn3T4rg3PHARor/Tz/AIGrjEviDQloOkcaVjs0pb23+BwVMx+8cPrqDbgN/u5htL13vEXql8GXDdp21HT4M2GudPkQ4G9R0eHAZu8ptjCLPizYakxfkmz/AMBrm/EqB0WEITImeFkeWJ8KEX3CIEdpY7f4yARsBLNLmalIlarHR8keJfA+EQrS5cXrjtO3S9FmKzQph9h1CL7cOdeJ2GyaL8xixC9SXDQYqW/6ZRBj0j1YurGwgjywnz5NsRgFrcAACXL0defMv0MRApLIHcezgSykDQSNgeyTc930hBlxZjMXxUQXJiKC+kYpGnJOczLLfZYcA/Z5wNVlXmR+ol6/GY7muXL0B+zvwu/A+jhDZ+6Grox80+CHBve/xNR0XI0jS48QLg+EwUHaDoxjOGuQasPrmw1qM+RqxaBL12/E2cH2zZo6jZE0J8o+/wDwg1FkrJAc6GiLQ0q5vcwb/cbscdZtgnmp2cHOMP8AJRqkQxhK8wf50XQ96E/uIkyD8zZxmHlp+YfzE6UnWENok/MRMF8ukAJBHb7hyn3AKgqTtZ0DHQfcP7UOunrC02w5z9An7xMm73Bd0fmDsFsge/xQOyfknc5u9byUMri3Yd4bFQBbnSEH/XLgebZDuUSgDKYMyonX3XGsI92wPHypVWPdLQHDOJsE9sf5hBOb0wYGZuUyqDulHII6QMLh86MBpEl3bIopaOdP5BBrr2Q/nJ2cE7Lmd5RNzjYQmu3MQcZzlAQq7gElJcuFa/VhIGUikq+dKreiBlJSFbxMS6Esly5cZg/V0I6Yfp2NL1Xt/RwWSqvWBCMIQ8X6hoac3jqvRUeLDg+Iw14SEEZUPCbk6KG2iznM5jBDVnyIS5cNE24NxNmhp9k2aMNA2aVKn1pkEOKv8jdQgYK0qVDlAe7qpAgA8ENWAqV/KQ4MVBgdaiQQkIRqD0RX4mpGGvAzlKqVoIiglobcEQNQsOiYhHvzAjgqsGxd6sGwAqkqVAQgHZIIrP8AmVHTgNMoagOhBYDdDXTeHZQ/gp2PqP8AAQbY8DwYDHsBMkDAlzJWXXXaODn0Y9x3vyVSiS84EAkG2EgW0Fp5v1FCqijdezP1LBFj7Tfbn75e38rFYBpiroyuHyxxsROXelgbaNmu2oxgWT+qJ33on7CUH/MO915HO4dL60h3M8Sv/jA0m1ZhTz+tQHnfhicvyQVywNTLZZEH9pdNvdg8/sYrGFzVYa9wX1h/aZYbo7K9ClhciKCr19pW7pHZQMKt1izm9JY5iSr6Mes/AmcPyWTNk/ySv/qTYJTSk/2Ewy/oNBbsjynRmblSjf1To+HRgcn5gha3Nidb2Jbse6ef1PJ6YFs/hDCK+mFWjqw3OWyS2YQIWqHRxBClzYskatsuOG85VZ2sN2kG5Ijnh1CVnclYNcxYlkpKRBr1iwSyWSyMvEVLg6Kz2n+Cv8JKjtMB7kNSUpmbJYpZZsm15IPAz6nCbh8NrcWXWoMufBY2Y4yWSuEI1uxFJbpcoYrKhktkahV3Qn3A5U2SK4wy4aOKCyEruwyr1bMjjk76hPc5gP6VpetA6Z+kdRmuYCdnc0VCNhspXiOCWLGjzB1qLHW/2IbRjp+l6w4HSdpseIa4edMQ7ZfBs5u/s0vVKvhqi6D6YNVZZpaiCioRiO1YCPZ0yV/d4FhRvavwQVo6F4P0tlw0yjrxfphrifMTAexDRiXKPJlSpRKIT82ASo7RKQPwwglHSdtO2naJbwN52k7WHSTtI8tL+SHRR6GdOES1CvaXnP3PP7gTrA3POVt33KfyT9TByUdtxMG6d5DrYdfM6jYQ/wA4R0do6Lsil65DKWej0rSaeQcCx+gl8GXjjvwuBgpu6Dwb8dw5cHwmXiPzhzZmT2KJZA31hVS7ZnwOiXHoxB7OZ5JcojrmYVLg652S41raVrzLOpl+5y1uH4z0ZY0Wq7hMBEyr6s20r1ZQQsMMtWWX4PEUZJmsI3Dh0ODGjn9sOD4hNpwfLzLx4GrF7/twqxfvejrvuqfMo3qUvKpnYO9shmqABKm9X++XqZYc3WQQ1TX0/wBkNQJ8p9oRho686D0EDRi1N+XPwuoTiQ4Er5cPNDUR46r0+ybIStPnpt4Phzalf5zV2grucNuR6StRB2nY0uLGHL14F6S7ULFm47M2cG5HT8/cvW4weD6e2haI6ORAYLOcCp8hNq9MNCMKbAqOts6EieZCoV5rAhAysoWEoJEIjnenzMUCqHqMS71bRfAFeUIZjFHtrbwEMS9EBBZGTRAeq5TMpyoKNDX5n0hwBqMlao9X3NpwOl6OfAStXaGvyffD+s68IsL+7CkVBrqCLBZuRuUMTTciug9m+eAgD3Nwqx6cL8l9oaXLhvyJf8WqxFn3YcBsPSTbhWw4d754Xd44Tx8TZpWmP5TbwfBZtaGnyk+Gf464FrlB1YSF3ROolfJ7n9lH+aizA9x9A2qBb+yHT+51PZBP+ktCkACSiOhNl2y2wKzIvJAS0y/aaXZOxiiiwryeJTuZhukOilu0DZmpz1J2k/aMQf8AljlUjUCLyZ0fizEAj/VZcqHhl5hbFItkepggCCFNgqXH+6UW1qAJjQbhTfzT+3gmD2z+xj2E3Xe4uJnMUjLkzTUI1CAYs98yrAvW5DD+Yn95B9vZD+SlDO1VssSmYBbM+fllZi+rCAACUreEBfV7CU0AgYl7P2JQ4jH7Hu8jDuGx1ocEmyTqov1ly5cuMQwIMWLMg8fcZRpcuMzdcp+HwLS8TCN8GTdftl8FwX9HRZqzu1AABRpt/pnQ1yGcIcnY/HCLfo/qHBR5UHpNaiQY8nEDgA2Q44a35cOb+IEDXb8TZwfZNvAveiw0NPmI83b/ACuhK2IDuq4RPmuBi/fQj+giexJUaXLuX1P6Kf0WjPeEbjbTs52M/pJTyRFVGzMOydlOynaS1wTYU7adnO2nZQhjgOk7ZDpE7KA2QLHyIdInZRUjBtHCH0IQAW94MGCK8kOWJ2vqbMbMS1Nk7X1DrAdWgiLb9ww/iIEA/wA0t/5R/gIkVHqTb8t1yY7XmAWi4VbNknVneyhat21GYW1cbRfEpV0g6SEoyz5R/JHXpG+6fbKrPsiOLiLA5kyXfszuAN+rFVaXzAiD7ZVGXWGrYzbaO7CusJiZCS62e6ANy2yOUQ0C4bhF5RzvfUer9RXb5OXeFRVfxHkiA90jIEm0he6IanAdyf00/o2V1/OJdcm2sHOPb8oqZ9jKDF3lllX7GUedC9ZkkLs1aGIqr+Ubxk3UbuFjtrItRbDoXcZgjjEemH2ZAhq32Yf10OcvSZN3pBWkPyQi3c6w5xL/AKkq5n5Jj/5TAMyrubOeCL3fhLiYgfyJ2vdLEFC7FcodO/KI/wAk7w8qfpGPBkoIYlTByiO5JVllbtB5kC5Eyn9hP7CH85Bv+0OiIOgnZTuE7xBKmFW5KdZSWRFTM+ZWWS5cc8CU0DGUily5ZGUeSOXpc+JNsuXLjPyI/SQ/yMI0lQwdow1uL3RQ4GPeg4HUrOF+MwdWDKOw93V0esGmyLD0iR6s8hDjIdoI0oq8mGhGfBZiXSPyAMGFjDsaFmVopSm8Aj5SftusNblfqVy8iOiJzdqg0Aq6JYj8EBAyY+ZGsA4HflfAJSyywbtSjmwkGg7CZz0X4ftaV2jiApIrO+ExtCbQwMwwkKZcHMjKBaS2cAGr+jNmqTkDN58TpRAmK90rg6ZsiS4uI1R6/aVrym68/cQOylYape9S9WbahBNjEVd2MGEUCNe/Z0DUE62fpwA5kqB3+kITExK/igw8TsEeiTsp2SXDRuna+ofx0/qIA2eiJQnZDptM7adrFlERkJu4f7DOy+5X19wtm6zFf+k/s4A/6R2LZ435mc7aPLqtkJB18/aT9xK5fNCiOifUDmPqf0EzYbQkKSPjK0oI+ap8Eh/mas72hrg/ZAzCXos2HeDg34lu6sHVNGcDAmLO7VI6Hs1JsjB8s8RAnV4xfIgUOAV6/FY7bqQEwg1fyhGysU8g7wA1AB+J+w66tAnePb+5LvB+LMIseaUkrDCR7xdu3PE38TdwqLY649cvTts+ogrMfyZDDML9ahjkI1RM/wC903DN2ifxOY7iYdxlpVvnhACJhJuuDY6yOB0n9Llq0IweQRR2US46DPzoQ8GOrcllXo/fBj4nSqJDrCADnHZQZ8SGBaIK5hEgofpngcEpf2/UNGBmfo9uE68E2NVzBxDu7uF3eMOEOHBdu+rw3g8aGIMuPCG3AvlDaGvxGLDxwbXxHegf5SbJPwOHAXSRwMxfs8LemLO7gdpezvCGowzF5ZcvXe9DFjUmxiL0CZg5zrkQO8iBWjqVLpcubk+K/cOaUcdrspHoh7K+fWhUOVVYQll4C6Rgxum7AcC9WEoH98HRsAjERE31CBnmFPwMNlyMOA/u8iAJQg5tQwAAAORoWzlT8ulcFSH+V+UYTRVrlQeCsiQ+j9Q4OT1++BoRmZHKMHfRY28piz1T4nTNwm54iB9uBe1PgILLF1i4aYCsrahDbAT4LPh4lwHaDUYr8/24GLByBXrVYinxv9YS9fhH3MAlxjjTu+X3Dgd3hDgx8hFQYPA74b+OM3StNrxNkNdnCT4U2uDa6E1vW9b4RaMIOhqMvSEg9SOhSUiBO8KiIlYCFabqxSVlLlIJ4uirKxMuGZBAmkGVnMOSVN53p3idhL7JL+38jLuDrh1p3JSGNeWVG5O4R6kOpDpyR3k+zDrQ60IUgEetD02ipbKtGChlPf8ARBww6SkpBEUK++BB0USNoCKCMecc8hN7o3eBAui4q/UwQGpZDr5jfLLlyyWTeSEiIlaM5FO8MXasBDRGOZFiDLJcA27f7IsRZcuAHtHgduD5ufG8GPieEFXmSv4c5TBix+9Kj0PCAPu/ehHQLDo+o9hptC33yxhwP0TaapNifYw4EbvbDRgz5R9zBA4Bj8vC6AQ0PqhwVqGyZhp8Vm14ly9N7xoyEvS5f+M19cj2EWOUaf8AiHVeodfCYCxo6D00krZj/wBMAftSt/7dMf2ss/6oPduOcK9/aH83P7FP71ETf2luw4h3HyZV/Ji/8mYap9wFXMShm0eo9ujQlIA5Ea34SGrM81eHTQkc5QYPRjGFvcUbv7YTA6PO+WNVyv7RpVi6D8AiQBvVBMqugxVlk0eZ+xmcoL3T96gP8kDVeQyrzgoWezC6/ugRj2otT5U3Tuc5cxQWXMQl0YXeFLFrzCzF0lt/0g37SN+gSy8X5ghkDKmblzbvuEP9sjefWR5b9TKEuBjXh+opDYkP5xP4p3MtMHChSMIDXkNo0sclT+s04B/wjx7IOdw/j2f7SGPawOSDfNahptC053mX/PlTukPoS0AQwDnDoI7ODoI2XMoIAFc4R5HwQ59YL5ZjTPkggA05gKSzyKReTLsZsiTqCLOjLKk3druIgb35J1S9Q/31EbjtnQhWvvkI0/5StX8iJt8uNG3ug1UvS9IdZ9M7j0zsphwVGIDCQHCD5n93P7iDOPdKDTNSoV7p2kG5k7xEQBeWEUlkuIt4aLjFy2v6XAqUlkuKAwnCXGDrFQrS58KGlxY8S2cHxWbXjW4vRox470uXL0viF+dAWOmVwUEeiCjgNkVn0dLly5tPeLEHgP2mtac7pNqOjg5EowoceCYn3qjA7swEJRkCWosdm4Gjx448cDgz3ZRvBcuCKtLvTCePZ5QiYHI0HLw+9DFMv1Z+ozlOe/dhwL2J+46QlYLHN3Mp3gZNHL+yHsZEdEIcCwcv93AqL8z+oMaXKtK82LyINpZR+JCXSgkga68iO7YIaG/08w1VFzK2+5tNK0QN3wehwOvL0tWtz74ADkGbUN6jPkC2GdyCK30cz8OBK0GHxCvj0VMdpUBFUolE7RA/U3J2k/qo/wAVMt/FLhpufcrvqi28qeWZrrFTMXGAAcPMD2E/LH+0yrn7RettU5xs/wB8R/NCi/bP1spFrZOkJjxIORI1bvUCYRD+jHoYyYPqf1ELlmPJP5JR/wAZ5SHNGJggVi77J2fuXzn3ECw3lTJ9xP8AnO79zvZZZ7QApyrmhp9K4nZnwYf4L/wGpsezCp4cQ9yLGtxWpjHfR17o8QjoxUfjh2k2NWG63zlIRl0peJYP0ZUaBs6sMsFLle0nCDoon5U7+oiHe5gAANWbahCGGEiFk59jBf6uYPBjGx/YxLgy4zCiTclI7NRweGL3UMEROpL0S9ME+eH9h1NAb5j6IPOjL9sqfPfUGHcw9GFWjn2Q0Vd2Rtqs3v0zNnAPYnwPB8jDXj61MPLhbaQP5IZN7ehF1Jur1rEFErlaOEk/UweqanT5LW4sVj+1nC6/VvMSXquGNktan1+Gv4k28DszY4w12tFa/ZNurUp+CbUolEAlfwMx8cP818JzmY62hwbz0isS9WY+CLg33tMl7NajPjml67qPQuWMm0XogAAciWvOhEV3RYEDp9MdMhg6E9FzGlR6UFSIoZPMo7MuG/2eEczsi5elyz+rmGgafruk/cdNTSq4zMgzLKedmIT9gXhgRY2dSe+33w5dv7jTbeA8pHClqvMwDVojAGEn4R0vU0Sh2vUMZ+13iOCpe+VPGl6/Lz4HgN+ZAnhSrmfOmmze4RVMNeLLly4venwPAxDwSoap5L5eEf7/ADixDVn2pUJZLj8DS9fi5t0BpseKH3w1WJqduF9kyODmOkNHA68qY+OHFcuXrf8AgraFB79ajBfjjFuxrcXEEvoWSyKRCHaB+NBJZFIsQwoKZSIlYCof4CEUPeRSzBggdhlKkEggAUQtFZ3peY5MFuy1ZF3uggPqNKQKgOH7MpKSyLC51r9ykGXLhqT++KWS5cWx+xHzb/5S4ME0RPcaYiADF1xm/KlqD6lhCbBzGWQTQgevwaLl4s6dWWRn7u0UIzMT7IyowbNWOl/e49DQrNj4jS5cIXvi9OYhp8rPiGjp8/MvElTaXH7Ux8ONYtRSO9K4KZ/rOluimlCxB0I7MOtURIn4hC5UvTM8M2xjhimRNsvVZ86HAF3aC1oslka/nMCOq9M2HB8pPgkP8d/4BYy82E977J0BGPYPmdb2S4DPzBgcsrk0VbzjHl0Ew49Ef4adr60RaWfUwSv4hMXgCZvD1/qHMxreFWIfw6Z5AuUjNyXwCrl8TfCFsWCtk2YvMGREPMOuaQov5oGjPQ2+iYa/VvO8981js2wyxE2PzP7WY6njnYKU/MFWvLZqH8zOh74D/wB4r/3l8PO/Mp/75Swz3EFSG1vKlmw+GK0hfmMPJIp5JGObCB7QMqX9eTDXN3omMPiMyuwmv1i4fxJA+Z5E7/0TrQxboqhvdxyk6EGujZEgHbQhe/jIuuqKmuV6SLHY8R/h5m/1MzrJsNmoEmz4gLaKWbIYIPNsm7OP5gbVt15h2qX/AD2PL9rD/s40AQ5RvnEd2eajXhmDmGTnGdrFWMpQbwF0Com7vWVcz8J/TYFZHajEE6QcyUc/8Jn2zwhj+pGdpZsggXSjkn9Cl7VPeyVIfmxEYAq2ZqqG1R/iiXofjmSFfmGqdt5ShJ1S6gO/zw6nsg/N7T9YxRV2h404iCGPbP7iN6iuf8w6GdrO9oMR70qEoQTRlQPxy9FIiY/ASzW5g8c2uC1s8o6YKClrKNEODY4W7zm3g3U2HAvYnxTgHhv/ABu0xDuMvStBbnweBiHduDjRNN+K5mtRsOq1LuNPNi8uciuO8sdiBauudiDV/hIR/wDlRG9VJdwauZ+pbGTiqZh86m6wIFZzZYFEz/IgmYaDEVuRwO3yg1Igu/Z4Sp+jlVTn9XC7ijgu7I/bpTgY/wClZCbH8yEbb5HrAxdV7PpCwH01ysdbU2jHXeBDgJOBKJWifX9za8Q1Yp658IjCEw8RDg4K5OuUPEQ0ohryoc3OsqASjpKOku/fzLOSPQ+oh/yg3/CbJ0HQl1eCdvpwqHIGWn/U7/sw/nU/s40HJNlmOTKps/pzrN0N2XiFJXwjZYA6aBYt98SqLdylGCcz84HP9pds0+ZyJt1lIpsdYc4e5Ryx+1mPLPyS/FswHn9xe5R/q4dFlYwId/4YD+CBeX+Ja13OkAGzEN79T9gwbm+o0BlKIbx28Q3EVU8p8bgP/AzHukENaWjwdFl6s+dDo6b8Snyw0xGIHDaIlQKWlyXwSgWIAMDlzhtQqC8B9d+YOrHQ8IsGhouIqgjwOyBwKv28wODm/wBCX7n+qHAxU/d4LjsOkiEYkAxbVXIYv6TRcn5ioh/NC216L/uVwSg81x+WXuwuGCLAboR+h9ocB/a58IuHn9hNvBaLDwEVuEJQhUgqNmm7Xzg8HB8pA/i6GrEfvcvRm0uzbRDVn0uE68E+LwKX9mFwfs9ps4PiaRoSoTF1gGlEon1QiEDSt2gEolEp0hW8kGtp2p2idiKdcpiP89OF2g0u8EvXclbHfwXGiwODfmLOigulaYRNoglBhPlM5G9gEArqxHw4Q13f1vCEuMHwR4OBYgr9XOt6Ozy4S/T5w4Bf7mIKLp9HCz9reHAM/eAy5cuWrssAUaTfyeJyaGVASOFgARjGtG2FnGZbu4cRY1IfC+7gEyQc5jbgdfjPbNhwNKt/9KYhpWnwj7go4ME6KfHw4P1/XgYQxZgcG/8AbabOD4TM0OjRSEqB7eI+D5s2cCrxxtENNpsi98HhBGXokadY8Z4GB8I8cJ2OA1f8Dppl5TwmCn6uDpem9FSNaxYwV5CWy4suZM2SEqJQTRxUCC3lJkeBQBQg0vytBCorkarCuBuZfkR4JiWSyIreb2yGXL0xR54fMIGWaUP18y5cuXM5WI9PolwZcuVlBly9EV9+AWJn4QQSDLjPCSQsXRDFGVOtQxze/mLTl7fBAyBMuQRTY/rcDgq/r2Q4AIvX7TbwNv8AvhDgCM519zYcHz8NA9PD+v6wOAP44NWG/M+oMcC96GvAiyoaVfKQJerht4B65tQeCn5Hh3HsQdBpWI4NvwmzgVeYm0/zVZDgl7jyThMsT0SUO3owRdekGc3sQUq+VRoxJVKWwg8msG5MslQWjPWFWPnK2XYwLyxcrD8zEm5L/kSoW3kYypiQaxyctcHAuQaaQYJDoQOb0zajBxiIfxUP4KdX1zkbwR/2shz5n+BmYvxVLtT2VDCKfidKQ5iQNXIvKpjojmEdhs7xzjThIBkjCdi/GAMh/COTuejlc6RAKWxK3AIEZKwCuDyK5wTb4xv2R0xAF4MLF5+xKpIlCiLbFGGqnrDFnPkwzOxCa3SQCskFjdfiYCmXwYlfxmfoGVTf5ROTL8x5DjXvhcC3T+Ybhr+bnZ94Z/zm5lv9a47K+0sY97D/AEBYn/1mBQbLcRzR03WjbkN5bX0h1DzzAd41mgybwpfwQkft+JQYs+JDBfxSzKnJdw3KtG99SdUPwh/Nkdkw3FOsKv8AYRLb3Et5PHUgjkDwm7UzqdZ1r2T+/Ij/ABTPGzthmABm8BEkRXkYH5e6AoLC5TcgoXhjvqe4KbJs8zvLdkmKwtV+Yfyk/up2XuUecqD0gEsjoB+Z9TBLJcuezR+shpcub/uQZcuXM/yTEhwbYgQdGbnyweC5Gg6P5ps4H6ceDgyDrLaQi/5CPxC6g4HSAiQ4Su1bgRtEKhAeJe5CuUZUVRYJRCakAVsVTbDWIZl2AhMGX8YlBMXKWu8GDg3IsPLFgeeSxCCOgkxMBGzY3BLNFIX4IrCLCvTBEUb/AN5FH5wgkAQ1WE6/uEHUCOMvX9l0i/c5QeBWP2twMcER1HB+luF+o7cDLYMDyplu1BCBKO7suukF8KRmbMsaGmPd++GlSpjl+44fvB8wDWow8/2glEo6So7Jygxa5Z2idhOyjXgR5wcv3FIf00U5YhKTsCDqvbP0LNtfvGSYLmXPoQoAD+Y4aHSMm/0Q19y3KbNcHKdCA5noj1Jx3izP1ohujyw58l/3z9zL0bbhi/3iMDmQQ5kcU4oSx/5Sh/2p2/SWmz6gWxDdfTDqvphBZsyh1xOy04iDbGEeODMpO+RPJO2gfZKpkneI9aU6wU6nCT/GW2Di+QyPCzFO2Gz0I3LEAJsEVE2uTTDbqICCo6ygZRWGJBAc4ahQcsKXE2aNiYYSzaA1uYgSFGUGGWT8rqEORdhsLhuGaBhKtURnyRdoq/IgxrUOU5i7a8xtkMppUbsHss34R0QMs6SlWecttTa06QrWU2nJDDcOcthnmIHa3LtF3g5Q6DzxyRJN52i5ayjyfbCoOJVJt9IMBaoQ0YuHv+9DS4w/XzLhqoQCn9DUdN+ttJejP03RDgBff9iHAvyL5Nb05+D6x2O1puruRS67bV3WjLY+n6YFGtz9N1g8BsOv36jQ2fX7YcBv9HCW4HYga8PgZsPf7aGjLPhfUOAe76Q4PnJ8I0HRNAOD5SDwVF5JslEpKIhUBKGUi3Ij0oDYnZTsYFyzspQ4gu4Q6adjAuSXBW7EmRO2nZQKKijb/nrhuY9JJvWLgimDN6WpFH2mdg86AAVZ2mg0rF9JzKM5bz1lh5SJU2kRs5BZWHQmLitBt6opVuWExVTATzcFgtzYeSbNbm9EjUWrK46HLMI9dBUrM46wkDbCALBUBw9SX5JuE3WDzi05yeUEOwIV5/QRCrbgwHQnokDB/wBes5ccogkJ4YNX5v3B0YMZ+nvBwOm/SphMvXabgfstOcGM/B/Qly9Xf6+WXjg/TO5o6qvPCh5TBL0U/C+2p1KOl6KsP9s2aGiqTs4MqdZjgN+XPguDZFf5vvW5cv8Ai/UOD78WOENjgYuMQNfvmzgeXEu+fh+uHB96bP8AyUNF4Bc7u8xGB5MkI1HnhmChyZgEgBjQDTGQFEtdNQUCjULIfJBvGgSAgGIDrnKSsXcIO5t1qbYCHk3gYGOhwYQd8pJSyIoiDZUWGVzGPhRYVnWoIAolVOfBEKwFiFaAS9LiyVzfcE0XLjr9vMGXLlxEx/i+iDLJcRHl+2UWtXaIewfrrcxMf18sNSB2Elxiy4sHZfBHiOuH790UvTEIr1+tm3guPrpjXK392beDY/XMJeuXmz4LW5sZuzv9y4a/G/UuGqm2cDrwzbw/Mwl8KDVIPM2kNfiTZwMvw53+CGlGm37M28H2X/zDZd0JS7VKv+2lJZrLi5egqQB/wz9Qy/b0z+rn+8yVFr4IKv8AVoBJWIVJtk2lMiCipDmsAyeoYh2glVv/ADC3d7nQXpM+73KTS9yiFrytjyvlGIc2GHLIGIysVc7aOaqQbZnUgeStmKzmIclm7MOPaz+3Zf8AJZYG+zlivn14GZL9rhzF/LGylMW2SXze1mCDnObqriMPyXcr92bN7fmZC2n5lvhx1mEG7FP5irlt4Y5Y+0AclbDMPGO5cOv/AIZ/SMHX8p3xWaXxcJu7N+Lst3lSzID9KWX/AC2XX/cwBKzK+aSxz/ymz96Fi6vKGS/ciVVClbWTVSrZoHS6NGujOnUARlhLmDn9pReXD0M9tKqsVQvkhBcjPJGWIEby8ZcBM+R5pWUXQNjM3/GHV+sWl0/FiC4bWTMqMvZDne4jZ/qQ2fjQKwilTemDQfJSf1qIg/MQ5g/kimBTApmuUpl+8jlMnQGCzfrIkBiEqPqlc5Q3m/vsO18qC1/qw+yKCVamAj/Jz+3gzhPzKePdG2AanYQ6xAR05slIRcRpi9BmyOkWEvVY8+SGly5txs0vT4abCGrrwR2ENdiWYeaGqxEyGjMvFNnA/wACYQ0f/Fl50Z0Icwz+unYSnkQmPnDSISiUQlQi/IlEo1QpACXLLnUzuzbAgFcJkHQ0eGZx4IU5mwp5ahGGyW++COm9hhhhK9zbcXFnfcjTDip8NDMqokI1gFtUZiCUC0e9ICNfUIzmQZkRAWWL7gAy1LIx+1HI5rKdKXV2ILLhLJWg2dLhp4aFQUliWMYN+1T9V0hMEbkLqgWVULertUIOxZ5QYwZuPEuX+P8AXhd9s/aw0vR4b2XzFy4wJ+n7aAxZcN9Md94EfCsd7iQ0Fl1/2TAlyzRYup+zCuCp7/qYcQ0dpQFmQvNXLV5ARmTciVKQhnpDAUbRf/lFv+E5QBrEQrEFIypViiZKCplGGFuF2z7Ylk90Y6uMW45WD+YN5X5gBEtZPklGtdkgewvVg61FPMi9EPFkM1cr2Ody/OkJ88NW73BqE5ZRvMTcvxD+tA/xQ7dJDmnpO76MP6zDmSBWBMhBthDp9IVWzTAi0h0E/tp2UacCWm0Mzo07ad6I6wO+QZ3JSIhYwFSkpoBp0/8AMXF2ix7KGgsDpKgqObkjmGoO3QxpB53DMxhV5MqICcflpGqQ6AdFFLWCKsC64S1bWEEtixWPNzg9YNfAJRATnFUCO9E5RW8bGK6OSIJXNiRUPX5mYKbGUOpSMUFzYTDctiWIy+cDG+s4s35ZdVnKJTKXHqKboqbsgKejQwTQXg2EWHy3Yel75fe57mAGgGPmxuh6rIeWO1XYGciEV9bsJR+PlgQm5RGDxiQc4Jb7hi3BK+E6pnBU6GojIUb3dYiItRsQAW4+mE7CwXqkftRysCVad1C5FoBTMKFttYuCZC0O0MWfo9QVFZk3eehw7ztferAzPw4EsRZeEO7UF0HZgljKA2g9GuSwNag10mLQ3v50l7bsAgFsBtILhsaU0wzybtflA01gQoVTBMAZ3uVKPSfiClpbrTAATZJbzBmH+vcYDQ5lX0GA8oJ0Zuh9i0lqkaRA40dJ2PuPGoWYjA43UOsyBjCk2m06MoDtjArPtFA4atjSJRyhu5BpwM9ylwqU30uDLm7kbS9dj1r7iwa1EKgMu6BKJQyibSuRAVKdJ2idsh3gbyvsnaTsJ28HSLrEp7Jfyzs52sRHCGjZL+XS9mNUcNbMWbMByX7in8mc2/aO7OKgHn7QP80r/PP3MTPXHfSaX/4tjMQ6KFLG9hux1egJtYs2gjl1DqVHa6CXC3hitFs251a8X0iuXzTcmKIe3xjtvGivqPWOjRRaOZV0uzzLHGhBy1KSPWpjnJLpSL3kpPVhEMkuFp6EMwlAuUUSrZlMaUElRlgreoM75XA95IbbqkoELRMlCiMdKw8CU+yygw9kU3kgVoxBcCrnC4AtJHk02mL7CFNsVOgaq/EpA4w5vM5ggvrFsVhrKBmEuHv+qZgTKDzFLARHy5gKLcwOgRFwlG1stJNsd/LKn7eIGeyTyRwSiWRGjvggCqAo0QqrpfLD+zzaDRGN/c2IS9SW9vow0wYNz2VICBLjKK7PwCHgoCb6tR8PJobd2K6IFX4Jehz+kgAdJmYoKYJoYvJc2i27RBopgPQGV5XMrIL0DsS44oXF9LZg3XKH2R6ORAAA9QAImhHntZonawOAIqGfebY3hgwdBZePuc1JrZh5hgGLgpWIIIvNpdEDmlZO9Q1uVor2w2gQVKq41bRgvLFq0GE3HfHTWc4vS1Yy4BlsSeR9xYjcGMSeQ+5tNBlxY7/Ng6XFg3+GHBtu7Nugykec2RaMdJ7Tbhqzc90GXCJPlEGEEZl2eAV/nNdkERVlYAo3MQ2cBzIxe4qOjcrLpnjCM3dQsS2yzsETbLAd4hE5aRvRU62ROpOjaMZ+WUcEZfAr2CMF7ObK1Bl0ZZVfsiR1DZslUplTRd5npHJHKXdajzIgsm1MA4HzAFACXoPREeNBRDG+6XOUpfm0UiwA3UHdrgBEIxEjuMoWKMHQmS+gelwJW56glOoInYsPRGDwwPtjL0Zn5/u0HRZQ7v1EJcvQ5+w+GGoFTPb/ANyEvRhh6OPeyFJWhvKidCXvUKhQTYY/4IADpGQLIwydBlC80JKEcCE0aVmYO/Foiq8tEEmW6XDMDHxvKBL0WiVqbp0jfNXK24uBPZiKNoUuvvV9zDlUtiEwJRLw2ISrvncwzKVQhPEfhhAGwmD5JyJLDvfhoMz/AEbzENKqXLYHP7JthMaOzMSEuXKnz4PB92bIwdHn+JthB0OvOnwNSMzHywjoWZQEGGjvsJoNK/8ACwTZKmo/lQLCKawxKjbO1mLha2l4QYj08eegX/Ea930wb25eko3X1Dl/Bj0Jf18uWn8IIX6Z/Tx5d/iFzJfiMg/IQi2jkR/g5T+OU/8AOIRfj0TSb+qbb+CI/gg/wREWC4If9cT+ODvPpm+vghWQMxAGzKT/AGk/tyH86QUbZ+YbuDmpSaT388DBzQ3VeSXylYUnpO1QQHUmVogCU85jx7dKEcV4mAAlrYpuClZlN3+BzoQY+b0jHmRD9QLW6iNUsnLalvwkt10O0ModrBdmiJrSdJp5GCuKnkGc4yEXsBiJbj8TkbFcoKTu6Y9bT8MzYuqOi2oEw38YMbD4Qru3pLd0fkg0Mx0XuXA874E3yb0smC/x2Tmx/JHqO6wvsQ5y9Icz1JVzvwgy2f5GM1xFKZxUqxZ+SP8AOkb/APeT9MicwbaXeoLv7iZKfgiH8EOi/gj4iicnRQxyX4jWCsB/OoALZN43KgBaE8pn3e0FFPiztohEKAjAxCPWhIIh0HuC8k/KEYHoICAlIhIF7tqDPpA4QSLF+jrBIul6UrSEdPiTDgBnyOF8RmyMqWzInebZcIxv44a1k2OiEdV7MIKhLjuc2/zgZeJgCeiEoZIaAw6aUu2AYG0UUbJ0BDppTyR6BMQG06InYlJWFMBW0A6SjpKQLeICSiUlOkGIfYQAldpUR0lVXV0CAlSgvRTJuolQ0Zv8kSU0E+XhtwKjukajPlJ8JGEItE/S78DrA652ci9SkI40d9n7kNCMKj0b8ISpUrRfnUBK1ePt9SBqCF+SBorR1S3f04SiMAht8r0MHExLORHpEL055HcmSAY88yyXTMHj5pXTNDFb39sOQf5lf5ZU4mhlu8p3SH9OIGB6lDd/xLqCWFj2OV8z8zrD3L96fmZnyaLhjfKSfWnTo/iEgbHSEUDv+oPzfWieXBrneCDs4dNKeSKzG06JO2lnMncIZBS3gJZO9GQKmdFNBj8RlYCKS5cor6qBBgYsqsc1D/OdNdF0Ias273BMWLtojR0LLQvV584uDFxXwOyV/KQ1Z8xDaGovzOL2D55cvV+x9w1ufThDUX10nXBzwy4SarjG6S5ejTJj/X0I6Yft5YMNLiw85NLlxGz/AHwcGA731w5eP6EOB/lmOB0XX6qLHA6/fvDaOlx0vMcz8XS9dk1aMWKw7YbcAPRAUaVKlTwQlGJ2p2idqdmbC5odFOzh0UU5IDE5Qfki28hxXymG7xBknl9wLn7TusIvbvKfOd19w63tAH/SVUbDMbBL/wAsJDy4UYO3jLoxE7qUyxc3lqP8p2dNA/LocDtMe4xwdcTGJ8sDVNEbQ1HwTbDXciNAjNk+tDSyLPRgKly4TZ9mfHy5ei4lj5IPBsvSbg6MVfgQdSME75X8LW5VXiO+HIvgdxX2fpweA+g+2XDWsnoPmB4L/qbkOAZeR/og8Cr9nBw3J0YGjp819ps1uWSdfvhtwOmlh4emZnUVmqTfscJsOv8ApNkNcPKnwCGrB7HCupcY8XD+EhwSpUqOvHDR0DRA3QZ8SVpmM3vN7Zsh/lI3WC4Fetx+6aTQmSgpHdBl6LNmhtoS442kvRm/NvS4sYK8ZLJfBwdL0O6+jFXiRYaLEefLqRYpTzl63G34oOgZZGflzDwoRjT4UFHpDpcubdNeNLnMfsYSzS5+h7wgy5cLv/e0uXLlxH4r5IpjXPs/YaFly4r/AEsHC/F/xDVlMvVXtFwIP1MxRqXLnyMx8bS5cuJYVy9GG7I0NPks2uByfC4FxFd+YasER6VCETTKe3gFy2aEufSgw4PloPRCVKgPwMERof5VMrFfczwMvTCSBzh1odNEeWG2IdKDLedjOznbxp2RJnBOojoEcmAVUWIlz1AeYY6Op5TuPTO4+owNcHZWkVO8+p3H1P1EK7bj8GHRDdHpHoek7PpD+Nlrw7dIWPYJ+8iC3xz9pG4pneFuBJbURcxlpXm1C35sBBiaG03l++f0yKNdA5ZQG58zofHKSCOmCNqK5zIDt1hz5HOW0CVl6xS+8ApTW+FzHbDGd/TklbKxprAcfzd4DdmR+Wa3J09VQtYLtRlbQkMYvP8AXAt7Zilckm3S4lkb+EOYvWH8Ag5kPwmKK6c+6Yi/aT+6JQf8pabTfUl5waRTayAOfeTp+pFb/lE6/vJXasDItFIIUv5IW59pM8ut8cByxq5u0Mx8IGkO+S7FcXgrFROxKkuT/enb90776ZZhad47QP8ABle4nWMNskZy5XwM7OdEhZV4OneCxn5UH8ZAaLikRfy0uWRYb/Wpsga1q7v1NpwnEcDs6RHS5ve8NWbXibJUrR0HeGVq8fCbXA6fulvxENaDd0+BDgP8g8W2Q55B5OlgewjTtlSRhnbzt52s7CFx85Q2y/kj0E7MucRWHknZR6adsgliMMOadpO2nYRE2IDwQfkTsJ2E7EJ+PDoTsSvSdqDFXKEorkgEQiY2dpK7DFLgW8SgXoRxaKpNyYmIyiueGt1F96BFRebW1cQ6M/PjPxkw6vJ2eIqXsjDLlwivt/69WMAIvg6TEuZ/t0NVY9PmWExHExPxD7w7EC06BUQszi5nMgNFwcNTciLpGmos/a9YZMSyMZR3/qIgzEo8oAVb/FAekW3E7edvA0h/1jDT9CkcQy51ZQGAeXtFocFzhijkHOWWz3wh0c6P9aI1AFkidQDcqdyaE0xExLKge49wyZe51NImLmBxLTJxHf1zs+kdv6QiQ26dTB+WdvDLCUNgh0E7CdrGiLuTedVO9KxMUPEBUslksgb3JjKSmiyZD2xAEs1HYdSPBLJZLIgfo4fXD/MyuPAryHC2M+jB4EkRxwZKK/G0uXNybB3Q1YYXCfFwYQYM+MzcRWjkjgtJBOTOgYxbIetO8NTnzYaLG7p3eYDGBI2lvnFcSCmBghY5u5GZeXPgoav1MEZaAXMqbqCJOKpmP19oI+OViFvGnuVYSxgglRRkj4NyjGJhSUzDqQZyyrxzN2NgE5xsLyLm6MWrFX7uGXyjg9YyqqwYaZDs/LoxWAtm6Ji411qSdyGqqKPyuW4Muluj3SYolBAx2AfSIVc9S6vmqG+9A59qJYxcT+Yu05hv2x0KACnmPadshgfu/hGojnTttuDTWRoS9361CJr0HA+ITVK3NVDpeFTdMRs5rDy3al9MdN0c+McG2AEcqPyx16yB5BNpR0XqQNKlQX42BRKOkp0jJQlGjtTlARKSdhOwnYSx7Ig2JhqmoVZgjOy8wLaeaeb3M12+4KF4Kh1GH8hBm0hBunOnaBQovzN8WUHzTA2ywgQX2ZAsKYdTLPfkhzEPLPqHS+pzPqgHCo+KQ/8ACHAwU5Y+ohDRmHfEOA0vsmBDMrTdl3h1WbYsGhdGU08Q4N/gmUrW34YdvgXN5nlLA3MpsoVZgsuLLB90WiAGrEhVel0hisBH3KVEjjMDaN4r0qXM/Ng9KGp9LAbuQfhYkdbUGProEjZnBhZQimL+GF0tVeIbNoydo+4e2MypGAb18AISmWgdAgc1b3E3hgfmAxuKgeCH1OWhv8pRpcxP626FtwQ10la0wA9pQDyW/lhu/N/Ag0edEuOmJxHasa/mVn6I9waagCJgnkM/K0GKWWuP4gKgErsFkIxyI+rcW5zIeNxCANgohgLsPDcuAoCkISgAa1O7MOJcvS0QCuoSDOoqgd3giquxCFsELYqi+AcGxgZ8KB7yd9Rd8TAeUx1cw5uJSxpqA7pEWSmuD5DVcb5KcTPfSNSrbENcPOm1wMyfLSpUdFs1WZnxNvBViccGHeLQupcGKmgUXaH/AJs/FHk7IJquJaecDiDpiXwdSVrS5cecZV0hokeIrq66Oi4mcXRnLgwDwmyXrvzEO2pmWqF3zbdD9S2w9+jNovuRYl6XNjhs0dLA6uYj2NLlx+9AmtCbdb5ZgShmzhM2io0znYfSOloCrGzYJ+CD0srAMCZMDDMMDYCGqucopKSD1qGjGPa+zQzcNEAglloftLQ1t+P3hYiWWXnwSs+eXTDlnzU0uH5ofK5Us9A+2BBaqP4jDQr+Rg24DfaX5hWjSocxuJEY5FT4s+MS9Fl2RH9ry+ZsiMMM9k6JEfdhLqHnASFY1IvchqQC0xcLdqresyTuw0J8VmJ4HaChhrUL+eGlSpuHC2HZm2VKlTHw48SiBKh9MeCEP/ARdWCx7MUq0w6hO2nYR5hg3E2YV7IdFO10XOZlFle8sqZvEOmDAuYHvAvNP3EEadCSneWc9FplWdREyZ6t9S/ZnlgALuyZgM/UTt+kq8vSVMJhgbHaJ/8ACZtvWdj0lgwQdl2lpUbvZFhC7aNuvlkoMNndofy0er9wTYKyhLIQQ2+UOljIQWXmZdtHOJGCwyOpWMMG0EuNNW6Ow86OlEkycEqkqzzXMf5adXSSp8CgzGpFal7EQ2WBzIvSKHlQc+sEzC0XtUZ+RBzTCf8AwQfcvzCImx32q5ipi2yZg4cnS5/QIjz+kalUKr5WxFoQ6wvcPyT+8IJj5CYQlDi+sWlY7kODQ4Y9b2QnITjw+UmGPhgEXY7Qgv6mA7aUoZDyS7+Sd99M6s143a/qHTw/lIfyEOghnsgswZXrK9ZSF+OP1QEpFIuGVpBlyuU0H4+IMQJequI20qG7dbJuRskpQiPRhqsPaLCG0rTFPabTA4MvLDQIk34V8KHEJWnInBoDTM/EwH/hYcPxoCxYIgkA8sC5Z2sGFYVnaQ6SHSTtICgNo/ByJ2EOlj0EusI+1c2HTQ6WdpKeBKbUv5EOknZiPKCoOsOinbR6BAeUNtJySPQJ2SdqEeIhOpDpTsTtEKoxDt+piogWHwlRRVTcGVgNbYq+bKx1mBKJSEmCShowR3rfQhMRIH5UqeJq6CJ0CJQgjZA+oATyBPAENGKNWSj4T1Kg0dHX8vqwGrKfo7ulEAjRFMdP5ZYAtuw6GgEap1PvBKJRKhft7kA6RHSUOROwhMJVe1EpZGpJ20IhoDME3dZdz9pT+aCbK7xAVBtwiBnO9UmPbGujtDFAgk6MIsusfcBVLvp15d3phfmmPQ0R0r6lXWJNL8aSijzuJCkh0cOmnYQFCMpskOincIdFCZTdCDA9SVgIoEYJ3ZSAlYiE+eFQEslkBR7RlSyWSkYxLEuWS4suqCbf/AXw3Lm5MVe0DwYpBVSoaG1H6iGu5MB74Q0WJ8CGrFUTgWUWGgZei+3DRZtnw/1CV2b0m971fLcJhEFcs8o/LgryzC0UrPLAJDZ+a0MspQ6MQG8oMA5YwyypcuMtFteCXLlz3SGr6SIInNNycWR5q2C62XB+wg9xuvn5QZcvTa+v3VrULngxZtpsc3Gv6tkwxHPqsGv16MyQFOpUAq71R7f7OyksGnAXH7OpF0HQXQgh7ASesp1Zd++x1gteIhyjYfMI+OAilKBQ846+6TZ7xxMBl6uUcKTZGW3BjL8X0w4Pn/abTgdLxH6NK0VSj58AxGikItUgVtOxO2j0UsCjKyrsnYapBTUSIIFcVA9iWzsyoS2d5l/NiFLYVyvVANDXOaErfeUYgCXdaG2OmdgjB2XqYP8AVMgS7hDCStKHnCJg4B/TDR/4DgvUYlk2gaMOToZs1Z8CZeOGuTgjCBHRijtoNcfLFZqzcR+o4PjT5zDR0fEfUQRq+0rGbZ6Qj/6olp0OaVVDT6mMCW4a3DhLsqgo+k3BPdiFZwovQaMJ+w6R9baIbea4KisAB2No3ArGdsCN0b/ZhqMtT61aXLJb1Ni5TuUN4gZd39EMEvMCMeWHGmAsQF2fwFQgG06RmGNkS/q0QYF0JB17aLDMMBUX3MHlZWbcN4l36mB+1zYlI19wC/mEwc6c4nRCBdun3g15R4e58OETDaMtuCwZ8f1BK1Xu+02uDDxM+LwWJk+WDgcrwhwfPm2Gux7kViGlRV45gQ12szIS5SXG8IVe0ENSUeeGw6Loo/8AhItS+FgwzEe4wYOux9BNuuJ8CK9RmybSDVhoFl6Y3dYbS4suOXxjUm/Fh5YMuLGNPF+pkQpm0B4iygOrmJRCwTvuiIQ889DvKu2s2nBR4ZteNE0+ZiISpdQGAAl6KHaR4IaAef2Q4MP3s61gJAIHKCxs+mQM70pQBCC3poJvMB5jd5fMMwSohIt+MtXJCDKkLItgfyxsFCiP0feZNpg+YHNQwRigIMn6Ww20NCvtfeDbUCXu5Hy1LwS5WYEt+vlFiXru/pmbeD4TBXi4CQ5v1w4EfwkNuBkeWGpy9s2Ya5SGODBeIdGyIwGC07taiaeyVEhPuQYmzDMxjWr/AMIwLDfgQ41jYsMOuSjcaAL/ANJiqRwMdlCZP+DMteICFbt5TuPqHXfUX6+oo5+oo5zK979Tz+pd19R7sGtDVMrwzrs7sKcsQejCvnO4zuvqeSAwDKSI7RHRh/AQ/iIiloW27sOizfx6Ts+kSmFLQiqgIdelJMNuykVOkvcUOXGXOD1BUFldZXQfOLXAAd5T2+42Y+UP7M6wiPQbQ+xrlmYtt+Zk2+4PZfzCeptzh5QtCwRn3T+6n9xLT/ZGISZzfeVbH3O29zsfcP7EKULv553P3MQOrpceY/cQZR+Y5S1tvDr/AHD+ahfIr+s93dlJVUX6Q6n3FjYfmbn3E7r2QqG8i+0aKT0hEXf9kxwBlrs35hEC3ijNxycoW7F8sMR8cE5ekq5ekGLz6geK/MQ3dP2sH5IhqUjfqG2lZsIdYh1iGeR9osEuMUhfn9k2aXLnzUPp0uXM4UfPDW4PqOFY+0PBevshow0uOlNrgHqYIIkCIVFnyQ1Z8ghwWQ7MBqZYMS4gSvUw/wDgZmk0nAxYC3sxTCkOjnZwMkGobQJg2gTsnZJ2kv6Eusc07JDop20obSodiHTnbR6SVcibIizInaaLsoPuIk2QDkj0524eI5Q9rkQflOzHpS0xAOfVHoQ6EpEdIHolOkCAlEB+BlEzsNYKAAAFBMRVh0zbqkVL2jEeJUqVCHkxDKNXZZRXln7lSiBCoxVkHS9M1duECASiCx1y/A4GI/LoDqzEYTu/9oavOZYD9FgIBKdIdCCj9bw6E7JOynYyqo/kJfyQj7c7T7iwzVvqJYL3Grb8M/sYBEBVpDapZMT2nqFuQwK+qpjAoaNGp5H8xog58DdzKBtKnmI5wo5PqWnOQlRO5Dqy3Z0QEbxXJOwnaSqg3ht0707KHUIbv5kqVcOtKykD8DEVBIJLIFRlvmAlmhhDMiWS9Dwd8EKlxh9OKH+cnaaTiLRdVwvgs+C4NsWPPA4GMhwjA0dMWvUgxoypuTNe0NViY35R0tuM9StS9F7GgaLHRJgas+JMPBB1deZMk66QYTentj98N7/tlB0YtQUZaY6XCjdb/CXpV2TlEfr4wujVj9Z8OhHQYC/ssJeqlutPuEGXLl7L7P5IOIMvR15v1BxL12ZbOD2CfElGlRCHc7oiIQivSAREnbnbJ25SFRdBB2J2JhMp7RLLCIQ6nViRcC2WI5kAhXkZi3QfXCzdDr5UcpXNyHXwpkG95bGyzmmDZ6mXleIEh5iBeKupzkusfcOr9w56hrYC761H+Vl+YYqXDS9WYN1BDQ0+W0QNLiynycHEvjJYs3eDg4FQeSbNL1C9DgwGWrzQ4HXjgYQYx1om4um2DZpcGUSdkm14hq78yP1YaXHl4luFIcf0UDVjFD9GGisti9hQ9IOjOUvbya/WctCMuLo+uhHRX2A+4aso9APuG2qzedr5IQ0uJq7/AKnKEIza/TM2y9fkI/RwMW/ljE0VMz7wNWO/xOF92CO8MEJtI2tCVotjQ03JmIYaO0q+dDgpjpGmJmjYfpoP86IVCOtRIa8BqJiGTWxzXBsmB9ml6GFA8orjozHRCDoq/ImzVZvxX44MuXFhjV8/Az4UGlyypuO0PEtjejoiOImrqzpHghUYsfvzP9jEGDBjPwMJ1t6fqd2txY610DKIQ7q+kNXaU/C+ujUBFmFTd+MEXojeqiXoM3a+YbSzW1/L/YRY0NBfaU5QUZerHgIaErBtw1VDoZZCMvIapLwdibOD4cETMNHT5zaQJUJi3ibTg+Sl6IdKiT5vStfQHAqIOuPgvSf5nUjw2JimB4uI89NU5EFQGKt6tyg38IX4PSdv0io7+oF1PKVdfUvdn1O36Ts+kajYKYHudkpcqydj4IeWwjOqTtsG6+odNhnnKSxlOqdZSrzSzFRgr4siwGFwGk9MhK3UNOE59CRMNMhMhiVm+Mq6XdRSqAGB1Gere5+1n7WJUGaSkxj/ANFohJwNCs1CAGxObgaHyVILUR2aaJTVe2H8nDovcc+zrEetUfoYf351flFkpheW3fVgdz7g/wDKJNMWAkoBsu/eBv8A3HrvcwYMx5o2oal29/G8bQ1+BDnhFS2FLBqtKbit6rEKmZAeX+JYkaiLdvSYlt9QUEdAK8/zs7OPTxXJOymKir35uFJQlOpEJbLVSQzzPqIlExMR1GHaEDLi9ESENo0lxUpdLokNF7UNbJVtwlhwCRjz5s2Ia0aPUmxwfMQgQVqxXbuhwJr6CbOBFH7xqP8AM6EqVwZt2EYSegQ0BTuQ9UVUTFLPVZUx2cejO3O1EcoFNG0r0naJ2CJEIL5j2nElHIlDM0BcOcSGIdOdidiEbK3xEw6E7EqwAjYNRZRGgwckXnw2lmeRGkQdkpoAgQAds2CAYDQQXmCMIhLOkdBZDcuL0DsiXECusUxEiKeJjRKlPz434OowSvwS15KY5gGiSEjr96IPy36g0ey+yNkKlsIhAbT2wlGVCK4QICVRGF/B+sCIEbJ+OcAYC90jCy0D+BKRKlGMORcvrGukCxYQ5YTtkV0538k6wlXJptm9fzBuUy7sxViswBFxm9MxjxAunQ0qdSiyWqygUIBzIMr5ILUKjq3SjD8ow1bqMzRqVQuV2Q3EqnNHpMy/VMR3h1pbzlF3gDOgdlBec7Sbo8oAbJbszf0l0EHmHUBKSsGueSMozoBKxn50oHxAS5ZFJhflBly5c+sixL1q9QP/ABJxXLk3yR2DpdjYCHIRpJgLBBiywQQmu1sVwYjotFMqMG7Mh+bvuxfSsLdAwCSIPcES8oqZgHtAjCb02vGtwi1Dk5sRkcjeYluRY/TZhLnFFUmAVKcwWsO5ZAmoudzYMMo2bmelIGGlwqvQYGErEIGFwQfPgFQy1rdpgqrIwwl9gjl3pG7NIPHdPx7niEm20cilLKkI2OQIoBkpgCAmbx1zYQmKdmNfDgy4ukt+7ujNWp5J24AD0qWku4jV/nsQuNLDsixrWc2Ie1tRq9DdgT633FCO2mb93wNEuc8BYw3/AIQtnnX+hLjxKpvLiK+1/pAXblGoe8NGYoegha5U68Xw0ht94GicowJv0Q5KUpLCxbc0rtSU8wcx4tVuRWA6YMQlaMuekGOiiKYctlfwMA2QNwSjlOxKG0dzAWzblTtkrXUIM2GK6RF3LRdvSYF6ETtgsQOEDqx2V2gQMwPKFzZzuItBWWMBTjZiXf6VfbSuEdr6hVtj1CVTcmG5zEHkwB3HucnNG5cEK98FsJAgx6QubX4j9s5t/wDAwNSVoxAjytMvGhBL0iCHf6ylgrdoWS72Oh7IHCWx2SpVaQuWsd6RthiZqxAW4StKyLgOYsSXbBFuxIQiV8wQz5O0GOm5KvGgiRcTciVUSQd85wE5PkRtFDmScgZbCCciViykfhLBmO7zYK6JRU7fR3jIa/GYMGXB78eUqEBTrcemjlAaoCgmWVdzK2vYlQVb67sam0TNtACHlWnhKICCVefMSiinmZduEJuOiiODEcpkTbP3LxqUuo2lc2Ox1WWoG9QmbwA8QGEP0hOOp8ESLbXn9mNsLRZeEw8alwlD9TBDRJY83yqEMej6Qvt2HuDk6ktgVB7vrN1GjKk1kSCgdCAEf92WucGGbSgPgEHVn69dC9ohJuDNqHMYl8EYXAoctBNsSomXDNzzzlzuD6ZshrkPWvubOg1qiMsFMjMfIhRuSmmGBMGAKYNjkR+ObFCvmMe9WZhAiruK2gL1Q8tB0QaZYMamLOgGcrQj435RCd9mBiZ+F0miwndGYgiLRZYJSkNVxKJYGiSoC3uQNHI19qxuJ3ZkOiQCVNMn+eoaEE1ZWurI7ftl2kRSCk6kTBc8iNN/3J+Rilx11BXjO+UwlkwD2ZYEvRmXdeEqTbBjIg7wxOxtE70GYqKUENtGJtmZeGBUuNkAEo1ipQByhvvLpAWcogDfZBWxog9ASUtnVNkKRnQtDaLcEIXJUGiy34mG0GdnDEV8+bfMCceSbdKiGAchArpWGyY7AnzkTwAYhrYIm5cz8yUD0MuDpemUeF+4DQF9Y8dyVKIK8YfvR+QqH5jA2gldWGBc7DMe6vzrcJnENTI3WoQO/wCiO4w7fMUJ5AgVGX/Y2gQ5IZ9EUo6mKFzEemAXTDRm+7fuEI62YxR0F1jC0gGAHmJdBFENPaS5fT/Vmw0rQ5eT7hoaXYADuCBQObjBmhgIVe6InXsTP2UzFKJHnGC4JYEzgS4j1ELDmbDywfTFEK4ZlVKMAbyoFdQ+CNAfA5SpabkgSpWIeLm2xEPNB6oXFEC10mQ50YgeTX3BUOenmR9VfIim6TFaE0qJLe3io+z3Ngp7BjaR69V5YIuT9r/8U4kgfzIYN2U2h3vUOk+p/URT/jGvtkR/rQ/pwvJkueKmUwvrI1wuUm8CMqU86HXRmM2isyh1cvBbJHdihyY9TGZVmznITd3hhZmMq3lhpnI9FdOr/wBYTK7wDHl0QpJWaxG246PDA6vMJ8EelOSoGYNCIxzxEvDKpujhXTJ1MZGlWuY2NionLCAKznNkKlRSoigJSvEx5HuHM+cIrRkNGgxmdr7lBHb+5jzIjytHufoYgegi4rzYEF4fNykNklG8chVBQvscCENAnPXS8xqu2IjOYULZZGxAdGbob/REGdyHME7OJrKqO2h007ketFLN8v3LJSB0ezwbJiVKQ32l9Q44GH4psaXjtcFBMX2lDNwIyOkUrxB1uoMiQOwQMX3I7cJoHNh1bcoAiMxcFvA24myTGNKg1DZrYq3piuYCtxDNhH3PgQr/ALc4sZGZaq2JcFhIgMCNniGAKCfCYDB00NEgmqB6qMmOVsxPHdYfdAaD/wAKTOhDQ0WGyhtV1+4DpOxAdIMBRW8gnalYiCIdNIMpAFjqQrpAlIjpAGKAfCQl2IdCAvENE7UTKSltAEwEB1gH40pKQAiRB/CAlEBAhxQLodiUg9GYIBKJUITKmiiVMfLnwGlSoPYlYlEpARKHxMkYAhUoiFQX+b7hHP8AFkAk2JRKqMiJSYmIB7kQkRKIEZiwKGgolIBHpxGDY/U7c7MOkj0E7Tv6S3KTLo6o2eg1G4bfcUbLOScKDKNzLFCopTpTzMV1EFTcsFGSb8BDnhOwjaJiyBGJi0/uYleuWiT3pSrXK2VRD2QSkYH1hAfnHrQKnVTsoNzj1CfnMS5FBsAQEpAp4hQEBLIB6OcqlkXtTOyhAncnVq2Tc8rcMKNH6mY+E4GPDvmGobDU6wGg1+eglf50ikOAJUxDOV0fp1IsuZFgxRVJt4dkEJegzhz9tQm5F8nW48p8qGrHji9BzGbHxCVGWI7d3hF67/BCg4KsdrgfvT4CGjFXl60IM+FqiFVCFZEez7ly4ypu94L4BzfpfAsNL0am0TcB/fsQSYhGfLPqCau0xR0gMuXBle5eBiWQhPnM2EJRKlTwIcEolJSBEqYgEom05HmDhcoFDU6Mnb0ERXKdk0zoRjhRzgUu6zyZ5s6uGO7BclO6gfNEZ0KMaf0Y7f1HbTDggHGGFCBPIi9JHcpygDZKeeddSrdRcnupioZudx9TuwfnE0uSih/mJQu8HU1qESWHVUGpo3HdL1Zvuhmwl6r0zJuprcUeihDSlphXu6Xo8MWPuQ1YqgUl637GlxiT70pgpBaL/BhAy4spLASyWRSe5z1aW6/OSuhEIq8DHoHRULifgfuBiy5cdp1muMNF+f7IS5a9N0pLixnzX0SmWwlDCQ6fRBgwjFCOa0Xptxm+Ekr0uIogkvT4uYjRdDlthCKp6FjscDZFrcuM4MsbN4myGjPgTbL0QLgJR22pCgga4+dKKdiEqUSkFHAE7EelHowNEH+YlHUb88Jq8TBPdLl51YvouDph+KbDQixn4Ir8aXL0raffgxdGai9iZlxh2n15cuXKTeRc2hGL1uq4rN13YbaUREFPjgYlVLjLEU0Q20xKnkz4aWajPzJiPQwYCXPlp8HLiy4tj4jxO9P3CMtcYt/Zy0XKTbPyX2S4DVXhM0Yz5H6NQlRBevxEzBgUSFsEgJRDE3nSRNElQ4MYDSM3FCKwQWI6CCm0hqw8MSGhcBFhjBjS6DM+dA0SCAi8saYJSUlhQsQVhBCZ3TEebgwQNfnoPVKlaJOqk0qVG19/3/4F1Kezf1hoammzSbahFdG/kY4JbFYmL04bEtisTrG3iTxoriW3OUbaJi2K1vE3vGvmJWcKxWCxWJv8iC5wuq49Sdyc05TBvG7ebOYqt4r8c6qPUiJvLbibvOCozLYLFY38GNiYnWW2Rob4myQTZWE3PKCr5CWsGfcdkwWSKTfIlodSJ1ifmSgXyy2pboLUT7vuJgsVjMZK2J1g6bf35iYLExRtfvzFYLos97W6fG/UOAaaddueUI6fEYBw7ZqJ9p9zbDbRnx+BJvTbgENd3k8BhADR1XZqJKnKfUm04PkZscDoxxwHG8TAOZP/2Q==;" vertex="1" parent="1">
                    <mxGeometry width="1600" height="699" as="geometry"/>
                </mxCell>
            </root>
        </mxGraphModel>
    </diagram>
</mxfile>